<svg width="20" height="20" viewBox="0 0 20 20" fill="none" xmlns="http://www.w3.org/2000/svg">
<g clip-path="url(#clip0_10_1225)">
<path d="M19.4493 16.9187H0.550674C0.403558 16.9156 0.263504 16.855 0.160557 16.7499C0.0576087 16.6447 -3.19231e-05 16.5034 1.32639e-08 16.3563V3.64393C1.32639e-08 3.32759 0.246046 3.08154 0.56239 3.08154H19.4376C19.7422 3.08154 20 3.32759 20 3.64393V16.3563C20 16.5054 19.9407 16.6485 19.8353 16.754C19.7298 16.8594 19.5985 16.9187 19.4493 16.9187Z" fill="#FE5022"/>
<path d="M6.86583 12.5601L4.89746 16.9186H19.4493C19.5985 16.9186 19.7415 16.8593 19.847 16.7539C19.9524 16.6484 20.0117 16.5053 20.0117 16.3562V12.5601H6.86583Z" fill="#4D4D4D"/>
<path d="M4.89746 3.08154L6.86583 7.44007H19.9883V3.63222C19.9854 3.48907 19.9281 3.3524 19.8279 3.25008C19.7278 3.14775 19.5924 3.08748 19.4493 3.08154H4.92089H4.89746Z" fill="#378B4E"/>
<path d="M6.98301 7.75629V12.232C6.98301 12.2788 6.98301 12.3257 6.95958 12.3726L6.86584 12.56H19.9883V7.43994H6.87756L6.95958 7.61569C6.97597 7.65664 6.98394 7.71219 6.98301 7.75629Z" fill="#F2F2F2"/>
<path d="M4.89748 15.7001H0.56239C0.413235 15.7001 0.270189 15.6408 0.16472 15.5354C0.0592517 15.4299 0 15.2869 0 15.1377L0 16.3562C0 16.6608 0.246046 16.9186 0.56239 16.9186H4.89748L5.44815 15.7001H4.89748Z" fill="#E5481F"/>
<path d="M19.4493 15.7001H5.43642L4.88574 16.9186H19.4493C19.5985 16.9186 19.7415 16.8593 19.847 16.7539C19.9524 16.6484 20.0117 16.5054 20.0117 16.3562V15.1377C20.0117 15.2869 19.9524 15.4299 19.847 15.5354C19.7415 15.6408 19.5985 15.7001 19.4493 15.7001Z" fill="#454545"/>
</g>
<defs>
<clipPath id="clip0_10_1225">
<rect width="20" height="20" fill="white"/>
</clipPath>
</defs>
</svg>
