<svg width="16" height="16" viewBox="0 0 16 16" fill="none" xmlns="http://www.w3.org/2000/svg">
<path d="M8 1.75C4.4095 1.75 1.5 4.66 1.5 8.25C1.5 11.84 4.4095 14.75 8 14.75C11.5895 14.75 14.5 11.84 14.5 8.25C14.5 4.66 11.59 1.75 8 1.75ZM7.9475 13.5135C5.048 13.5135 2.6975 11.163 2.6975 8.2635C2.6975 5.364 5.048 3.0135 7.9475 3.0135C10.8465 3.0135 13.1975 5.364 13.1975 8.2635C13.1975 11.163 10.8465 13.5135 7.9475 13.5135ZM9.465 8.5655H7.975V6.0495C7.975 5.7765 7.7535 5.5545 7.4805 5.5545C7.2075 5.5545 6.9855 5.776 6.9855 6.0495V9.06C6.9855 9.3335 7.207 9.5545 7.4805 9.5545H9.465C9.7385 9.5545 9.96 9.3335 9.96 9.06C9.96 8.787 9.7385 8.5655 9.465 8.5655Z" fill="#8B8B8B"/>
</svg>
