<svg width="80" height="80" viewBox="0 0 80 80" fill="none" xmlns="http://www.w3.org/2000/svg">
<circle cx="40" cy="40" r="38.5" stroke="#FF4646" stroke-width="3"/>
<path d="M57.254 27.4279H47.8491L47.3831 24.2278C47.1791 22.8284 45.9589 21.7729 44.5447 21.7729H35.4554C34.0411 21.7729 32.8209 22.8284 32.617 24.228L32.151 27.4279H22.7461C20.6805 27.4279 19 29.1083 19 31.1739V54.4808C19 56.5464 20.6805 58.2269 22.7461 58.2269H57.254C59.3195 58.2269 61 56.5464 61 54.4808V31.1739C61 29.1083 59.3195 27.4279 57.254 27.4279ZM35.0619 24.584C35.0761 24.4896 35.1235 24.4034 35.1957 24.341C35.2679 24.2786 35.36 24.244 35.4555 24.2436H44.5448C44.6402 24.244 44.7323 24.2786 44.8045 24.341C44.8767 24.4034 44.9242 24.4896 44.9384 24.584L45.3525 27.4279H34.6477L35.0619 24.584ZM58.5295 54.4809C58.5295 55.1841 57.9573 55.7564 57.254 55.7564H22.7461C22.0428 55.7564 21.4705 55.1842 21.4705 54.4808V42.7056C22.5576 43.5549 23.9235 44.0629 25.4068 44.0629H35.0586V45.2707C35.0586 45.4946 35.1194 45.7143 35.2346 45.9063C35.3498 46.0983 35.515 46.2553 35.7126 46.3607L39.4186 48.3371C39.5975 48.4326 39.7972 48.4825 40 48.4825C40.2028 48.4825 40.4025 48.4326 40.5814 48.3371L44.2874 46.3607C44.485 46.2553 44.6502 46.0982 44.7654 45.9063C44.8806 45.7143 44.9414 45.4946 44.9414 45.2707V44.063H54.5932C56.0764 44.063 57.4424 43.555 58.5295 42.7057V54.4809ZM37.5292 44.5296V40.961H42.4709V44.5296L40 45.8473L37.5292 44.5296ZM58.5295 37.6561C58.5295 39.8265 56.7637 41.5924 54.5932 41.5924H44.9414V39.7257C44.9414 39.0435 44.3883 38.4903 43.7061 38.4903H36.2939C35.6117 38.4903 35.0586 39.0434 35.0586 39.7257V41.5924H25.4068C23.2363 41.5924 21.4705 39.8266 21.4705 37.6562V31.1739C21.4705 30.5585 21.9087 30.0435 22.4893 29.9244C22.5738 29.9071 22.6598 29.8984 22.746 29.8985H57.2539C57.3418 29.8985 57.4276 29.9074 57.5106 29.9244C58.0913 30.0436 58.5293 30.5586 58.5293 31.1739V37.6561H58.5295Z" fill="#333333"/>
</svg>
