<svg width="80" height="80" viewBox="0 0 80 80" fill="none" xmlns="http://www.w3.org/2000/svg">
<circle cx="40" cy="40" r="38.5" stroke="#FF4646" stroke-width="3"/>
<path d="M57.1375 30.3625L49.6375 22.8625C49.5207 22.7467 49.3822 22.655 49.2299 22.5928C49.0776 22.5306 48.9145 22.4991 48.75 22.5H33.75C32.7554 22.5 31.8016 22.8951 31.0983 23.5984C30.3951 24.3016 30 25.2555 30 26.25V28.75C30 29.0815 30.1317 29.3995 30.3661 29.6339C30.6005 29.8683 30.9185 30 31.25 30C31.5815 30 31.8995 29.8683 32.1339 29.6339C32.3683 29.3995 32.5 29.0815 32.5 28.75V26.25C32.5 25.9185 32.6317 25.6006 32.8661 25.3661C33.1005 25.1317 33.4185 25 33.75 25H47.5V28.75C47.5 29.7446 47.8951 30.6984 48.5983 31.4017C49.3016 32.1049 50.2554 32.5 51.25 32.5H55V53.75C55 54.0815 54.8683 54.3995 54.6339 54.6339C54.3995 54.8683 54.0815 55 53.75 55H38.75C38.4185 55 38.1005 55.1317 37.8661 55.3661C37.6317 55.6006 37.5 55.9185 37.5 56.25C37.5 56.5815 37.6317 56.8995 37.8661 57.1339C38.1005 57.3683 38.4185 57.5 38.75 57.5H53.75C54.7446 57.5 55.6984 57.1049 56.4017 56.4017C57.1049 55.6984 57.5 54.7446 57.5 53.75V31.25C57.501 31.0855 57.4694 30.9224 57.4072 30.7701C57.345 30.6178 57.2534 30.4793 57.1375 30.3625ZM50 28.75V26.7625L53.2375 30H51.25C50.9185 30 50.6005 29.8683 50.3661 29.6339C50.1317 29.3995 50 29.0815 50 28.75Z" fill="#333333"/>
<path d="M37.5 40C37.5025 38.7483 37.1917 37.5159 36.596 36.4151C36.0002 35.3143 35.1384 34.3801 34.0891 33.6976C33.0398 33.0152 31.8364 32.6062 30.5886 32.508C29.3408 32.4097 28.0882 32.6254 26.9451 33.1352C25.8019 33.6451 24.8046 34.4329 24.0439 35.4269C23.2832 36.421 22.7834 37.5896 22.59 38.8262C22.3967 40.0629 22.5159 41.3283 22.9368 42.5071C23.3578 43.6859 24.067 44.7405 25 45.575V56.25C25.0012 56.4968 25.0755 56.7377 25.2134 56.9423C25.3513 57.147 25.5467 57.3062 25.775 57.4C26.0026 57.4957 26.2535 57.5219 26.496 57.4752C26.7385 57.4284 26.9617 57.3109 27.1375 57.1375L30 54.2625L32.8625 57.1375C32.9793 57.2534 33.1178 57.345 33.2701 57.4072C33.4224 57.4694 33.5855 57.501 33.75 57.5C33.914 57.5042 34.0766 57.47 34.225 57.4C34.4533 57.3062 34.6487 57.147 34.7866 56.9423C34.9245 56.7377 34.9988 56.4968 35 56.25V45.575C35.7846 44.8732 36.4127 44.0141 36.8434 43.0536C37.2742 42.0931 37.4979 41.0527 37.5 40ZM32.5 53.2375L30.8875 51.6125C30.7713 51.4953 30.633 51.4023 30.4807 51.3389C30.3284 51.2754 30.165 51.2428 30 51.2428C29.835 51.2428 29.6716 51.2754 29.5193 51.3389C29.3669 51.4023 29.2287 51.4953 29.1125 51.6125L27.5 53.2375V47.0625C29.1156 47.6458 30.8843 47.6458 32.5 47.0625V53.2375ZM30 45C29.0111 45 28.0444 44.7068 27.2221 44.1573C26.3999 43.6079 25.759 42.827 25.3806 41.9134C25.0022 40.9998 24.9031 39.9945 25.0961 39.0245C25.289 38.0546 25.7652 37.1637 26.4645 36.4645C27.1637 35.7652 28.0546 35.289 29.0245 35.0961C29.9944 34.9031 30.9998 35.0022 31.9134 35.3806C32.827 35.759 33.6079 36.3999 34.1573 37.2221C34.7067 38.0444 35 39.0111 35 40C35 41.3261 34.4732 42.5979 33.5355 43.5355C32.5978 44.4732 31.3261 45 30 45ZM43.75 30H37.5C37.1685 30 36.8505 30.1317 36.6161 30.3661C36.3817 30.6005 36.25 30.9185 36.25 31.25C36.25 31.5815 36.3817 31.8995 36.6161 32.1339C36.8505 32.3683 37.1685 32.5 37.5 32.5H43.75C44.0815 32.5 44.3995 32.3683 44.6339 32.1339C44.8683 31.8995 45 31.5815 45 31.25C45 30.9185 44.8683 30.6005 44.6339 30.3661C44.3995 30.1317 44.0815 30 43.75 30ZM51.25 36.25H41.25C40.9185 36.25 40.6005 36.3817 40.3661 36.6161C40.1317 36.8505 40 37.1685 40 37.5C40 37.8315 40.1317 38.1495 40.3661 38.3839C40.6005 38.6183 40.9185 38.75 41.25 38.75H51.25C51.5815 38.75 51.8995 38.6183 52.1339 38.3839C52.3683 38.1495 52.5 37.8315 52.5 37.5C52.5 37.1685 52.3683 36.8505 52.1339 36.6161C51.8995 36.3817 51.5815 36.25 51.25 36.25ZM51.25 42.5H41.25C40.9185 42.5 40.6005 42.6317 40.3661 42.8661C40.1317 43.1005 40 43.4185 40 43.75C40 44.0815 40.1317 44.3995 40.3661 44.6339C40.6005 44.8683 40.9185 45 41.25 45H51.25C51.5815 45 51.8995 44.8683 52.1339 44.6339C52.3683 44.3995 52.5 44.0815 52.5 43.75C52.5 43.4185 52.3683 43.1005 52.1339 42.8661C51.8995 42.6317 51.5815 42.5 51.25 42.5ZM51.25 48.75H38.75C38.4185 48.75 38.1005 48.8817 37.8661 49.1161C37.6317 49.3505 37.5 49.6685 37.5 50C37.5 50.3315 37.6317 50.6495 37.8661 50.8839C38.1005 51.1183 38.4185 51.25 38.75 51.25H51.25C51.5815 51.25 51.8995 51.1183 52.1339 50.8839C52.3683 50.6495 52.5 50.3315 52.5 50C52.5 49.6685 52.3683 49.3505 52.1339 49.1161C51.8995 48.8817 51.5815 48.75 51.25 48.75Z" fill="#333333"/>
</svg>
