<svg width="80" height="80" viewBox="0 0 80 80" fill="none" xmlns="http://www.w3.org/2000/svg">
<circle cx="40" cy="40" r="38.5" stroke="#FF4646" stroke-width="3"/>
<path d="M56.4938 36.4168C54.5948 35.7047 52.0944 35.3125 49.4531 35.3125C46.3169 35.3125 43.1583 35.8726 41.0938 36.9629V25.9375C41.0938 24.9027 40.4855 23.4411 37.5875 22.3543C35.6885 21.6422 33.1881 21.25 30.5469 21.25C25.6561 21.25 20 22.7034 20 25.9375V54.0625C20 55.0973 20.6083 56.559 23.5063 57.6457C25.4053 58.3578 27.9056 58.75 30.5469 58.75C33.4285 58.75 37.7901 58.2039 39.9385 56.3345C41.8172 57.9273 45.6516 58.75 49.4531 58.75C54.3835 58.75 60 57.2822 60 54.0625V40C60 38.9652 59.3917 37.5036 56.4938 36.4168ZM38.75 54.0625C38.75 54.7502 35.8793 56.4219 30.5469 56.4219C25.2373 56.4219 22.3438 54.7567 22.3438 54.0625V52.4422C24.6438 53.6534 27.9311 54.0625 30.5469 54.0625C33.1612 54.0625 36.4492 53.6538 38.75 52.4422V54.0625ZM38.75 49.375C38.75 50.0627 35.8793 51.7344 30.5469 51.7344C25.2373 51.7344 22.3438 50.0692 22.3438 49.375V47.7547C24.6438 48.9659 27.9311 49.375 30.5469 49.375C33.1612 49.375 36.4492 48.9663 38.75 47.7547V49.375ZM38.75 44.6875C38.75 45.3752 35.8793 47.0469 30.5469 47.0469C25.2373 47.0469 22.3438 45.3817 22.3438 44.6875V43.0672C24.6438 44.2784 27.9311 44.6875 30.5469 44.6875C33.1612 44.6875 36.4492 44.2788 38.75 43.0672V44.6875ZM38.75 40C38.75 40.6877 35.8793 42.3594 30.5469 42.3594C25.2373 42.3594 22.3438 40.6942 22.3438 40V38.3797C24.643 39.5906 27.9302 40 30.5469 40C33.1605 40 36.4493 39.5914 38.75 38.3797V40ZM38.75 35.3125C38.75 36.0002 35.8793 37.6719 30.5469 37.6719C25.2373 37.6719 22.3438 36.0067 22.3438 35.3125V33.6922C24.6438 34.9034 27.9311 35.3125 30.5469 35.3125C33.1612 35.3125 36.4492 34.9038 38.75 33.6922V35.3125ZM38.75 30.625C38.75 31.3127 35.8793 32.9844 30.5469 32.9844C25.2373 32.9844 22.3438 31.3192 22.3438 30.625V29.0047C24.6438 30.2159 27.9311 30.625 30.5469 30.625C33.1612 30.625 36.4492 30.2163 38.75 29.0047V30.625ZM30.5469 28.2969C25.2373 28.2969 22.3438 26.6317 22.3438 25.9375C22.3438 25.2498 25.2145 23.5781 30.5469 23.5781C35.8564 23.5781 38.75 25.2433 38.75 25.9375C38.75 26.6252 35.8793 28.2969 30.5469 28.2969ZM57.6562 54.0625C57.6562 54.7502 54.7855 56.4219 49.4531 56.4219C44.2251 56.4219 41.0938 54.7713 41.0938 54.0625V52.4121C43.1583 53.5024 46.3169 54.0625 49.4531 54.0625C52.0674 54.0625 55.3555 53.6538 57.6562 52.4422V54.0625ZM57.6562 49.375C57.6562 50.0627 54.7855 51.7344 49.4531 51.7344C44.2251 51.7344 41.0938 50.0838 41.0938 49.375V47.7246C43.1583 48.8149 46.3169 49.375 49.4531 49.375C52.0674 49.375 55.3555 48.9663 57.6562 47.7547V49.375ZM57.6562 44.6875C57.6562 45.3752 54.7855 47.0469 49.4531 47.0469C44.2251 47.0469 41.0938 45.3963 41.0938 44.6875V43.0371C43.1583 44.1274 46.3169 44.6875 49.4531 44.6875C52.0674 44.6875 55.3555 44.2788 57.6562 43.0672V44.6875ZM49.4531 42.3594C44.1582 42.3594 41.0938 40.6882 41.0938 40C41.0938 39.3404 44.0704 37.6406 49.4531 37.6406C54.7627 37.6406 57.6562 39.3058 57.6562 40C57.6562 40.6877 54.7855 42.3594 49.4531 42.3594Z" fill="#333333"/>
</svg>
