<svg width="80" height="80" viewBox="0 0 80 80" fill="none" xmlns="http://www.w3.org/2000/svg">
<circle cx="40" cy="40" r="38.5" stroke="#FF4646" stroke-width="3"/>
<g clip-path="url(#clip0_10_1513)">
<path d="M60 39.0417C59.925 38.55 59.9083 38.65 56.5583 36.4583C59.5333 25.2833 59.4667 25.9333 59.225 25.5083C58.9833 25.0833 59.4167 25.3083 50 22.7833V20.8333C50 20.6123 49.9122 20.4004 49.7559 20.2441C49.5996 20.0878 49.3877 20 49.1667 20H30.8333C30.6123 20 30.4004 20.0878 30.2441 20.2441C30.0878 20.4004 30 20.6123 30 20.8333V22.7833L21.2833 25.1167C21.1769 25.1447 21.0771 25.1935 20.9897 25.2603C20.9023 25.3271 20.8289 25.4106 20.7739 25.5059C20.7189 25.6012 20.6833 25.7064 20.6692 25.8156C20.6551 25.9247 20.6627 26.0355 20.6917 26.1417L23.4583 36.4583C20.175 38.6 20.125 38.5333 20.025 38.9583C20 39.1667 20 38.2417 20 56.6667C20 57.5507 20.3512 58.3986 20.9763 59.0237C21.6014 59.6488 22.4493 60 23.3333 60H56.6667C57.5507 60 58.3986 59.6488 59.0237 59.0237C59.6488 58.3986 60 57.5507 60 56.6667V39.0417ZM48.375 47.2L58.375 40.7083C58.375 58.1333 58.375 56.7583 58.3167 57.0917L48.375 47.2ZM57.6417 39.1667L55.425 40.6083L56.0833 38.15L57.6417 39.1667ZM57.5 26.5167C57.0667 28.1333 59.0583 20.6833 53.3333 41.975L50 44.1667V27.9583L51.925 28.475C51.9577 28.8456 52.0708 29.2046 52.2565 29.527C52.4421 29.8494 52.6959 30.1274 53 30.3417L51.8833 34.5083C51.8259 34.7227 51.8559 34.9511 51.9669 35.1434C52.0778 35.3356 52.2606 35.4759 52.475 35.5333C52.6894 35.5908 52.9178 35.5607 53.11 35.4498C53.3023 35.3388 53.4425 35.156 53.5 34.9417L54.7917 30.1167C54.8201 30.0083 54.8264 29.8952 54.8102 29.7843C54.7939 29.6734 54.7555 29.567 54.6971 29.4713C54.6388 29.3756 54.5617 29.2926 54.4706 29.2274C54.3794 29.1622 54.2761 29.116 54.1667 29.0917C54.061 29.0627 53.9621 29.0133 53.8756 28.9461C53.7891 28.8789 53.7167 28.7953 53.6625 28.7001C53.6083 28.6049 53.5734 28.5 53.5599 28.3913C53.5463 28.2826 53.5542 28.1723 53.5833 28.0667C53.6123 27.9605 53.6199 27.8497 53.6058 27.7406C53.5917 27.6314 53.5561 27.5262 53.5011 27.4309C53.4461 27.3356 53.3727 27.2521 53.2853 27.1853C53.1979 27.1185 53.0981 27.0697 52.9917 27.0417L50 26.2333V24.5083L57.5 26.5167ZM48.3333 21.6667V45.2333L40 50.675L31.6667 45.2333V21.6667H48.3333ZM21.725 57.0917C21.6667 56.7583 21.6667 58.1083 21.6667 40.7083L31.6667 47.2L21.725 57.0917ZM30 24.5083V26.2333L26.975 27.0667C26.8686 27.0947 26.7688 27.1435 26.6814 27.2103C26.5939 27.2771 26.5206 27.3606 26.4656 27.4559C26.4106 27.5512 26.375 27.6564 26.3609 27.7656C26.3468 27.8747 26.3544 27.9855 26.3833 28.0917C26.4361 28.297 26.4086 28.5148 26.3064 28.7006C26.2042 28.8864 26.035 29.0262 25.8333 29.0917C25.6203 29.1484 25.4384 29.2872 25.3275 29.4778C25.2166 29.6683 25.1857 29.8951 25.2417 30.1083L26.5 34.9333C26.5575 35.1477 26.6977 35.3305 26.89 35.4415C27.0822 35.5524 27.3106 35.5825 27.525 35.525C27.7394 35.4675 27.9222 35.3273 28.0331 35.135C28.1441 34.9428 28.1741 34.7144 28.1167 34.5L27 30.3333C27.3041 30.1191 27.5579 29.841 27.7435 29.5187C27.9292 29.1963 28.0423 28.8373 28.075 28.4667L30 27.9583V44.1667L26.6667 41.975C26.0333 39.625 23.15 28.8667 22.5 26.5167L30 24.5083ZM24.575 40.6083L22.3583 39.1667L23.9167 38.15L24.575 40.6083ZM22.9083 58.275L33.05 48.125C39.7833 52.525 39.8083 52.7917 40.4583 52.3667L46.95 48.125L57.0917 58.275C56.6667 58.3833 23.25 58.3333 22.9083 58.275Z" fill="#333333" stroke="#333333" stroke-width="0.5"/>
<path d="M35.0002 30.8335V26.5252C35.3521 26.4009 35.6717 26.1995 35.9356 25.9356C36.1995 25.6717 36.4009 25.3521 36.5252 25.0002H43.4752C43.5994 25.3521 43.8009 25.6717 44.0648 25.9356C44.3286 26.1995 44.6483 26.4009 45.0002 26.5252V30.8335C45.0002 31.0545 45.088 31.2665 45.2442 31.4228C45.4005 31.579 45.6125 31.6668 45.8335 31.6668C46.0545 31.6668 46.2665 31.579 46.4228 31.4228C46.579 31.2665 46.6668 31.0545 46.6668 30.8335V25.8335C46.6668 25.6125 46.579 25.4005 46.4228 25.2442C46.2665 25.088 46.0545 25.0002 45.8335 25.0002C45.6125 25.0002 45.4005 24.9124 45.2442 24.7561C45.088 24.5998 45.0002 24.3878 45.0002 24.1668C45.0002 23.9458 44.9124 23.7339 44.7561 23.5776C44.5998 23.4213 44.3878 23.3335 44.1668 23.3335H35.8335C35.6125 23.3335 35.4005 23.4213 35.2442 23.5776C35.088 23.7339 35.0002 23.9458 35.0002 24.1668C35.0002 24.3878 34.9124 24.5998 34.7561 24.7561C34.5998 24.9124 34.3878 25.0002 34.1668 25.0002C33.9458 25.0002 33.7339 25.088 33.5776 25.2442C33.4213 25.4005 33.3335 25.6125 33.3335 25.8335V30.8335C33.3335 31.0545 33.4213 31.2665 33.5776 31.4228C33.7339 31.579 33.9458 31.6668 34.1668 31.6668C34.3878 31.6668 34.5998 31.579 34.7561 31.4228C34.9124 31.2665 35.0002 31.0545 35.0002 30.8335Z" fill="#333333" stroke="#333333" stroke-width="0.5"/>
<path d="M40.0002 44.9998C41.3187 44.9998 42.6076 44.6088 43.704 43.8762C44.8003 43.1437 45.6548 42.1025 46.1594 40.8843C46.6639 39.6661 46.796 38.3257 46.5387 37.0325C46.2815 35.7393 45.6466 34.5514 44.7142 33.619C43.7819 32.6867 42.594 32.0518 41.3008 31.7945C40.0076 31.5373 38.6671 31.6693 37.4489 32.1739C36.2308 32.6785 35.1896 33.533 34.457 34.6293C33.7245 35.7256 33.3335 37.0145 33.3335 38.3331C33.3335 40.1012 34.0359 41.7969 35.2861 43.0471C36.5364 44.2974 38.2321 44.9998 40.0002 44.9998ZM40.0002 33.3331C40.9891 33.3331 41.9558 33.6263 42.778 34.1757C43.6003 34.7251 44.2411 35.506 44.6196 36.4197C44.998 37.3333 45.097 38.3386 44.9041 39.3085C44.7112 40.2784 44.235 41.1694 43.5357 41.8686C42.8364 42.5679 41.9455 43.0441 40.9756 43.237C40.0057 43.4299 39.0004 43.3309 38.0867 42.9525C37.1731 42.574 36.3922 41.9332 35.8428 41.1109C35.2934 40.2887 35.0002 39.322 35.0002 38.3331C35.0002 37.007 35.5269 35.7352 36.4646 34.7976C37.4023 33.8599 38.6741 33.3331 40.0002 33.3331ZM39.6835 27.5664C39.5437 27.6239 39.4221 27.7183 39.3318 27.8395C39.2415 27.9608 39.1859 28.1044 39.1709 28.2548C39.156 28.4052 39.1822 28.5569 39.2469 28.6936C39.3115 28.8302 39.4121 28.9468 39.5379 29.0306C39.6637 29.1145 39.81 29.1625 39.961 29.1697C40.112 29.1768 40.2621 29.1427 40.3952 29.071C40.5283 28.9993 40.6394 28.8928 40.7167 28.7628C40.7939 28.6328 40.8342 28.4843 40.8335 28.3331C40.8328 28.1966 40.7986 28.0624 40.7339 27.9422C40.6692 27.822 40.576 27.7196 40.4624 27.6439C40.3489 27.5682 40.2184 27.5215 40.0826 27.508C39.9468 27.4945 39.8097 27.5146 39.6835 27.5664Z" fill="#333333" stroke="#333333" stroke-width="0.5"/>
</g>
<defs>
<clipPath id="clip0_10_1513">
<rect width="40" height="40" fill="white" transform="translate(20 20)"/>
</clipPath>
</defs>
</svg>
