<svg width="80" height="80" viewBox="0 0 80 80" fill="none" xmlns="http://www.w3.org/2000/svg">
<circle cx="40" cy="40" r="38.5" stroke="#FF4646" stroke-width="3"/>
<path d="M37.4977 50.9347C38.0677 51.6953 38.9763 52.1875 40 52.1875C41.0237 52.1875 41.9323 51.6953 42.5023 50.9347L50.0084 41.5434C51.5725 39.4561 52.5 36.8655 52.5 34.0625C52.5 27.1701 46.8924 21.5625 40 21.5625C33.1076 21.5625 27.5 27.1701 27.5 34.0625C27.5 36.8655 28.4275 39.4561 29.9916 41.5434L37.4977 50.9347Z" stroke="#333333" stroke-width="2.5" stroke-miterlimit="10" stroke-linecap="round" stroke-linejoin="round"/>
<path d="M40 40.3125C43.4518 40.3125 46.25 37.5143 46.25 34.0625C46.25 30.6107 43.4518 27.8125 40 27.8125C36.5482 27.8125 33.75 30.6107 33.75 34.0625C33.75 37.5143 36.5482 40.3125 40 40.3125Z" stroke="#333333" stroke-width="2.5" stroke-miterlimit="10" stroke-linecap="round" stroke-linejoin="round"/>
<path d="M51.3438 49.5586C52.0859 50.3577 52.5 51.2484 52.5 52.1873C52.5 55.6391 46.9036 58.4373 40 58.4373C33.0964 58.4373 27.5 55.6391 27.5 52.1873C27.5 51.2484 27.9141 50.3577 28.6562 49.5586" stroke="#333333" stroke-width="2.5" stroke-miterlimit="10" stroke-linecap="round" stroke-linejoin="round"/>
</svg>
