<svg width="219" height="78" viewBox="0 0 219 78" fill="none" xmlns="http://www.w3.org/2000/svg">
<g clip-path="url(#clip0_10_2021)">
<path d="M5.65965 63.1012L3.98639 62.0301C3.59269 62.7117 3.29741 63.1012 3.19898 63.3934C3.98639 63.8803 4.57696 64.1724 4.97066 64.3671C5.26595 63.7829 5.4628 63.4907 5.4628 63.4907C6.25022 63.9776 6.74235 64.2698 7.03763 64.3671C7.13606 64.2698 7.23448 64.075 7.43134 63.7829C7.62819 63.4907 7.72662 63.1012 7.72662 63.1012L6.05336 62.1274C5.95493 62.6143 5.75808 62.9065 5.65965 63.1012ZM22.6875 59.3035L24.4592 60.472C24.9513 59.693 25.2466 59.2061 25.2466 59.0113C23.9671 58.3297 23.3765 57.9402 23.3765 57.9402C23.2781 58.3297 23.0812 58.8166 22.6875 59.3035ZM25.6403 49.663C25.1482 50.7342 24.8529 51.3185 24.8529 51.3185C25.5419 52.7791 25.9356 53.7529 25.9356 54.045V54.2398H7.03763L6.15179 55.9926C6.34864 56.09 6.74235 56.1874 7.43134 56.1874C8.12033 56.1874 8.61246 56.2848 8.90774 56.3821C9.39988 56.5769 9.59673 57.0638 9.69516 57.5507C9.30145 57.8428 8.80932 58.1349 8.21875 58.3297C7.52977 58.6218 6.74235 58.7192 5.75808 58.8166H4.57696C2.41156 58.8166 1.32887 58.0376 1.32887 56.3821C1.32887 55.9926 1.52572 55.311 2.01786 54.3372L2.60842 52.8765V52.5844C2.60842 52.5844 2.50999 52.5844 2.50999 52.487C2.01786 52.9739 1.52572 53.7529 1.13201 54.7267C0.738305 55.7979 0.443024 56.6743 0.443024 57.5507C0.443024 58.6218 0.836732 59.4009 1.52572 59.8877C2.11628 60.3746 2.9037 60.5694 3.88797 60.5694C4.57696 60.5694 5.26595 60.472 6.05336 60.2773C7.33291 59.9851 8.51404 59.4982 9.39988 58.914C9.4983 58.8166 9.59673 58.6218 9.59673 58.5244C10.3841 57.2585 10.9747 56.2847 11.27 55.6031H26.4277C26.723 54.2398 26.9199 53.266 26.9199 52.8765C26.9199 52.3896 26.8214 51.8053 26.5262 50.9289C26.1325 50.4421 25.9356 49.8578 25.6403 49.663ZM41.4871 49.663C40.9949 50.7342 40.6996 51.3185 40.6996 51.3185C41.3886 52.7791 41.7823 53.7529 41.7823 54.045V54.2398H37.1563C36.7626 53.6555 36.3689 52.5844 36.172 51.2211C35.9752 49.5656 35.6799 48.3971 35.483 47.9102C35.3846 48.105 35.2862 48.3971 34.9909 48.7866C34.794 49.1761 34.5972 49.4683 34.4988 49.663L35.3846 53.1686C35.2862 53.7529 35.0893 54.1424 34.6956 54.2398C33.7113 54.4346 32.9239 54.6293 32.1365 54.6293C31.6444 54.6293 31.1522 54.5319 30.6601 54.4346L30.3648 54.1424C30.2664 54.045 30.2664 53.9477 30.2664 53.7529C30.2664 53.266 30.168 52.9739 30.0695 52.9739C29.6758 54.1424 29.479 55.0188 29.479 55.5057C29.479 55.6031 29.5774 55.7979 29.6758 56.09C29.7743 56.1874 29.8727 56.1874 29.8727 56.2847C30.2664 56.3821 30.6601 56.4795 31.1522 56.4795C31.8412 56.4795 32.6286 56.3821 33.5145 56.2847C34.3019 56.1874 34.794 56.09 34.8925 55.9926C35.3846 55.4083 35.6799 54.8241 35.7783 54.4346C35.7783 54.5319 35.9752 54.7267 36.172 55.2136C36.2704 55.5057 36.4673 55.7979 36.6641 55.8952L37.0579 56.09H42.1761C42.4713 54.7267 42.6682 53.7529 42.6682 53.3634C42.6682 52.8765 42.5698 52.2922 42.2745 51.4158C42.0776 50.4421 41.7823 49.8578 41.4871 49.663ZM38.6327 59.3035L40.4044 60.472C40.8965 59.693 41.1918 59.2061 41.1918 59.0113C39.9122 58.3297 39.3217 57.9402 39.3217 57.9402C39.1248 58.3297 38.928 58.8166 38.6327 59.3035ZM50.5423 46.2548C50.8376 45.6705 51.0345 45.3784 51.1329 45.281C52.0188 45.8653 52.6093 46.1574 52.9046 46.2548L53.5936 44.9889L51.7235 43.723C51.3298 44.3072 51.1329 44.5994 51.1329 44.6967C50.3455 44.3072 49.7549 43.9177 49.3612 43.723L48.5738 45.0862C48.7707 45.1836 49.0659 45.3784 49.5581 45.6705C49.9518 45.9627 50.3455 46.06 50.5423 46.2548ZM105.661 45.3784C105.071 45.0862 104.677 44.7941 104.382 44.6967C104.283 44.5994 104.185 44.502 104.185 44.3072L104.283 44.0151V43.6256H103.988C103.496 44.4046 103.201 44.9889 103.004 45.4758C102.905 45.5731 102.905 45.6705 102.905 45.8653C102.905 46.06 102.905 46.1574 103.004 46.1574C103.102 46.3522 103.299 46.4495 103.398 46.5469C103.693 48.2997 103.89 49.663 103.988 50.6368C104.087 50.9289 104.087 51.4158 104.185 51.9027C104.283 52.7791 104.382 53.3634 104.382 53.5582V54.1424H99.4605C99.559 54.045 99.6574 53.7529 99.9527 53.3634C100.15 53.0713 100.248 52.8765 100.248 52.8765C100.248 52.1949 99.7558 51.5132 98.6731 50.8316C97.7873 50.2473 96.9999 49.9552 96.3109 49.9552C95.3266 49.9552 93.9486 50.5394 92.0785 51.6106C89.9131 52.9739 88.3383 53.7529 87.4525 54.045H86.3698C85.8776 54.045 85.6808 53.9477 85.5823 53.7529C85.8776 53.4608 85.9761 52.8765 86.0745 52.1949C86.1729 51.708 86.1729 51.2211 86.1729 50.7342C85.6808 51.3185 85.0902 51.8053 84.6965 52.2922V53.1686C84.6965 53.7529 84.4996 54.045 84.1059 54.045H72.2947C72.0979 54.045 71.901 53.9477 71.8026 53.6555C71.8026 53.5582 71.7041 53.4608 71.7041 53.4608V53.266C72.0979 53.0713 72.4916 52.9739 72.8853 52.8765C73.1805 52.7791 73.279 52.7791 73.3774 52.7791H74.8538L75.5428 51.0263H74.5585C73.968 51.0263 73.5743 51.0263 73.3774 50.9289C71.5073 50.4421 70.1293 50.1499 69.2435 49.8578C68.9482 49.7604 68.5545 49.663 68.1608 49.663H67.6686C67.3734 49.7604 67.1765 49.8578 66.9797 49.9552C66.4875 50.2473 66.1922 50.7342 65.897 51.4158C65.7985 51.708 65.7001 51.9027 65.7001 52.0001V52.5844C65.7985 52.487 65.9954 52.3896 66.3891 52.0975C66.5859 51.9027 66.8812 51.8053 67.1765 51.8053C67.1765 51.8053 67.2749 51.8053 67.3734 51.708H67.5702C68.0623 51.708 69.2435 52.0001 71.1136 52.5844C70.3262 53.266 69.5387 53.6555 68.8498 53.9477C68.3576 54.1424 67.8655 54.2398 67.3734 54.2398H55.6605C55.1684 54.2398 54.7747 54.1424 54.6763 53.8503C54.5779 53.7529 54.5779 53.6555 54.5779 53.5582C54.1841 50.6368 53.8889 48.2997 53.692 46.7417C53.003 47.5207 52.6093 48.0076 52.6093 48.2024C52.6093 48.5919 52.6093 48.9814 52.7077 49.1761C52.5109 49.2735 52.1172 49.4683 51.4282 49.663C50.8376 49.8578 50.4439 50.0525 50.2471 50.2473C49.4597 50.9289 48.8691 52.0001 48.6722 53.3634C48.9675 53.5582 49.2628 53.7529 49.5581 53.8503C49.7549 53.9477 49.9518 54.045 50.3455 54.045C51.5266 54.3372 52.1172 54.5319 52.2156 54.5319C52.314 54.5319 52.4125 54.4346 52.5109 54.3372L52.8062 53.7529C53.003 53.4608 53.1014 53.266 53.2983 53.1686C53.3967 53.3634 53.3967 53.4608 53.3967 53.6555C53.4952 54.3372 53.4952 54.8241 53.5936 54.9215C53.692 55.2136 53.8889 55.5057 54.1841 55.6031C54.2826 55.7005 54.4794 55.7005 54.5779 55.7005H67.7671C67.8655 55.7005 67.9639 55.7005 68.1608 55.6031C68.7513 55.2136 69.2435 54.9215 69.5387 54.6293C70.1293 54.1424 70.6214 53.8503 70.9167 53.6555C71.1136 54.5319 71.212 55.1162 71.3104 55.2136C71.4089 55.5057 71.6057 55.7005 71.8026 55.7005H83.9091C84.0075 55.7005 84.3028 55.5057 84.6965 55.1162C84.8934 55.4083 84.9918 55.6031 85.0902 55.7005H104.48C104.677 55.4083 104.874 55.0188 104.874 54.6293C104.972 54.2398 104.972 53.8503 105.071 53.4608C105.169 53.1686 105.169 52.8765 105.169 52.5844L104.677 47.0338L104.776 47.1312C105.071 46.7417 105.366 46.06 105.661 45.3784ZM52.4125 52.8765C52.2156 52.8765 52.0187 52.8765 51.8219 52.7791C51.5266 52.7791 51.1329 52.5844 50.6408 52.3896C50.3455 52.2922 50.0502 52.0975 49.8534 51.9027C50.0502 51.708 50.4439 51.5132 51.0345 51.3185C51.5266 51.1237 51.9203 51.0263 52.1172 50.8316C52.4125 50.4421 52.6093 50.1499 52.8062 49.8578L53.2983 52.8765H52.4125ZM98.181 54.1424C97.9841 54.2398 97.8857 54.2398 97.8857 54.2398H89.6179C90.5037 53.7529 91.488 53.266 92.3738 52.6818C93.5549 52.0975 94.5392 51.708 95.3266 51.708C95.7203 51.708 96.114 51.8053 96.4093 51.9027C96.6062 52.0001 96.9014 52.1949 97.492 52.5844C98.181 53.0713 98.4763 53.4608 98.4763 53.7529C98.4763 53.9477 98.3778 54.045 98.181 54.1424ZM107.925 45.281L109.008 55.8952C109.5 54.8241 109.795 53.8503 109.795 52.9739L109.205 42.457C108.319 43.8203 107.925 44.7941 107.925 45.281ZM118.162 46.2548C118.457 45.6705 118.654 45.3784 118.752 45.281C119.638 45.8653 120.229 46.1574 120.524 46.2548L121.213 44.9889L119.343 43.723C118.949 44.3072 118.752 44.5994 118.752 44.6967C117.965 44.3072 117.374 43.9177 116.981 43.723L116.193 45.0862C116.39 45.1836 116.685 45.3784 117.177 45.6705C117.67 45.9627 117.965 46.06 118.162 46.2548ZM132.532 46.2548C132.827 46.3522 133.123 46.4495 133.516 46.4495C133.221 46.6443 133.024 46.9364 132.729 47.1312C132.237 47.5207 132.04 47.8128 132.04 48.0076C132.04 48.105 132.04 48.105 132.138 48.2024C133.615 47.1312 134.993 46.5469 136.174 46.3522C136.469 45.9626 136.568 45.6705 136.666 45.4758H134.697C133.319 45.3784 132.532 45.1836 132.532 44.7941C132.532 44.5994 132.729 44.3072 133.024 44.1125C133.319 43.8203 133.615 43.723 133.91 43.723C134.205 43.723 134.501 43.8203 134.796 44.1125C135.091 43.6256 135.19 43.3334 135.19 43.4308C135.19 43.3334 135.091 43.2361 134.894 43.0413C134.697 42.8465 134.501 42.7492 134.402 42.7492C133.812 42.7492 133.221 43.0413 132.63 43.723C132.04 44.4046 131.745 44.9889 131.745 45.6705C131.843 45.8653 132.138 46.06 132.532 46.2548ZM140.505 58.6218C139.619 58.0376 138.93 57.648 138.634 57.4533C138.438 57.7454 138.142 58.2323 137.847 58.914L139.717 59.9851C140.012 59.5956 140.209 59.3035 140.308 59.1087C141.095 59.4982 141.686 59.8877 142.178 60.0825C142.375 59.7904 142.67 59.3035 142.965 58.7192C141.883 58.0376 141.292 57.7454 141.194 57.648C140.8 58.1349 140.603 58.4271 140.505 58.6218ZM171.214 52.1949C170.722 51.1237 169.442 49.7604 167.572 48.2024C167.178 47.9102 166.981 47.8128 166.981 47.8128C166.883 47.8128 166.686 48.0076 166.489 48.3971C166.292 48.7866 166.194 49.0788 166.194 49.2735V49.9552C165.505 50.6368 164.914 51.6106 164.422 52.7791C164.324 52.8765 164.324 53.1686 164.225 53.6555C164.127 54.045 164.029 54.2398 163.93 54.3372H142.473C142.473 54.1424 142.473 53.9477 142.375 53.7529V51.6106C142.375 51.5132 142.375 51.3185 142.276 50.9289C142.178 50.5394 142.178 50.2473 142.178 50.0525C142.079 50.0525 141.883 50.3447 141.489 50.9289C141.095 51.4158 140.898 51.8053 140.898 52.0001C140.898 52.0001 140.898 52.2922 140.997 52.8765C141.095 53.4608 141.095 53.8503 141.095 54.045V54.2398H136.469C136.174 54.2398 135.977 54.1424 135.879 53.8503L136.371 50.6368V49.8578C136.174 49.9552 135.879 50.3447 135.386 50.9289C134.894 51.5132 134.697 51.8053 134.697 52.0001V53.7529C134.599 53.9477 134.501 54.045 134.205 54.1424C134.008 54.2398 133.812 54.3372 133.615 54.3372H123.181C122.689 54.3372 122.296 54.2398 122.197 53.9477C122.099 53.8503 122.099 53.7529 122.099 53.6555C121.705 50.5394 121.508 48.2997 121.311 46.7417C120.622 47.5207 120.229 48.0076 120.229 48.2024C120.229 48.5919 120.229 48.9814 120.327 49.1761C120.13 49.2735 119.737 49.4683 119.048 49.663C118.457 49.8578 118.063 50.0525 117.866 50.2473C117.079 50.9289 116.488 52.0001 116.292 53.3634C116.587 53.5582 116.882 53.7529 117.177 53.8503C117.374 53.9477 117.571 54.045 117.965 54.045C119.146 54.3372 119.736 54.5319 119.835 54.5319C119.933 54.5319 120.032 54.4346 120.13 54.3372L120.425 53.7529C120.622 53.4608 120.721 53.266 120.918 53.1686C121.016 53.3634 121.016 53.4608 121.016 53.6555C121.114 54.3372 121.114 54.8241 121.213 54.9215C121.311 55.2136 121.508 55.5057 121.803 55.6031C121.902 55.7005 122.099 55.7005 122.197 55.7005H133.91C134.304 55.1162 134.501 54.7267 134.599 54.6293C134.697 54.8241 134.894 55.0188 134.993 55.2136C135.19 55.5057 135.386 55.6031 135.485 55.6031H140.505C140.898 55.0188 141.194 54.7267 141.194 54.6293C141.489 55.1162 141.686 55.4083 141.784 55.6031H163.832C163.635 55.6031 164.422 55.5057 166.194 55.2136L170.328 55.6031C170.623 55.5057 170.919 55.2136 171.115 54.7267C171.411 54.2398 171.509 53.7529 171.509 53.266C171.608 53.266 171.509 52.7791 171.214 52.1949ZM120.13 52.8765C120.032 52.8765 119.737 52.8765 119.441 52.7791C119.146 52.7791 118.752 52.5844 118.26 52.3896C117.965 52.2922 117.67 52.0975 117.473 51.9027C117.67 51.708 118.063 51.5132 118.654 51.3185C119.146 51.1237 119.54 51.0263 119.737 50.8316C120.032 50.4421 120.229 50.1499 120.425 49.8578L120.918 52.8765H120.13ZM167.375 53.4608C167.08 53.7529 166.883 53.9477 166.588 53.9477C166.391 53.9477 166.096 53.8503 165.702 53.7529C165.21 53.5582 164.914 53.3634 164.914 53.0713C164.914 53.0713 165.013 52.8765 165.21 52.5844C165.8 51.8053 166.292 51.4158 166.588 51.4158C166.883 51.4158 167.08 51.6106 167.277 51.9027C167.474 52.1949 167.572 52.487 167.572 52.7791C167.769 52.8765 167.67 53.1686 167.375 53.4608ZM170.722 54.2398H170.23C169.934 54.2398 169.541 54.1424 169.147 53.9477C168.655 53.7529 168.359 53.4608 168.359 53.1686C168.359 53.0713 168.458 52.8765 168.556 52.5844C168.753 52.1949 168.95 52.0001 169.147 52.0001C169.344 52.0001 169.737 52.2922 170.131 52.9739C170.426 53.4608 170.623 53.8503 170.722 54.045V54.2398ZM50.7392 71.0862H46.1131V66.7042H44.6367V77.5132H46.1131V72.4495H50.7392V77.5132H52.2156V66.7042H50.7392V71.0862ZM152.906 77.5132H154.383V66.7042H152.906V77.5132ZM36.9594 77.5132H38.4358V66.7042H36.9594V77.5132ZM30.7585 66.8016L27.412 77.5132H28.6916L29.5774 74.3971L33.2192 74.2997L34.3019 77.5132H35.7783L32.3334 66.8016H30.7585ZM30.0695 73.2286L31.5459 68.5544L33.0224 73.2286H30.0695ZM25.0498 71.7679C26.1325 71.3784 26.6246 70.502 26.6246 69.4308C26.6246 68.7492 26.3293 68.0675 25.8372 67.5806C25.345 67.0937 24.5576 66.8016 23.4749 66.8016H19.341V77.6106H23.4749C24.6561 77.6106 25.5419 77.3185 26.034 76.7342C26.6246 76.1499 26.9199 75.4683 26.9199 74.5919C26.9199 73.9102 26.723 73.4233 26.3293 72.8391C26.1325 72.3522 25.6403 71.9627 25.0498 71.7679ZM20.8174 67.9701H23.2781C23.8686 67.9701 24.3608 68.0675 24.6561 68.3597C24.9513 68.6518 25.1482 69.0413 25.1482 69.4308C25.1482 69.9177 24.9513 70.3072 24.7545 70.5994C24.4592 70.8915 23.8686 71.0862 22.9828 71.0862H20.8174V67.9701ZM24.9513 75.663C24.5576 75.9552 24.0655 76.1499 23.4749 76.1499H20.8174V72.4495H23.2781C23.8686 72.4495 24.2623 72.5469 24.5576 72.7417C24.8529 72.9364 25.0498 73.1312 25.2466 73.4233C25.4435 73.7155 25.4435 74.105 25.4435 74.3971C25.4435 74.9814 25.345 75.3709 24.9513 75.663ZM3.59269 66.7042H0.0493164V77.5132H3.98639C5.26595 77.5132 6.25022 77.0263 7.03763 75.9552C7.92347 74.884 8.31718 73.6181 8.31718 72.06C8.31718 70.5994 7.92347 69.2361 7.03763 68.2623C6.25022 67.2885 5.06909 66.7042 3.59269 66.7042ZM5.95493 75.0788C5.36437 75.8578 4.57696 76.2473 3.49426 76.2473H1.52572V68.0675H3.49426C4.57696 68.0675 5.4628 68.457 5.95493 69.2361C6.44707 70.0151 6.74235 70.9889 6.74235 71.9627C6.84078 73.2286 6.5455 74.2997 5.95493 75.0788ZM155.564 68.0675H158.517V77.5132H159.993V68.0675H162.946V66.7042H155.564V68.0675ZM15.8961 73.7155C15.8961 74.6892 15.6992 75.2735 15.3055 75.7604C14.9118 76.1499 14.3212 76.3447 13.5338 76.3447C13.1401 76.3447 12.7464 76.2473 12.3527 76.1499C11.959 75.9552 11.7621 75.7604 11.5653 75.4683C11.3684 75.1761 11.27 74.5919 11.27 73.8128V66.8016H9.89201V73.8128C9.89201 75.1761 10.1873 76.1499 10.7779 76.8316C11.3684 77.5132 12.2543 77.8054 13.5338 77.8054C14.6165 77.8054 15.5023 77.5132 16.1913 76.8316C16.8803 76.2473 17.1756 75.1761 17.1756 73.8128V66.8016H15.8961V73.7155ZM171.804 66.7042H171.608L170.328 66.8016L167.67 71.4758L164.914 66.7042H163.241L166.785 72.9364V77.5132H168.261V73.0338L171.804 66.7042ZM101.232 66.7042L97.7873 77.5132H99.0668L99.9527 74.3971L103.594 74.2997L104.677 77.5132H106.154L102.709 66.7042H101.232ZM100.445 73.2286L101.921 68.5544L103.398 73.2286H100.445ZM137.355 66.5095C136.075 66.5095 134.993 67.0937 134.205 68.0675C133.418 69.1387 133.024 70.502 133.024 72.06C133.024 73.6181 133.418 74.9814 134.107 76.0525C134.894 77.1237 135.977 77.708 137.257 77.708C138.634 77.708 139.717 77.1237 140.505 75.9552C141.292 74.7866 141.686 73.5207 141.686 71.9627C141.686 70.4046 141.292 69.0413 140.505 67.9701C139.717 66.9964 138.634 66.5095 137.355 66.5095ZM139.422 75.1761C138.93 75.9552 138.241 76.3447 137.355 76.3447C136.469 76.3447 135.879 75.9552 135.386 75.1761C134.894 74.3971 134.599 73.3259 134.599 72.06C134.599 70.7941 134.894 69.7229 135.386 68.8465C135.879 68.0675 136.568 67.678 137.355 67.678C138.142 67.678 138.831 68.0675 139.323 68.7492C139.816 69.5282 140.111 70.502 140.111 71.8653C140.111 73.326 139.914 74.3971 139.422 75.1761ZM112.847 73.7155C112.847 74.6892 112.65 75.2735 112.256 75.7604C111.862 76.1499 111.272 76.3447 110.484 76.3447C110.091 76.3447 109.697 76.2473 109.303 76.1499C108.91 75.9552 108.713 75.7604 108.516 75.4683C108.319 75.1761 108.221 74.5919 108.221 73.8128V66.8016H106.744V73.8128C106.744 75.1761 107.039 76.2473 107.63 76.8316C108.221 77.5132 109.106 77.8054 110.386 77.8054C111.469 77.8054 112.354 77.5132 113.043 76.8316C113.732 76.2473 114.028 75.1761 114.028 73.8128V66.8016H112.748V73.7155H112.847ZM115.209 68.0675H118.162V77.5132H119.638V68.0675H122.591V66.7042H115.209V68.0675ZM129.874 71.0862H125.248V66.7042H123.772V77.5132H125.248V72.4495H129.874V77.5132H131.351V66.7042H129.874V71.0862ZM91.3895 71.0862H86.7635V66.7042H85.2871V77.5132H86.7635V72.4495H91.3895V77.5132H92.8659V66.7042H91.3895V71.0862ZM76.7239 68.0675H79.6767V77.5132H81.1531V68.0675H84.1059V66.7042H76.7239V68.0675ZM65.1095 66.7042L61.6646 77.5132H63.0426L63.9284 74.3971L67.5702 74.2997L68.6529 77.5132H70.1293L66.6844 66.7042H65.1095ZM64.3221 73.2286L65.7985 68.5544L67.2749 73.2286H64.3221ZM56.0543 72.5469H60.1882V71.281H56.0543V68.1649H61.2709V66.8016H54.5779V77.6106H61.4677V76.2473H56.0543V72.5469ZM150.446 71.4758C150.741 70.8915 150.938 70.4046 150.938 69.8203C150.938 69.0413 150.643 68.3597 150.15 67.7754C149.56 67.0937 148.772 66.8016 147.591 66.8016H143.457V77.6106H144.835V73.0338L147.591 72.9364L149.56 77.6106H151.036L148.969 72.6443C149.658 72.3522 150.15 71.9627 150.446 71.4758ZM147.394 71.6705H144.835V68.1649H147.591C148.182 68.1649 148.576 68.3597 148.969 68.6518C149.265 68.9439 149.461 69.3334 149.461 69.9177C149.461 70.4046 149.265 70.8915 148.969 71.281C148.576 71.4758 148.083 71.6705 147.394 71.6705ZM72.7868 66.7042H71.3104V77.5132H77.6098V76.1499H72.8853L72.7868 66.7042Z" fill="black"/>
<path d="M176.824 0C172.296 18.794 157.139 33.5955 137.945 37.588V37.8802H163.143C171.017 37.8802 177.316 31.5506 177.316 23.8577V0H176.824Z" fill="#8DC63F"/>
<path d="M218.951 37.588C199.856 33.4981 184.698 18.794 180.17 0H179.678V23.8577C179.678 31.6479 186.076 37.8802 193.852 37.8802H218.951V37.588Z" fill="#008C99"/>
<path d="M218.951 40.1196H193.852C185.978 40.1196 179.678 46.4492 179.678 54.1421V77.9998H180.17C184.698 59.2058 199.757 44.5017 218.951 40.4118V40.1196Z" fill="#8DC63F"/>
</g>
<defs>
<clipPath id="clip0_10_2021">
<rect width="219" height="78" fill="white"/>
</clipPath>
</defs>
</svg>
