<svg width="20" height="20" viewBox="0 0 20 20" fill="none" xmlns="http://www.w3.org/2000/svg">
<g clip-path="url(#clip0_10_1018)">
<path d="M14.8437 10C14.8444 11.1399 14.4429 12.2434 13.7098 13.1163C12.9767 13.9891 11.9591 14.5753 10.8362 14.7714C9.71335 14.9675 8.55729 14.7611 7.57169 14.1885C6.5861 13.6159 5.8342 12.7138 5.44848 11.6412L2.67798 13.8576C3.53945 15.4952 4.92477 16.7969 6.61275 17.5549C8.30073 18.3129 10.194 18.4835 11.9903 18.0394C13.7866 17.5953 15.3823 16.5621 16.5226 15.1049C17.6629 13.6477 18.282 11.8504 18.2812 10" fill="#00AC47"/>
<path d="M14.8438 10C14.8431 10.7706 14.6584 11.5299 14.3049 12.2147C13.9514 12.8995 13.4394 13.4899 12.8115 13.9367L15.5505 16.1279C16.4094 15.3546 17.0963 14.4096 17.5667 13.3539C18.0371 12.2983 18.2805 11.1557 18.2813 10" fill="#4285F4"/>
<path d="M5.15625 10C5.15745 9.44011 5.25637 8.88472 5.44856 8.35883L2.67806 6.14246C2.04811 7.33069 1.71875 8.65512 1.71875 10C1.71875 11.3449 2.04811 12.6693 2.67806 13.8576L5.44856 11.6412C5.25637 11.1153 5.15745 10.5599 5.15625 10Z" fill="#FFBA00"/>
<path d="M9.99992 5.15626C11.0248 5.15654 12.0229 5.48407 12.8487 6.09113L15.3862 3.72282C14.4442 2.91067 13.331 2.32173 12.1296 1.99996C10.9282 1.67818 9.66969 1.63188 8.4479 1.86451C7.22612 2.09714 6.07265 2.60268 5.07357 3.34342C4.07448 4.08416 3.25558 5.04097 2.67798 6.14244L5.44848 8.35882C5.78636 7.42218 6.40449 6.61231 7.21882 6.03931C8.03316 5.46631 9.00419 5.15799 9.99992 5.15626Z" fill="#EA4435"/>
<path d="M18.2812 9.375V10L16.875 12.1875H10.3125V8.75H17.6562C17.822 8.75 17.981 8.81585 18.0982 8.93306C18.2154 9.05027 18.2812 9.20924 18.2812 9.375Z" fill="#4285F4"/>
</g>
<defs>
<clipPath id="clip0_10_1018">
<rect width="20" height="20" fill="white"/>
</clipPath>
</defs>
</svg>
