<svg width="14" height="13" viewBox="0 0 14 13" fill="none" xmlns="http://www.w3.org/2000/svg">
<path d="M6.08519 0.735396C6.9917 0.23268 8.14484 0.56298 8.65142 1.46139L13.4973 9.87148C13.6039 10.1225 13.6506 10.3266 13.6639 10.5387C13.6906 11.0341 13.5173 11.5157 13.1773 11.8863C12.8374 12.2556 12.3775 12.4736 11.8775 12.5H2.11919C1.91256 12.4874 1.70592 12.4405 1.51262 12.3679C0.54612 11.9781 0.0795316 10.8815 0.472799 9.93093L5.35198 1.45545C5.51861 1.15752 5.7719 0.900546 6.08519 0.735396ZM6.99836 8.68174C6.67842 8.68174 6.4118 8.94598 6.4118 9.26373C6.4118 9.58015 6.67842 9.84505 6.99836 9.84505C7.31831 9.84505 7.57827 9.58015 7.57827 9.25646C7.57827 8.94003 7.31831 8.68174 6.99836 8.68174ZM6.99836 4.56026C6.67842 4.56026 6.4118 4.81724 6.4118 5.13498V7.00382C6.4118 7.32091 6.67842 7.58581 6.99836 7.58581C7.31831 7.58581 7.57827 7.32091 7.57827 7.00382V5.13498C7.57827 4.81724 7.31831 4.56026 6.99836 4.56026Z" fill="#FF0000"/>
</svg>
