<svg width="9" height="6" viewBox="0 0 9 6" fill="none" xmlns="http://www.w3.org/2000/svg">
<path d="M3.24119 5.40763L3.2412 5.40762L7.52337 1.05815C7.64906 0.930331 7.64901 0.72013 7.52343 0.59243C7.40209 0.469199 7.2085 0.46919 7.08719 0.592404L3.37951 4.35858L3.0232 4.72051L2.66689 4.35859L1.03049 2.69639C0.909214 2.5732 0.715723 2.57311 0.59427 2.69645L3.24119 5.40763ZM3.24119 5.40763C3.12006 5.53067 2.92629 5.53092 2.80464 5.40746L0.59426 3.16195L0.594215 3.16191M3.24119 5.40763L0.594215 3.16191M0.594215 3.16191C0.468634 3.03436 0.468547 2.82421 0.594242 2.69648L0.594215 3.16191Z" fill="#29B247" stroke="#29B247"/>
</svg>
