<svg width="325" height="33" viewBox="0 0 325 33" fill="none" xmlns="http://www.w3.org/2000/svg">
<path d="M7.56348 20.2021C8.64746 20.2314 9.59961 20.1045 10.4199 19.8213C11.2402 19.5283 11.9238 19.1133 12.4707 18.5762C13.0273 18.0391 13.4473 17.3994 13.7305 16.6572C14.0234 15.9053 14.1748 15.0801 14.1846 14.1816C14.2041 13.3809 14.1016 12.5557 13.877 11.7061C13.6621 10.8467 13.2764 10.0068 12.7197 9.18652C12.3877 8.69824 11.9873 8.26367 11.5186 7.88281C11.0498 7.50195 10.5469 7.18457 10.0098 6.93066C9.48242 6.66699 8.93555 6.4668 8.36914 6.33008C7.8125 6.19336 7.28027 6.125 6.77246 6.125C6.40137 6.125 6.01562 6.17383 5.61523 6.27148C5.22461 6.36914 4.90234 6.52539 4.64844 6.74023C4.51172 6.84766 4.42383 6.9502 4.38477 7.04785C4.35547 7.14551 4.375 7.27246 4.44336 7.42871C4.57031 7.72168 4.76074 8.04395 5.01465 8.39551C5.27832 8.7373 5.53711 9.03516 5.79102 9.28906C5.88867 9.38672 5.87402 9.48926 5.74707 9.59668L3.72559 11.2959C3.64746 11.3545 3.58887 11.374 3.5498 11.3545C3.52051 11.335 3.47656 11.291 3.41797 11.2227C3.17383 10.9492 2.93945 10.6465 2.71484 10.3145C2.5 9.98242 2.30957 9.64062 2.14355 9.28906C1.9873 8.9375 1.86035 8.59082 1.7627 8.24902C1.6748 7.90723 1.63574 7.58008 1.64551 7.26758C1.6748 6.56445 1.84082 5.99805 2.14355 5.56836C2.44629 5.13867 2.83691 4.80664 3.31543 4.57227C3.79395 4.33789 4.32617 4.18164 4.91211 4.10352C5.49805 4.02539 6.08887 3.98633 6.68457 3.98633C8.12988 3.97656 9.42871 4.15723 10.5811 4.52832C11.7334 4.88965 12.7881 5.48047 13.7451 6.30078C14.3994 6.85742 14.9609 7.47754 15.4297 8.16113C15.8984 8.83496 16.2842 9.54297 16.5869 10.2852C16.8896 11.0273 17.1143 11.7939 17.2607 12.585C17.4072 13.376 17.4805 14.167 17.4805 14.958C17.4805 16.0615 17.3096 17.1211 16.9678 18.1367C16.626 19.1523 16.1035 20.0508 15.4004 20.832C14.707 21.6133 13.833 22.2432 12.7783 22.7217C11.7236 23.2002 10.4883 23.4541 9.07227 23.4834C8.01758 23.5127 7.02637 23.4199 6.09863 23.2051C5.18066 23 4.36035 22.6582 3.6377 22.1797C2.91504 21.6914 2.30469 21.0566 1.80664 20.2754C1.31836 19.4941 0.976562 18.5469 0.78125 17.4336C0.742188 17.1992 0.717773 16.9795 0.708008 16.7744C0.708008 16.5596 0.712891 16.374 0.722656 16.2178C0.732422 15.9053 0.771484 15.7637 0.839844 15.793C0.917969 15.8223 1.01074 15.9395 1.11816 16.1445C1.44043 16.7793 1.83594 17.3457 2.30469 17.8438C2.77344 18.3418 3.28613 18.7666 3.84277 19.1182C4.40918 19.46 5.00977 19.7236 5.64453 19.9092C6.2793 20.0947 6.91895 20.1924 7.56348 20.2021ZM14.4922 15.4707C14.3262 15.5977 14.1797 15.7002 14.0527 15.7783C13.9258 15.8467 13.7793 15.8809 13.6133 15.8809C13.5254 15.8809 13.418 15.8711 13.291 15.8516C13.1738 15.8223 13.0371 15.7783 12.8809 15.7197C12.2168 15.4756 11.5918 15.2607 11.0059 15.0752C10.4199 14.8799 9.86328 14.7822 9.33594 14.7822C8.99414 14.7822 8.67676 14.8262 8.38379 14.9141C8.10059 15.002 7.83691 15.1582 7.59277 15.3828C7.30957 15.6367 7.10938 15.7588 6.99219 15.749C6.875 15.7295 6.87012 15.5781 6.97754 15.2949C7.13379 14.8555 7.3291 14.4404 7.56348 14.0498C7.79785 13.6494 8.07129 13.2979 8.38379 12.9951C8.70605 12.6924 9.07227 12.4531 9.48242 12.2773C9.89258 12.1016 10.3564 12.0137 10.874 12.0137C11.4014 12.0137 11.9287 12.1016 12.4561 12.2773C12.9834 12.4531 13.4814 12.6436 13.9502 12.8486C14.1162 12.9268 14.3115 13.0244 14.5361 13.1416C14.7705 13.249 14.9707 13.3369 15.1367 13.4053C15.1562 13.415 15.2051 13.4443 15.2832 13.4932C15.3613 13.542 15.4492 13.5957 15.5469 13.6543C15.6543 13.7227 15.7764 13.8008 15.9131 13.8887C15.6396 14.1816 15.4004 14.4453 15.1953 14.6797C15.0195 14.875 14.8584 15.0605 14.7119 15.2363C14.5654 15.4023 14.4922 15.4805 14.4922 15.4707ZM33.0078 14.0498C33.1543 14.0205 33.3301 14.0205 33.5352 14.0498C33.75 14.0693 33.9697 14.1768 34.1943 14.3721C34.3506 14.5088 34.4482 14.6895 34.4873 14.9141C34.5361 15.1289 34.5508 15.3975 34.5312 15.7197C34.5215 15.9443 34.5117 16.1641 34.502 16.3789C34.4922 16.584 34.4824 16.7988 34.4727 17.0234C34.4629 17.2383 34.4482 17.4678 34.4287 17.7119C34.4189 17.9463 34.4043 18.21 34.3848 18.5029C34.3652 18.8252 34.3799 19.1035 34.4287 19.3379C34.4873 19.5625 34.6143 19.7383 34.8096 19.8652C35.0244 19.9922 35.3174 20.0947 35.6885 20.1729C36.0596 20.2412 36.4453 20.2949 36.8457 20.334C37.2559 20.373 37.6514 20.3975 38.0322 20.4072C38.4131 20.417 38.7256 20.4219 38.9697 20.4219C39.8291 20.4219 40.5762 20.4121 41.2109 20.3926C41.8457 20.373 42.3877 20.3389 42.8369 20.29C43.2861 20.2412 43.6475 20.1826 43.9209 20.1143C44.1943 20.0361 44.4043 19.9385 44.5508 19.8213C44.7168 19.6943 44.8438 19.5283 44.9316 19.3232C45.0293 19.1084 45.1074 18.8594 45.166 18.5762C45.2148 18.4004 45.2588 18.3027 45.2979 18.2832C45.3467 18.2637 45.3955 18.3662 45.4443 18.5908C45.5127 18.8936 45.5762 19.2305 45.6348 19.6016C45.6934 19.9629 45.7227 20.3145 45.7227 20.6562C45.7227 21.0273 45.6787 21.3447 45.5908 21.6084C45.5225 21.8037 45.4346 21.999 45.3271 22.1943C45.2197 22.3896 45.0635 22.5654 44.8584 22.7217C44.6631 22.8682 44.3994 22.9854 44.0674 23.0732C43.7451 23.1709 43.335 23.2197 42.8369 23.2197L38.6914 23.1758C38.4082 23.1758 38.0273 23.1758 37.5488 23.1758C37.0703 23.1758 36.5723 23.1611 36.0547 23.1318C35.5469 23.1025 35.0537 23.0537 34.5752 22.9854C34.1064 22.9072 33.7354 22.7852 33.4619 22.6191C33.1885 22.4629 32.9688 22.2627 32.8027 22.0186C32.6367 21.7744 32.5049 21.5107 32.4072 21.2275C32.3193 20.9346 32.2607 20.6367 32.2314 20.334C32.2021 20.0215 32.1924 19.7188 32.2021 19.4258C32.2119 19.1719 32.2266 18.8545 32.2461 18.4736C32.2656 18.083 32.3096 17.5801 32.3779 16.9648C32.3877 16.877 32.373 16.7939 32.334 16.7158C32.3047 16.6377 32.2266 16.5986 32.0996 16.5986C32.002 16.5986 31.8945 16.6426 31.7773 16.7305C31.6602 16.8184 31.5771 16.8916 31.5283 16.9502C31.2158 17.2627 30.9424 17.6191 30.708 18.0195C30.4834 18.4199 30.2881 18.8496 30.1221 19.3086C29.9561 19.7578 29.8145 20.2266 29.6973 20.7148C29.5898 21.2031 29.4922 21.6865 29.4043 22.165C29.3555 22.458 29.2627 22.7119 29.126 22.9268C28.999 23.1416 28.7891 23.249 28.4961 23.249C28.2129 23.249 27.9932 23.1758 27.8369 23.0293C27.6807 22.8828 27.5977 22.6729 27.5879 22.3994C27.5781 21.999 27.583 21.5889 27.6025 21.1689C27.6221 20.7393 27.6514 20.29 27.6904 19.8213C27.7393 19.3428 27.7979 18.835 27.8662 18.2979C27.9443 17.7607 28.042 17.1748 28.1592 16.54C28.1689 16.501 28.1738 16.4521 28.1738 16.3936C28.1836 16.3252 28.1787 16.2617 28.1592 16.2031C28.1494 16.1445 28.1152 16.0957 28.0566 16.0566C28.0078 16.0176 27.9297 15.998 27.8223 15.998C27.7246 15.998 27.627 16.0518 27.5293 16.1592C27.4316 16.2568 27.3584 16.3984 27.3096 16.584C27.2021 16.9746 27.0752 17.4141 26.9287 17.9023C26.7822 18.3809 26.6064 18.8691 26.4014 19.3672C26.2061 19.8555 25.9766 20.334 25.7129 20.8027C25.4492 21.2715 25.1465 21.6865 24.8047 22.0479C24.4727 22.4092 24.0967 22.7021 23.6768 22.9268C23.2568 23.1416 22.7881 23.2441 22.2705 23.2344H21.8604C21.3428 23.2344 20.8887 23.1807 20.498 23.0732C20.1074 22.9756 19.7754 22.8486 19.502 22.6924C19.2285 22.5264 19.0039 22.3457 18.8281 22.1504C18.6621 21.9551 18.54 21.7646 18.4619 21.5791C18.3838 21.3838 18.3301 21.1592 18.3008 20.9053C18.2715 20.6416 18.2568 20.3779 18.2568 20.1143C18.2568 19.8604 18.2666 19.6064 18.2861 19.3525C18.3154 19.0889 18.3496 18.8447 18.3887 18.6201C18.4277 18.4346 18.4668 18.3467 18.5059 18.3564C18.5449 18.3662 18.584 18.4541 18.623 18.6201C18.6719 18.8838 18.7402 19.1279 18.8281 19.3525C18.916 19.5771 19.0576 19.7676 19.2529 19.9238C19.4385 20.0703 19.7363 20.2168 20.1465 20.3633C20.5566 20.5 21.1279 20.5781 21.8604 20.5977C22.5146 20.5977 23.0518 20.4658 23.4717 20.2021C23.9014 19.9385 24.2529 19.6162 24.5264 19.2354C24.7998 18.8545 25.0146 18.4492 25.1709 18.0195C25.3271 17.5801 25.459 17.1846 25.5664 16.833C25.7422 16.2764 25.9082 15.832 26.0645 15.5C26.2305 15.1582 26.46 14.8604 26.7529 14.6064C26.8604 14.5088 26.9873 14.4258 27.1338 14.3574C27.2803 14.2793 27.4316 14.2158 27.5879 14.167C27.7539 14.1084 27.9199 14.0693 28.0859 14.0498C28.252 14.0205 28.4131 14.0107 28.5693 14.0205C28.7158 14.0303 28.8525 14.0693 28.9795 14.1377C29.1064 14.2061 29.2334 14.2939 29.3604 14.4014C29.6338 14.6553 29.7461 15.0996 29.6973 15.7344L29.624 16.7598C29.624 16.8086 29.624 16.8525 29.624 16.8916C29.6338 16.9307 29.6533 16.9502 29.6826 16.9502C29.7217 16.9502 29.7461 16.9404 29.7559 16.9209C29.7754 16.9014 29.7998 16.8672 29.8291 16.8184C29.8975 16.7109 29.9951 16.5791 30.1221 16.4229C30.249 16.2666 30.3857 16.1055 30.5322 15.9395C30.6787 15.7637 30.8301 15.5928 30.9863 15.4268C31.1523 15.2607 31.3086 15.1094 31.4551 14.9727C31.6699 14.7773 31.9043 14.5918 32.1582 14.416C32.4121 14.2402 32.6953 14.1182 33.0078 14.0498ZM40.9766 15.8369C41.0254 15.8857 41.0498 15.9248 41.0498 15.9541C41.0596 15.9834 41.04 16.0225 40.9912 16.0713L39.7021 17.3604C39.6533 17.4092 39.6143 17.4336 39.585 17.4336C39.5557 17.4238 39.5166 17.3945 39.4678 17.3457L38.1934 16.0713C38.1445 16.0225 38.1152 15.9834 38.1055 15.9541C38.1055 15.9248 38.1299 15.8857 38.1787 15.8369L39.4678 14.5479C39.5166 14.499 39.5557 14.4795 39.585 14.4893C39.6143 14.4893 39.6533 14.5137 39.7021 14.5625L40.9766 15.8369ZM51.6113 19.9092C51.6113 19.5967 51.6162 19.2598 51.626 18.8984C51.6455 18.5371 51.665 18.1758 51.6846 17.8145C51.7139 17.4531 51.7383 17.1016 51.7578 16.7598C51.7871 16.4082 51.8115 16.0859 51.8311 15.793C51.8408 15.7051 51.8506 15.6367 51.8604 15.5879C51.8799 15.5391 51.9287 15.4805 52.0068 15.4121L53.8379 13.874C53.9844 13.7471 54.0576 13.7812 54.0576 13.9766C54.0381 14.3672 54.0088 14.8164 53.9697 15.3242C53.9404 15.8223 53.9111 16.3105 53.8818 16.7891C53.8525 17.2676 53.8281 17.6973 53.8086 18.0781C53.7891 18.4492 53.7793 18.6982 53.7793 18.8252C53.7793 18.9912 53.8037 19.1816 53.8525 19.3965C53.9111 19.6016 54.0283 19.7578 54.2041 19.8652C54.4092 19.9922 54.668 20.0947 54.9805 20.1729C55.3027 20.2412 55.6348 20.2949 55.9766 20.334C56.3281 20.373 56.6699 20.3975 57.002 20.4072C57.3438 20.417 57.6416 20.4219 57.8955 20.4219C58.0225 20.4219 58.2178 20.4219 58.4814 20.4219C58.7451 20.4219 59.0332 20.4072 59.3457 20.3779C59.6582 20.3389 59.9658 20.2803 60.2686 20.2021C60.5811 20.1143 60.8398 19.9873 61.0449 19.8213C61.2305 19.6748 61.377 19.4648 61.4844 19.1914C61.5918 18.918 61.6699 18.6396 61.7188 18.3564C61.7676 18.1025 61.8262 18.1025 61.8945 18.3564C61.9727 18.6689 62.0459 19.0352 62.1143 19.4551C62.1826 19.8652 62.2168 20.2656 62.2168 20.6562C62.2168 21.0762 62.1631 21.4424 62.0557 21.7549C61.958 22.0576 61.8262 22.3066 61.6602 22.502C61.4355 22.7754 61.1377 22.9609 60.7666 23.0586C60.4053 23.1562 59.9707 23.21 59.4629 23.2197C58.9746 23.2295 58.4521 23.2295 57.8955 23.2197C57.3486 23.21 56.8262 23.2002 56.3281 23.1904C56.0938 23.1904 55.7812 23.1758 55.3906 23.1465C55 23.127 54.6045 23.083 54.2041 23.0146C53.8037 22.9463 53.4326 22.8486 53.0908 22.7217C52.749 22.585 52.5 22.4092 52.3438 22.1943C52.3047 22.1455 52.2607 22.1455 52.2119 22.1943C51.8701 22.5068 51.499 22.7461 51.0986 22.9121C50.708 23.0684 50.2832 23.1562 49.8242 23.1758C49.3652 23.1953 48.96 23.1807 48.6084 23.1318C48.2568 23.0928 47.9395 23.0244 47.6562 22.9268C47.373 22.8193 47.1143 22.6924 46.8799 22.5459C46.6455 22.3896 46.416 22.209 46.1914 22.0039C45.8789 21.7109 45.6299 21.3203 45.4443 20.832C45.2686 20.334 45.1709 19.7383 45.1514 19.0449C45.1416 18.8594 45.1416 18.6543 45.1514 18.4297C45.1709 18.2051 45.1953 17.9805 45.2246 17.7559C45.2539 17.5312 45.2881 17.3115 45.3271 17.0967C45.376 16.8818 45.4248 16.6963 45.4736 16.54C45.5225 16.374 45.5908 16.1738 45.6787 15.9395C45.7764 15.7051 45.8789 15.4707 45.9863 15.2363C46.0938 14.9922 46.2061 14.7725 46.3232 14.5771C46.4404 14.3721 46.5527 14.2207 46.6602 14.123C46.709 14.0742 46.7529 14.04 46.792 14.0205C46.8408 13.9912 46.8896 13.9961 46.9385 14.0352L48.3301 15.002C48.4375 15.0801 48.4912 15.1533 48.4912 15.2217C48.4912 15.2803 48.4521 15.3633 48.374 15.4707C48.3057 15.5586 48.1885 15.7197 48.0225 15.9541C47.8662 16.1885 47.6953 16.4424 47.5098 16.7158C47.334 16.9795 47.1631 17.2334 46.9971 17.4775C46.8311 17.7217 46.7139 17.8975 46.6455 18.0049C46.5674 18.1123 46.5039 18.2295 46.4551 18.3564C46.416 18.4736 46.3965 18.6006 46.3965 18.7373C46.3965 19.2354 46.6016 19.626 47.0117 19.9092C47.3145 20.1045 47.6904 20.251 48.1396 20.3486C48.5986 20.4365 49.0674 20.4805 49.5459 20.4805C49.917 20.4805 50.2637 20.4561 50.5859 20.4072C50.918 20.3486 51.2158 20.2607 51.4795 20.1436C51.5381 20.124 51.5723 20.0996 51.582 20.0703C51.6016 20.0312 51.6113 19.9775 51.6113 19.9092ZM65.6445 17.9902C65.7715 17.9121 65.835 17.9365 65.835 18.0635C65.835 18.3955 65.8838 18.7275 65.9814 19.0596C66.0791 19.3818 66.2305 19.6748 66.4355 19.9385C66.6504 20.2021 66.9189 20.417 67.2412 20.583C67.5635 20.749 67.9492 20.832 68.3984 20.832C68.7109 20.832 69.0039 20.793 69.2773 20.7148C69.5508 20.627 69.79 20.5 69.9951 20.334C70.2002 20.1582 70.3613 19.9482 70.4785 19.7041C70.5957 19.46 70.6543 19.1816 70.6543 18.8691C70.6543 18.4004 70.5615 17.9902 70.376 17.6387C70.2002 17.2871 69.9512 16.9941 69.6289 16.7598C69.3164 16.5156 68.9453 16.3398 68.5156 16.2324C68.0859 16.1152 67.6221 16.0615 67.124 16.0713C66.8408 16.0811 66.5381 16.1201 66.2158 16.1885C65.8936 16.2471 65.5615 16.3447 65.2197 16.4814C64.8877 16.6182 64.5508 16.8037 64.209 17.0381C63.8672 17.2725 63.5352 17.5605 63.2129 17.9023C63.1055 18.0098 63.0322 18.0586 62.9932 18.0488C62.9639 18.0391 62.9541 17.9756 62.9639 17.8584C62.9639 17.7705 62.9736 17.6729 62.9932 17.5654C63.0225 17.4482 63.0518 17.3311 63.0811 17.2139C63.1104 17.0869 63.1445 16.9648 63.1836 16.8477C63.2227 16.7207 63.2666 16.6133 63.3154 16.5254C63.5303 16.0762 63.7891 15.6904 64.0918 15.3682C64.3945 15.0459 64.7363 14.7871 65.1172 14.5918C65.498 14.3965 65.9033 14.2549 66.333 14.167C66.7725 14.0693 67.2314 14.0205 67.71 14.0205C68.4131 14.0205 69.0576 14.1084 69.6436 14.2842C70.2295 14.46 70.7666 14.7529 71.2549 15.1631C71.792 15.6025 72.2266 16.1689 72.5586 16.8623C72.9004 17.5557 73.0713 18.332 73.0713 19.1914C73.0713 19.8262 72.959 20.3975 72.7344 20.9053C72.5098 21.4131 72.207 21.8477 71.8262 22.209C71.4453 22.5605 71.0059 22.8291 70.5078 23.0146C70.0098 23.21 69.4922 23.3076 68.9551 23.3076C68.6719 23.3076 68.3838 23.2832 68.0908 23.2344C67.8076 23.1855 67.5342 23.1074 67.2705 23C67.0068 22.9023 66.7578 22.7852 66.5234 22.6484C66.2988 22.502 66.1084 22.3311 65.9521 22.1357C65.9229 22.0967 65.8887 22.0625 65.8496 22.0332C65.8203 22.0039 65.8008 22.0576 65.791 22.1943C65.7812 22.5166 65.7666 22.8975 65.7471 23.3369C65.7373 23.7764 65.7275 24.2354 65.7178 24.7139C65.708 25.2021 65.6982 25.6953 65.6885 26.1934C65.6787 26.6914 65.6738 27.1602 65.6738 27.5996C65.6738 28.0488 65.6738 28.4492 65.6738 28.8008C65.6738 29.1621 65.6787 29.4453 65.6885 29.6504C65.6982 29.8359 65.708 30.0166 65.7178 30.1924C65.7373 30.3682 65.7764 30.5293 65.835 30.6758C65.8936 30.832 65.9814 30.9688 66.0986 31.0859C66.2256 31.2031 66.4014 31.291 66.626 31.3496C66.7725 31.3887 66.9434 31.4131 67.1387 31.4229C67.3438 31.4424 67.583 31.4326 67.8564 31.3936C67.9541 31.374 68.0078 31.3887 68.0176 31.4375C68.0273 31.4863 67.9883 31.5352 67.9004 31.584C67.6172 31.75 67.2754 31.8916 66.875 32.0088C66.4746 32.126 66.0254 32.1846 65.5273 32.1846C65.1855 32.1846 64.8486 32.0967 64.5166 31.9209C64.1943 31.7549 63.9062 31.5156 63.6523 31.2031C63.4863 30.998 63.3643 30.7686 63.2861 30.5146C63.2178 30.2607 63.1787 30.0068 63.1689 29.7529C63.1592 29.4893 63.1494 29.1475 63.1396 28.7275C63.1396 28.3076 63.1396 27.7803 63.1396 27.1455C63.1494 26.5205 63.1641 25.7783 63.1836 24.9189C63.2129 24.0693 63.252 23.0781 63.3008 21.9453C63.3203 21.5645 63.335 21.1836 63.3447 20.8027C63.3643 20.4219 63.374 20.0459 63.374 19.6748C63.374 19.5674 63.3838 19.4795 63.4033 19.4111C63.4326 19.3428 63.501 19.2744 63.6084 19.2061L65.6445 17.9902ZM85.8447 18.708C85.8643 18.6201 85.8936 18.5811 85.9326 18.5908C85.9717 18.5908 86.001 18.6348 86.0205 18.7227C86.0986 19.0059 86.1572 19.333 86.1963 19.7041C86.2354 20.0654 86.2549 20.4316 86.2549 20.8027C86.2549 20.998 86.2451 21.1787 86.2256 21.3447C86.2061 21.501 86.167 21.667 86.1084 21.8428C86.0107 22.1553 85.8545 22.4043 85.6396 22.5898C85.4346 22.7656 85.1953 22.9023 84.9219 23C84.6582 23.0879 84.375 23.1465 84.0723 23.1758C83.7695 23.2051 83.4766 23.2197 83.1934 23.2197C82.5977 23.2197 82.0361 23.1318 81.5088 22.9561C80.9814 22.7705 80.4834 22.4873 80.0146 22.1064C79.9756 22.0674 79.9365 22.0674 79.8975 22.1064C79.5264 22.4482 79.0918 22.7266 78.5938 22.9414C78.1055 23.1562 77.5537 23.2637 76.9385 23.2637C76.5674 23.2637 76.1719 23.21 75.752 23.1025C75.332 23.0049 74.9463 22.7852 74.5947 22.4434C74.3701 22.2188 74.1846 21.9648 74.0381 21.6816C73.8916 21.3887 73.8184 21.0518 73.8184 20.6709C73.8184 20.251 73.8818 19.8457 74.0088 19.4551C74.1455 19.0547 74.3408 18.7031 74.5947 18.4004C74.8486 18.0879 75.1611 17.8389 75.5322 17.6533C75.9033 17.4678 76.333 17.375 76.8213 17.375C77.2607 17.375 77.6953 17.4824 78.125 17.6973C78.5547 17.9023 79.0234 18.2588 79.5312 18.7666C79.5996 18.835 79.6484 18.8105 79.6777 18.6934C79.707 18.5273 79.7217 18.3809 79.7217 18.2539C79.7314 18.1172 79.7266 17.9756 79.707 17.8291C79.6973 17.7607 79.6777 17.6582 79.6484 17.5215C79.6191 17.375 79.5605 17.2188 79.4727 17.0527C79.3848 16.877 79.2627 16.7012 79.1064 16.5254C78.9502 16.3496 78.75 16.1934 78.5059 16.0566C78.3691 15.9785 78.1836 15.9102 77.9492 15.8516C77.7148 15.793 77.4561 15.7637 77.1729 15.7637C76.5967 15.7637 76.1035 15.8711 75.6934 16.0859C75.2832 16.291 74.873 16.5742 74.4629 16.9355C74.3945 17.0039 74.3604 16.9844 74.3604 16.877C74.3701 16.7305 74.3799 16.5645 74.3896 16.3789C74.4092 16.1836 74.4434 15.9932 74.4922 15.8076C74.541 15.6123 74.6094 15.4268 74.6973 15.251C74.7852 15.0752 74.9023 14.9287 75.0488 14.8115C75.459 14.499 75.9277 14.2891 76.4551 14.1816C76.9922 14.0742 77.5146 14.0205 78.0225 14.0205C78.7061 14.0205 79.3506 14.1621 79.9561 14.4453C80.5615 14.7188 81.0547 15.1631 81.4355 15.7783C81.5723 16.0029 81.6846 16.2715 81.7725 16.584C81.8604 16.8965 81.9043 17.2334 81.9043 17.5947C81.9043 17.9951 81.8652 18.3955 81.7871 18.7959C81.709 19.1865 81.5869 19.5869 81.4209 19.9971C81.3916 20.0654 81.4062 20.1094 81.4648 20.1289C81.7773 20.2852 82.124 20.4121 82.5049 20.5098C82.8955 20.5977 83.252 20.6416 83.5742 20.6416C83.7305 20.6416 83.8965 20.6367 84.0723 20.627C84.248 20.6074 84.4141 20.5732 84.5703 20.5244C84.7363 20.4756 84.8877 20.4072 85.0244 20.3193C85.1611 20.2217 85.2783 20.0996 85.376 19.9531C85.4932 19.7773 85.5859 19.5771 85.6543 19.3525C85.7324 19.1182 85.7959 18.9033 85.8447 18.708ZM78.5645 20.8027C78.6035 20.7637 78.6035 20.7197 78.5645 20.6709C78.1445 20.251 77.7588 19.9385 77.4072 19.7334C77.0557 19.5186 76.7334 19.4014 76.4404 19.3818C76.2842 19.3721 76.1279 19.3818 75.9717 19.4111C75.8154 19.4404 75.6738 19.4941 75.5469 19.5723C75.4297 19.6406 75.332 19.7383 75.2539 19.8652C75.1758 19.9824 75.1367 20.1289 75.1367 20.3047C75.1367 20.5 75.2002 20.666 75.3271 20.8027C75.4541 20.9395 75.6104 21.0469 75.7959 21.125C75.9814 21.2031 76.1719 21.2617 76.3672 21.3008C76.5723 21.3301 76.748 21.3447 76.8945 21.3447C77.1973 21.3447 77.4854 21.3057 77.7588 21.2275C78.042 21.1396 78.3105 20.998 78.5645 20.8027ZM94.8975 19.8799C95.1025 20.0068 95.3467 20.1094 95.6299 20.1875C95.9131 20.2559 96.2109 20.3096 96.5234 20.3486C96.8359 20.3877 97.1436 20.4121 97.4463 20.4219C97.7588 20.4316 98.042 20.4365 98.2959 20.4365C98.4229 20.4365 98.6035 20.4365 98.8379 20.4365C99.0723 20.4365 99.3262 20.4219 99.5996 20.3926C99.873 20.3535 100.146 20.2949 100.42 20.2168C100.703 20.1289 100.947 20.002 101.152 19.8359C101.338 19.6895 101.484 19.4795 101.592 19.2061C101.699 18.9326 101.777 18.6543 101.826 18.3711C101.875 18.1172 101.934 18.1172 102.002 18.3711C102.08 18.6836 102.153 19.0498 102.222 19.4697C102.29 19.8799 102.324 20.2803 102.324 20.6709C102.324 21.0908 102.271 21.457 102.163 21.7695C102.065 22.0723 101.934 22.3213 101.768 22.5166C101.543 22.79 101.245 22.9756 100.874 23.0732C100.513 23.1709 100.078 23.2246 99.5703 23.2344C99.082 23.2441 98.6084 23.2441 98.1494 23.2344C97.7002 23.2246 97.2266 23.2148 96.7285 23.2051C96.4941 23.2051 96.1963 23.1904 95.835 23.1611C95.4834 23.1416 95.1221 23.0928 94.751 23.0146C94.3896 22.9463 94.0527 22.8486 93.7402 22.7217C93.4277 22.5947 93.1934 22.4189 93.0371 22.1943C92.998 22.1455 92.9541 22.1455 92.9053 22.1943C92.5635 22.5068 92.1924 22.7461 91.792 22.9121C91.4014 23.0684 90.9766 23.1562 90.5176 23.1758C90.0586 23.1953 89.6533 23.1807 89.3018 23.1318C88.9502 23.0928 88.6328 23.0244 88.3496 22.9268C88.0664 22.8193 87.8076 22.6924 87.5732 22.5459C87.3389 22.3896 87.1094 22.209 86.8848 22.0039C86.5723 21.7109 86.3232 21.3203 86.1377 20.832C85.9619 20.334 85.8643 19.7383 85.8447 19.0449C85.835 18.8594 85.835 18.6543 85.8447 18.4297C85.8643 18.2051 85.8887 17.9805 85.918 17.7559C85.9473 17.5312 85.9814 17.3115 86.0205 17.0967C86.0693 16.8818 86.1182 16.6963 86.167 16.54C86.2158 16.374 86.2842 16.1738 86.3721 15.9395C86.4697 15.7051 86.5723 15.4707 86.6797 15.2363C86.7871 14.9922 86.8994 14.7725 87.0166 14.5771C87.1338 14.3721 87.2461 14.2207 87.3535 14.123C87.4023 14.0742 87.4463 14.04 87.4854 14.0205C87.5342 13.9912 87.583 13.9961 87.6318 14.0352L89.0234 15.002C89.1309 15.0801 89.1846 15.1533 89.1846 15.2217C89.1846 15.2803 89.1455 15.3633 89.0674 15.4707C88.999 15.5586 88.8818 15.7197 88.7158 15.9541C88.5596 16.1885 88.3887 16.4424 88.2031 16.7158C88.0273 16.9795 87.8564 17.2334 87.6904 17.4775C87.5244 17.7217 87.4072 17.8975 87.3389 18.0049C87.2607 18.1123 87.1973 18.2295 87.1484 18.3564C87.1094 18.4736 87.0898 18.6006 87.0898 18.7373C87.0898 19.2354 87.2949 19.626 87.7051 19.9092C88.0078 20.1045 88.3838 20.251 88.833 20.3486C89.292 20.4365 89.7607 20.4805 90.2393 20.4805C90.6104 20.4805 90.957 20.4561 91.2793 20.4072C91.6113 20.3486 91.9092 20.2607 92.1729 20.1436C92.2314 20.124 92.2656 20.0996 92.2754 20.0703C92.2949 20.0312 92.3047 19.9775 92.3047 19.9092C92.3047 19.5967 92.3096 19.2598 92.3193 18.8984C92.3389 18.5371 92.3584 18.1758 92.3779 17.8145C92.4072 17.4531 92.4316 17.1016 92.4512 16.7598C92.4805 16.4082 92.5049 16.0859 92.5244 15.793C92.5342 15.7051 92.5439 15.6367 92.5537 15.5879C92.5732 15.5391 92.6221 15.4805 92.7002 15.4121L94.5312 13.874C94.6777 13.7471 94.751 13.7812 94.751 13.9766C94.7314 14.3672 94.7021 14.8164 94.6631 15.3242C94.6338 15.8223 94.6045 16.3105 94.5752 16.7891C94.5459 17.2676 94.5215 17.6973 94.502 18.0781C94.4824 18.4492 94.4727 18.6982 94.4727 18.8252C94.4727 18.9912 94.4971 19.1816 94.5459 19.3965C94.6045 19.6016 94.7217 19.7578 94.8975 19.8652V19.8799ZM94.9414 27.9951C94.8633 27.8779 94.8633 27.7852 94.9414 27.7168C95.0293 27.6484 95.1221 27.6533 95.2197 27.7314C95.6299 28.0439 96.0156 28.2051 96.377 28.2148C96.7383 28.2344 97.1338 28.1514 97.5635 27.9658C97.9932 27.79 98.3496 27.541 98.6328 27.2188C98.916 26.9062 99.1064 26.6182 99.2041 26.3545C99.3115 26.0713 99.3213 25.8174 99.2334 25.5928C99.1553 25.3779 98.999 25.2266 98.7646 25.1387C98.6279 25.0996 98.4766 25.1045 98.3105 25.1533C98.1445 25.2119 97.9785 25.29 97.8125 25.3877C97.6465 25.4951 97.4854 25.6172 97.3291 25.7539C97.1826 25.8906 97.0605 26.0225 96.9629 26.1494C96.9043 26.2471 96.8311 26.252 96.7432 26.1641C96.3818 25.7637 96.1572 25.3975 96.0693 25.0654C95.9814 24.7432 95.9766 24.4893 96.0547 24.3037C96.0938 24.2061 96.1719 24.1133 96.2891 24.0254C96.4062 23.9375 96.5479 23.8643 96.7139 23.8057C96.8896 23.7568 97.085 23.7324 97.2998 23.7324C97.5244 23.7324 97.7539 23.7666 97.9883 23.835C98.1836 23.8838 98.3887 23.9521 98.6035 24.04C98.8281 24.1377 99.0479 24.2549 99.2627 24.3916C99.4775 24.5381 99.6777 24.6992 99.8633 24.875C100.059 25.0605 100.229 25.2656 100.376 25.4902C100.659 25.959 100.84 26.4082 100.918 26.8379C101.006 27.2676 100.977 27.6924 100.83 28.1123C100.684 28.5127 100.454 28.8545 100.142 29.1377C99.8291 29.4307 99.4824 29.6553 99.1016 29.8115C98.7207 29.9678 98.3252 30.0508 97.915 30.0605C97.5146 30.0801 97.1484 30.0068 96.8164 29.8408C96.7188 29.8018 96.6113 29.7432 96.4941 29.665C96.377 29.5967 96.2402 29.4941 96.084 29.3574C95.9375 29.2207 95.7666 29.0449 95.5713 28.8301C95.3857 28.6152 95.1758 28.3369 94.9414 27.9951ZM121.06 16.5986C121.206 16.2568 121.226 15.9639 121.118 15.7197C121.011 15.4756 120.854 15.2852 120.649 15.1484C120.308 14.9238 119.985 14.7969 119.683 14.7676C119.38 14.7285 119.111 14.8506 118.877 15.1338C118.652 15.417 118.535 15.7197 118.525 16.042C118.525 16.3643 118.652 16.6572 118.906 16.9209C119.092 17.0674 119.292 17.1699 119.507 17.2285C119.722 17.2871 119.927 17.3018 120.122 17.2725C120.327 17.2432 120.513 17.1748 120.679 17.0674C120.845 16.9502 120.972 16.7939 121.06 16.5986ZM116.431 23.1904C116.187 23.1904 115.996 23.1904 115.859 23.1904C115.732 23.2002 115.615 23.2051 115.508 23.2051C115.4 23.2051 115.278 23.2002 115.142 23.1904C115.005 23.1904 114.814 23.1904 114.57 23.1904C114.336 23.1904 114.023 23.1758 113.633 23.1465C113.242 23.127 112.847 23.083 112.446 23.0146C112.046 22.9463 111.675 22.8486 111.333 22.7217C110.991 22.585 110.742 22.4092 110.586 22.1943C110.547 22.1455 110.503 22.1455 110.454 22.1943C110.112 22.5068 109.741 22.7461 109.341 22.9121C108.95 23.0684 108.525 23.1562 108.066 23.1758C107.607 23.1953 107.202 23.1807 106.851 23.1318C106.499 23.0928 106.182 23.0244 105.898 22.9268C105.615 22.8193 105.356 22.6924 105.122 22.5459C104.888 22.3896 104.658 22.209 104.434 22.0039C104.121 21.7109 103.872 21.3203 103.687 20.832C103.511 20.334 103.413 19.7383 103.394 19.0449C103.384 18.8594 103.384 18.6543 103.394 18.4297C103.413 18.2051 103.438 17.9805 103.467 17.7559C103.496 17.5312 103.53 17.3115 103.569 17.0967C103.618 16.8818 103.667 16.6963 103.716 16.54C103.765 16.374 103.833 16.1738 103.921 15.9395C104.019 15.7051 104.121 15.4707 104.229 15.2363C104.336 14.9922 104.448 14.7725 104.565 14.5771C104.683 14.3721 104.795 14.2207 104.902 14.123C104.951 14.0742 104.995 14.04 105.034 14.0205C105.083 13.9912 105.132 13.9961 105.181 14.0352L106.572 15.002C106.68 15.0801 106.733 15.1533 106.733 15.2217C106.733 15.2803 106.694 15.3633 106.616 15.4707C106.548 15.5586 106.431 15.7197 106.265 15.9541C106.108 16.1885 105.938 16.4424 105.752 16.7158C105.576 16.9795 105.405 17.2334 105.239 17.4775C105.073 17.7217 104.956 17.8975 104.888 18.0049C104.81 18.1123 104.746 18.2295 104.697 18.3564C104.658 18.4736 104.639 18.6006 104.639 18.7373C104.639 19.2354 104.844 19.626 105.254 19.9092C105.557 20.1045 105.933 20.251 106.382 20.3486C106.841 20.4365 107.31 20.4805 107.788 20.4805C108.159 20.4805 108.506 20.4561 108.828 20.4072C109.16 20.3486 109.458 20.2607 109.722 20.1436C109.78 20.124 109.814 20.0996 109.824 20.0703C109.844 20.0312 109.854 19.9775 109.854 19.9092C109.854 19.5967 109.858 19.2598 109.868 18.8984C109.888 18.5371 109.907 18.1758 109.927 17.8145C109.956 17.4531 109.98 17.1016 110 16.7598C110.029 16.4082 110.054 16.0859 110.073 15.793C110.083 15.7051 110.093 15.6367 110.103 15.5879C110.122 15.5391 110.171 15.4805 110.249 15.4121L112.08 13.874C112.227 13.7471 112.3 13.7812 112.3 13.9766C112.28 14.3672 112.251 14.8164 112.212 15.3242C112.183 15.8223 112.153 16.3105 112.124 16.7891C112.095 17.2676 112.07 17.6973 112.051 18.0781C112.031 18.4492 112.021 18.6982 112.021 18.8252C112.021 18.9912 112.046 19.1816 112.095 19.3965C112.153 19.6016 112.271 19.7578 112.446 19.8652C112.651 19.9922 112.91 20.0947 113.223 20.1729C113.545 20.2412 113.877 20.2949 114.219 20.334C114.57 20.373 114.912 20.3975 115.244 20.4072C115.586 20.417 115.884 20.4219 116.138 20.4219C117.075 20.4121 117.832 20.2656 118.408 19.9824C118.984 19.6992 119.409 19.3281 119.683 18.8691C119.722 18.8008 119.722 18.7666 119.683 18.7666C119.653 18.7666 119.595 18.7764 119.507 18.7959C119.165 18.874 118.833 18.8643 118.511 18.7666C118.198 18.6689 117.915 18.498 117.661 18.2539C117.417 18.0293 117.227 17.7559 117.09 17.4336C116.963 17.1016 116.89 16.7451 116.87 16.3643C116.851 15.9639 116.89 15.5928 116.987 15.251C117.095 14.8994 117.266 14.5771 117.5 14.2842C117.754 13.9717 118.066 13.7324 118.438 13.5664C118.809 13.3906 119.199 13.293 119.609 13.2734C120.02 13.2441 120.43 13.293 120.84 13.4199C121.26 13.5371 121.641 13.7275 121.982 13.9912C122.275 14.2256 122.49 14.4893 122.627 14.7822C122.773 15.0654 122.861 15.3779 122.891 15.7197C122.93 16.0615 122.925 16.4277 122.876 16.8184C122.827 17.209 122.764 17.624 122.686 18.0635C122.637 18.3076 122.642 18.5322 122.7 18.7373C122.759 18.9326 122.842 19.1084 122.949 19.2646C123.057 19.4111 123.174 19.543 123.301 19.6602C123.438 19.7676 123.555 19.8506 123.652 19.9092C123.867 20.0361 124.146 20.1338 124.487 20.2021C124.839 20.2705 125.2 20.3242 125.571 20.3633C125.942 20.3926 126.304 20.4121 126.655 20.4219C127.017 20.4219 127.319 20.4219 127.563 20.4219C128.423 20.4219 129.17 20.4121 129.805 20.3926C130.439 20.373 130.981 20.3389 131.431 20.29C131.88 20.2412 132.241 20.1826 132.515 20.1143C132.788 20.0361 132.998 19.9385 133.145 19.8213C133.311 19.6943 133.438 19.5283 133.525 19.3232C133.623 19.1084 133.701 18.8594 133.76 18.5762C133.809 18.4004 133.853 18.3027 133.892 18.2832C133.94 18.2637 133.989 18.3662 134.038 18.5908C134.106 18.8936 134.17 19.2305 134.229 19.6016C134.287 19.9629 134.316 20.3145 134.316 20.6562C134.316 21.0273 134.272 21.3447 134.185 21.6084C134.116 21.8037 134.028 21.999 133.921 22.1943C133.813 22.3896 133.657 22.5654 133.452 22.7217C133.257 22.8682 132.993 22.9854 132.661 23.0732C132.339 23.1709 131.929 23.2197 131.431 23.2197L127.593 23.1758C127.397 23.1758 127.153 23.1758 126.86 23.1758C126.577 23.1758 126.27 23.1709 125.938 23.1611C125.605 23.1611 125.264 23.1514 124.912 23.1318C124.561 23.1123 124.224 23.083 123.901 23.0439C123.579 23.0049 123.281 22.9512 123.008 22.8828C122.744 22.8145 122.529 22.7266 122.363 22.6191C122.158 22.4922 121.982 22.3457 121.836 22.1797C121.689 22.0039 121.567 21.8232 121.47 21.6377C121.382 21.4424 121.309 21.2471 121.25 21.0518C121.201 20.8467 121.167 20.6465 121.147 20.4512C121.138 20.373 121.123 20.3047 121.104 20.2461C121.094 20.1777 121.06 20.1484 121.001 20.1582C120.952 20.168 120.913 20.1973 120.884 20.2461C120.864 20.2949 120.84 20.3535 120.811 20.4219C120.615 20.8125 120.386 21.1787 120.122 21.5205C119.868 21.8525 119.565 22.1455 119.214 22.3994C118.872 22.6436 118.472 22.8389 118.013 22.9854C117.554 23.1221 117.026 23.1904 116.431 23.1904ZM129.556 15.8369C129.604 15.8857 129.629 15.9248 129.629 15.9541C129.639 15.9834 129.619 16.0225 129.57 16.0713L128.281 17.3604C128.232 17.4092 128.193 17.4336 128.164 17.4336C128.135 17.4238 128.096 17.3945 128.047 17.3457L126.772 16.0713C126.724 16.0225 126.694 15.9834 126.685 15.9541C126.685 15.9248 126.709 15.8857 126.758 15.8369L128.047 14.5479C128.096 14.499 128.135 14.4795 128.164 14.4893C128.193 14.4893 128.232 14.5137 128.281 14.5625L129.556 15.8369ZM148.423 8.82031C148.647 8.6543 148.896 8.46387 149.17 8.24902C149.443 8.02441 149.702 7.79004 149.946 7.5459C150.2 7.29199 150.43 7.0332 150.635 6.76953C150.84 6.50586 150.981 6.24707 151.06 5.99316C151.147 5.72949 151.162 5.47559 151.104 5.23145C151.045 4.9873 150.879 4.76758 150.605 4.57227C150.342 4.38672 150.059 4.27441 149.756 4.23535C149.453 4.19629 149.146 4.21582 148.833 4.29395C148.521 4.37207 148.213 4.49414 147.91 4.66016C147.607 4.82617 147.329 5.02637 147.075 5.26074C146.821 5.48535 146.597 5.72949 146.401 5.99316C146.216 6.25684 146.079 6.52539 145.991 6.79883C145.923 7.02344 145.859 7.31641 145.801 7.67773C145.752 8.0293 145.708 8.37598 145.669 8.71777C145.64 9.0498 145.615 9.34277 145.596 9.59668C145.576 9.85059 145.566 9.99219 145.566 10.0215C145.557 10.1973 145.605 10.2998 145.713 10.3291C145.83 10.3486 145.977 10.3242 146.152 10.2559C146.338 10.1875 146.543 10.085 146.768 9.94824C147.002 9.81152 147.227 9.66992 147.441 9.52344C147.656 9.37695 147.852 9.24023 148.027 9.11328C148.203 8.97656 148.335 8.87891 148.423 8.82031ZM148.818 11.0762C148.545 11.2812 148.223 11.4912 147.852 11.7061C147.49 11.9111 147.144 12.126 146.812 12.3506C146.479 12.5654 146.191 12.7998 145.947 13.0537C145.713 13.2979 145.586 13.5664 145.566 13.8594C145.508 14.582 145.435 15.4463 145.347 16.4521C145.327 16.9697 145.317 17.4727 145.317 17.9609C145.327 18.4492 145.415 18.9033 145.581 19.3232C145.747 19.7432 145.996 20.0947 146.328 20.3779C146.66 20.6611 147.163 20.8223 147.837 20.8613C148.149 20.8613 148.477 20.8223 148.818 20.7441C149.17 20.6562 149.497 20.5293 149.8 20.3633C150.103 20.1875 150.356 19.9775 150.562 19.7334C150.776 19.4893 150.898 19.2109 150.928 18.8984C150.977 18.498 150.913 18.1123 150.737 17.7412C150.562 17.3701 150.298 17.0625 149.946 16.8184C149.595 16.5645 149.175 16.3887 148.687 16.291C148.208 16.1934 147.681 16.2178 147.104 16.3643C146.987 16.3838 146.909 16.3838 146.87 16.3643C146.841 16.3447 146.841 16.291 146.87 16.2031C146.899 16.0664 146.958 15.8809 147.046 15.6465C147.144 15.4121 147.256 15.1973 147.383 15.002C147.715 14.4258 148.066 14.1084 148.438 14.0498C149.287 14.04 150.034 14.1523 150.679 14.3867C151.323 14.6211 151.855 14.9629 152.275 15.4121C152.695 15.8613 152.998 16.4082 153.184 17.0527C153.369 17.6973 153.418 18.4199 153.33 19.2207C153.262 19.875 153.062 20.4609 152.729 20.9785C152.397 21.4863 151.987 21.916 151.499 22.2676C151.021 22.6191 150.493 22.8828 149.917 23.0586C149.341 23.2441 148.784 23.3369 148.247 23.3369C147.886 23.3369 147.544 23.3271 147.222 23.3076C146.909 23.2881 146.597 23.249 146.284 23.1904C145.981 23.1318 145.688 23.0439 145.405 22.9268C145.132 22.8096 144.854 22.6533 144.57 22.458C144.404 22.3506 144.214 22.1895 143.999 21.9746C143.784 21.75 143.579 21.4717 143.384 21.1396C143.198 20.8076 143.042 20.417 142.915 19.9678C142.788 19.5186 142.744 19.0107 142.783 18.4443C142.793 18.0635 142.808 17.6436 142.827 17.1846C142.856 16.7256 142.891 16.2715 142.93 15.8223C142.979 15.3633 143.013 14.9189 143.032 14.4893C143.032 14.3818 142.988 14.3574 142.9 14.416C142.559 14.6406 142.227 14.7871 141.904 14.8555C141.572 14.9238 141.26 14.9482 140.967 14.9287C140.674 14.8994 140.405 14.8457 140.161 14.7676C139.917 14.6797 139.707 14.5918 139.531 14.5039C139.395 14.4355 139.341 14.3818 139.37 14.3428C139.39 14.2939 139.453 14.2451 139.561 14.1963C139.883 14.0693 140.225 13.9229 140.586 13.7568C140.947 13.5908 141.387 13.3467 141.904 13.0244C142.236 12.8193 142.49 12.6387 142.666 12.4824C142.852 12.3164 142.988 12.1748 143.076 12.0576C143.164 11.9404 143.218 11.8379 143.237 11.75C143.257 11.6621 143.267 11.5791 143.267 11.501C143.276 11.3154 143.296 11.0371 143.325 10.666C143.364 10.2949 143.408 9.92383 143.457 9.55273C143.506 9.12305 143.564 8.65918 143.633 8.16113C143.711 7.52637 143.813 6.98438 143.94 6.53516C144.067 6.07617 144.224 5.68066 144.409 5.34863C144.595 5.0166 144.805 4.72852 145.039 4.48438C145.273 4.23047 145.537 3.98633 145.83 3.75195C146.211 3.44922 146.582 3.21973 146.943 3.06348C147.314 2.89746 147.686 2.78027 148.057 2.71191C148.428 2.64355 148.799 2.60938 149.17 2.60938C149.551 2.60938 149.937 2.62402 150.327 2.65332C150.61 2.67285 150.938 2.75586 151.309 2.90234C151.68 3.04883 152.012 3.26855 152.305 3.56152C152.607 3.84473 152.832 4.20605 152.979 4.64551C153.135 5.08496 153.135 5.6123 152.979 6.22754C152.812 6.85254 152.568 7.4043 152.246 7.88281C151.934 8.36133 151.582 8.79102 151.191 9.17188C150.801 9.55273 150.396 9.89941 149.976 10.2119C149.565 10.5146 149.18 10.8027 148.818 11.0762ZM166.44 18.708C166.46 18.6201 166.489 18.5811 166.528 18.5908C166.567 18.5908 166.597 18.6348 166.616 18.7227C166.694 19.0059 166.753 19.333 166.792 19.7041C166.831 20.0654 166.851 20.4316 166.851 20.8027C166.851 20.998 166.841 21.1787 166.821 21.3447C166.802 21.501 166.763 21.667 166.704 21.8428C166.606 22.1553 166.45 22.4043 166.235 22.5898C166.03 22.7656 165.791 22.9023 165.518 23C165.254 23.0879 164.971 23.1465 164.668 23.1758C164.365 23.2051 164.072 23.2197 163.789 23.2197C163.193 23.2197 162.632 23.1318 162.104 22.9561C161.577 22.7705 161.079 22.4873 160.61 22.1064C160.571 22.0674 160.532 22.0674 160.493 22.1064C160.122 22.4482 159.688 22.7266 159.189 22.9414C158.701 23.1562 158.149 23.2637 157.534 23.2637C157.163 23.2637 156.768 23.21 156.348 23.1025C155.928 23.0049 155.542 22.7852 155.19 22.4434C154.966 22.2188 154.78 21.9648 154.634 21.6816C154.487 21.3887 154.414 21.0518 154.414 20.6709C154.414 20.251 154.478 19.8457 154.604 19.4551C154.741 19.0547 154.937 18.7031 155.19 18.4004C155.444 18.0879 155.757 17.8389 156.128 17.6533C156.499 17.4678 156.929 17.375 157.417 17.375C157.856 17.375 158.291 17.4824 158.721 17.6973C159.15 17.9023 159.619 18.2588 160.127 18.7666C160.195 18.835 160.244 18.8105 160.273 18.6934C160.303 18.5273 160.317 18.3809 160.317 18.2539C160.327 18.1172 160.322 17.9756 160.303 17.8291C160.293 17.7607 160.273 17.6582 160.244 17.5215C160.215 17.375 160.156 17.2188 160.068 17.0527C159.98 16.877 159.858 16.7012 159.702 16.5254C159.546 16.3496 159.346 16.1934 159.102 16.0566C158.965 15.9785 158.779 15.9102 158.545 15.8516C158.311 15.793 158.052 15.7637 157.769 15.7637C157.192 15.7637 156.699 15.8711 156.289 16.0859C155.879 16.291 155.469 16.5742 155.059 16.9355C154.99 17.0039 154.956 16.9844 154.956 16.877C154.966 16.7305 154.976 16.5645 154.985 16.3789C155.005 16.1836 155.039 15.9932 155.088 15.8076C155.137 15.6123 155.205 15.4268 155.293 15.251C155.381 15.0752 155.498 14.9287 155.645 14.8115C156.055 14.499 156.523 14.2891 157.051 14.1816C157.588 14.0742 158.11 14.0205 158.618 14.0205C159.302 14.0205 159.946 14.1621 160.552 14.4453C161.157 14.7188 161.65 15.1631 162.031 15.7783C162.168 16.0029 162.28 16.2715 162.368 16.584C162.456 16.8965 162.5 17.2334 162.5 17.5947C162.5 17.9951 162.461 18.3955 162.383 18.7959C162.305 19.1865 162.183 19.5869 162.017 19.9971C161.987 20.0654 162.002 20.1094 162.061 20.1289C162.373 20.2852 162.72 20.4121 163.101 20.5098C163.491 20.5977 163.848 20.6416 164.17 20.6416C164.326 20.6416 164.492 20.6367 164.668 20.627C164.844 20.6074 165.01 20.5732 165.166 20.5244C165.332 20.4756 165.483 20.4072 165.62 20.3193C165.757 20.2217 165.874 20.0996 165.972 19.9531C166.089 19.7773 166.182 19.5771 166.25 19.3525C166.328 19.1182 166.392 18.9033 166.44 18.708ZM159.16 20.8027C159.199 20.7637 159.199 20.7197 159.16 20.6709C158.74 20.251 158.354 19.9385 158.003 19.7334C157.651 19.5186 157.329 19.4014 157.036 19.3818C156.88 19.3721 156.724 19.3818 156.567 19.4111C156.411 19.4404 156.27 19.4941 156.143 19.5723C156.025 19.6406 155.928 19.7383 155.85 19.8652C155.771 19.9824 155.732 20.1289 155.732 20.3047C155.732 20.5 155.796 20.666 155.923 20.8027C156.05 20.9395 156.206 21.0469 156.392 21.125C156.577 21.2031 156.768 21.2617 156.963 21.3008C157.168 21.3301 157.344 21.3447 157.49 21.3447C157.793 21.3447 158.081 21.3057 158.354 21.2275C158.638 21.1396 158.906 20.998 159.16 20.8027ZM178.306 20.3779C178.501 20.3779 178.682 20.3535 178.848 20.3047C179.014 20.2559 179.155 20.2021 179.272 20.1436C179.331 20.1143 179.365 20.085 179.375 20.0557C179.395 20.0264 179.404 19.9775 179.404 19.9092C179.404 19.5967 179.409 19.2598 179.419 18.8984C179.438 18.5371 179.458 18.1758 179.478 17.8145C179.507 17.4531 179.531 17.1016 179.551 16.7598C179.58 16.4082 179.604 16.0859 179.624 15.793C179.634 15.7051 179.644 15.6367 179.653 15.5879C179.673 15.5391 179.722 15.4805 179.8 15.4121L181.631 13.874C181.777 13.7471 181.851 13.7812 181.851 13.9766C181.831 14.3672 181.802 14.8164 181.763 15.3242C181.733 15.8223 181.704 16.3105 181.675 16.7891C181.646 17.2676 181.621 17.6973 181.602 18.0781C181.582 18.4492 181.572 18.6982 181.572 18.8252C181.572 18.9912 181.597 19.1816 181.646 19.3965C181.704 19.6016 181.821 19.7578 181.997 19.8652C182.202 19.9922 182.461 20.0947 182.773 20.1729C183.096 20.2412 183.428 20.2949 183.77 20.334C184.121 20.373 184.463 20.3975 184.795 20.4072C185.137 20.417 185.435 20.4219 185.688 20.4219C185.815 20.4219 186.011 20.4219 186.274 20.4219C186.538 20.4219 186.826 20.4072 187.139 20.3779C187.451 20.3389 187.759 20.2803 188.062 20.2021C188.374 20.1143 188.633 19.9873 188.838 19.8213C189.023 19.6748 189.17 19.4648 189.277 19.1914C189.385 18.918 189.463 18.6396 189.512 18.3564C189.561 18.1025 189.619 18.1025 189.688 18.3564C189.766 18.6689 189.839 19.0352 189.907 19.4551C189.976 19.8652 190.01 20.2656 190.01 20.6562C190.01 21.0762 189.956 21.4424 189.849 21.7549C189.751 22.0576 189.619 22.3066 189.453 22.502C189.229 22.7754 188.931 22.9609 188.56 23.0586C188.198 23.1562 187.764 23.21 187.256 23.2197C186.768 23.2295 186.245 23.2295 185.688 23.2197C185.142 23.21 184.619 23.2002 184.121 23.1904C183.887 23.1904 183.574 23.1758 183.184 23.1465C182.793 23.127 182.397 23.083 181.997 23.0146C181.597 22.9463 181.226 22.8486 180.884 22.7217C180.542 22.585 180.293 22.4092 180.137 22.1943C180.098 22.1455 180.054 22.1455 180.005 22.1943C179.321 22.8389 178.525 23.166 177.617 23.1758C177.383 23.1758 177.07 23.166 176.68 23.1465C176.289 23.127 175.894 23.083 175.493 23.0146C175.093 22.9463 174.722 22.8486 174.38 22.7217C174.038 22.585 173.789 22.4092 173.633 22.1943C173.594 22.1455 173.55 22.1455 173.501 22.1943C173.159 22.5068 172.788 22.7461 172.388 22.9121C171.997 23.0684 171.572 23.1562 171.113 23.1758C170.654 23.1953 170.249 23.1807 169.897 23.1318C169.546 23.0928 169.229 23.0244 168.945 22.9268C168.662 22.8193 168.403 22.6924 168.169 22.5459C167.935 22.3896 167.705 22.209 167.48 22.0039C167.168 21.7109 166.919 21.3203 166.733 20.832C166.558 20.334 166.46 19.7383 166.44 19.0449C166.431 18.8594 166.431 18.6543 166.44 18.4297C166.46 18.2051 166.484 17.9805 166.514 17.7559C166.543 17.5312 166.577 17.3115 166.616 17.0967C166.665 16.8818 166.714 16.6963 166.763 16.54C166.812 16.374 166.88 16.1738 166.968 15.9395C167.065 15.7051 167.168 15.4707 167.275 15.2363C167.383 14.9922 167.495 14.7725 167.612 14.5771C167.729 14.3721 167.842 14.2207 167.949 14.123C167.998 14.0742 168.042 14.04 168.081 14.0205C168.13 13.9912 168.179 13.9961 168.228 14.0352L169.619 15.002C169.727 15.0801 169.78 15.1533 169.78 15.2217C169.78 15.2803 169.741 15.3633 169.663 15.4707C169.595 15.5586 169.478 15.7197 169.312 15.9541C169.155 16.1885 168.984 16.4424 168.799 16.7158C168.623 16.9795 168.452 17.2334 168.286 17.4775C168.12 17.7217 168.003 17.8975 167.935 18.0049C167.856 18.1123 167.793 18.2295 167.744 18.3564C167.705 18.4736 167.686 18.6006 167.686 18.7373C167.686 19.2354 167.891 19.626 168.301 19.9092C168.604 20.1045 168.979 20.251 169.429 20.3486C169.888 20.4365 170.356 20.4805 170.835 20.4805C171.206 20.4805 171.553 20.4561 171.875 20.4072C172.207 20.3486 172.505 20.2607 172.769 20.1436C172.827 20.124 172.861 20.0996 172.871 20.0703C172.891 20.0312 172.9 19.9775 172.9 19.9092C172.9 19.5967 172.905 19.2598 172.915 18.8984C172.935 18.5371 172.954 18.1758 172.974 17.8145C173.003 17.4531 173.027 17.1016 173.047 16.7598C173.076 16.4082 173.101 16.0859 173.12 15.793C173.13 15.7051 173.14 15.6367 173.149 15.5879C173.169 15.5391 173.218 15.4805 173.296 15.4121L175.127 13.874C175.273 13.7471 175.347 13.7812 175.347 13.9766C175.327 14.3672 175.298 14.8164 175.259 15.3242C175.229 15.8223 175.2 16.3105 175.171 16.7891C175.142 17.2676 175.117 17.6973 175.098 18.0781C175.078 18.4492 175.068 18.6982 175.068 18.8252C175.068 18.9912 175.093 19.1816 175.142 19.3965C175.2 19.6016 175.317 19.7578 175.493 19.8652C175.649 19.9629 175.835 20.0459 176.05 20.1143C176.274 20.1729 176.509 20.2217 176.753 20.2607C177.007 20.2998 177.266 20.3291 177.529 20.3486C177.793 20.3682 178.052 20.3779 178.306 20.3779ZM186.963 25.5195C187.012 25.5684 187.036 25.6074 187.036 25.6367C187.046 25.666 187.026 25.7051 186.978 25.7539L185.688 27.043C185.64 27.0918 185.601 27.1113 185.571 27.1016C185.542 27.1016 185.503 27.0771 185.454 27.0283L184.18 25.7539C184.131 25.7051 184.102 25.666 184.092 25.6367C184.092 25.6074 184.116 25.5684 184.165 25.5195L185.454 24.2305C185.503 24.1816 185.542 24.1572 185.571 24.1572C185.601 24.167 185.64 24.1963 185.688 24.2451L186.963 25.5195ZM197.217 16.8037C197.217 17.1748 197.148 17.541 197.012 17.9023C196.885 18.2539 196.68 18.5713 196.396 18.8545C196.182 19.0693 195.923 19.2354 195.62 19.3525C195.327 19.4697 195.01 19.5283 194.668 19.5283C193.975 19.5283 193.384 19.3574 192.896 19.0156C192.407 18.6738 192.061 18.1807 191.855 17.5361C191.807 17.4092 191.748 17.4092 191.68 17.5361C191.553 17.7607 191.475 17.9561 191.445 18.1221C191.426 18.2881 191.411 18.4443 191.401 18.5908C191.382 19.0107 191.504 19.3721 191.768 19.6748C192.041 19.9678 192.412 20.1924 192.881 20.3486C193.135 20.4268 193.418 20.4854 193.73 20.5244C194.053 20.5537 194.395 20.5684 194.756 20.5684C195.283 20.5684 195.825 20.5391 196.382 20.4805C196.948 20.4121 197.48 20.3145 197.979 20.1875C198.281 20.1191 198.584 20.0264 198.887 19.9092C199.189 19.7822 199.482 19.6406 199.766 19.4844C200.049 19.3184 200.312 19.1328 200.557 18.9277C200.801 18.7129 201.021 18.4785 201.216 18.2246C201.304 18.1074 201.372 18.0732 201.421 18.1221C201.47 18.1611 201.484 18.2148 201.465 18.2832C201.406 18.625 201.304 18.9863 201.157 19.3672C201.021 19.748 200.845 20.1191 200.63 20.4805C200.415 20.8418 200.166 21.1836 199.883 21.5059C199.6 21.8281 199.282 22.0967 198.931 22.3115C198.589 22.5361 198.232 22.7119 197.861 22.8389C197.5 22.9561 197.134 23.0439 196.763 23.1025C196.392 23.1611 196.016 23.1953 195.635 23.2051C195.264 23.2148 194.893 23.2197 194.521 23.2197C194.082 23.2197 193.662 23.1758 193.262 23.0879C192.861 23.0098 192.49 22.9072 192.148 22.7803C191.816 22.6533 191.519 22.5166 191.255 22.3701C191.001 22.2139 190.801 22.0674 190.654 21.9307C190.225 21.54 189.902 21.0762 189.688 20.5391C189.473 19.9922 189.365 19.4258 189.365 18.8398C189.365 18.3223 189.438 17.8193 189.585 17.3311C189.741 16.8428 189.956 16.3936 190.229 15.9834C190.649 15.3584 191.187 14.875 191.841 14.5332C192.505 14.1914 193.203 14.0205 193.936 14.0205C194.346 14.0205 194.746 14.0742 195.137 14.1816C195.537 14.2891 195.889 14.4551 196.191 14.6797C196.504 14.9043 196.753 15.1924 196.938 15.5439C197.124 15.8955 197.217 16.3154 197.217 16.8037ZM192.778 16.2178C192.759 16.2471 192.744 16.2764 192.734 16.3057C192.734 16.335 192.744 16.374 192.764 16.4229C192.832 16.5986 192.915 16.7744 193.013 16.9502C193.11 17.1162 193.232 17.2725 193.379 17.4189C193.525 17.5557 193.696 17.668 193.892 17.7559C194.087 17.834 194.316 17.873 194.58 17.873C194.922 17.873 195.186 17.7803 195.371 17.5947C195.557 17.4092 195.649 17.1309 195.649 16.7598C195.649 16.3887 195.508 16.0908 195.225 15.8662C194.951 15.6318 194.609 15.5146 194.199 15.5146C193.994 15.5049 193.76 15.5488 193.496 15.6465C193.232 15.7441 192.993 15.9346 192.778 16.2178ZM208.599 20.5977C210.083 20.5977 211.299 20.5342 212.246 20.4072C213.193 20.2803 213.809 20.1045 214.092 19.8799C214.287 19.7236 214.429 19.5332 214.517 19.3086C214.604 19.084 214.673 18.8398 214.722 18.5762C214.761 18.4102 214.8 18.3223 214.839 18.3125C214.878 18.3027 214.917 18.3906 214.956 18.5762C214.995 18.8008 215.024 19.0449 215.044 19.3086C215.073 19.5625 215.088 19.8164 215.088 20.0703C215.088 20.334 215.073 20.5977 215.044 20.8613C215.015 21.1152 214.961 21.3398 214.883 21.5352C214.805 21.7207 214.683 21.9111 214.517 22.1064C214.351 22.3018 214.131 22.4824 213.857 22.6484C213.594 22.8047 213.262 22.9316 212.861 23.0293C212.471 23.1367 212.012 23.1953 211.484 23.2051C211.23 23.2051 211.001 23.2051 210.796 23.2051C210.601 23.2148 210.386 23.2197 210.151 23.2197C209.917 23.2197 209.648 23.2148 209.346 23.2051C209.053 23.2051 208.682 23.2002 208.232 23.1904C207.471 23.1807 206.797 23.127 206.211 23.0293C205.625 22.9316 205.107 22.8145 204.658 22.6777C204.209 22.5312 203.823 22.375 203.501 22.209C203.179 22.0332 202.9 21.8672 202.666 21.7109C202.158 21.3691 201.733 20.9443 201.392 20.4365C201.06 19.9189 200.894 19.3721 200.894 18.7959C200.894 18.5322 200.952 18.3223 201.069 18.166C201.196 18 201.357 17.873 201.553 17.7852C201.748 17.6973 201.968 17.6387 202.212 17.6094C202.456 17.5801 202.705 17.5557 202.959 17.5361C203.291 17.5166 203.564 17.4971 203.779 17.4775C204.004 17.4482 204.18 17.4141 204.307 17.375C204.434 17.3262 204.517 17.2627 204.556 17.1846C204.604 17.1064 204.624 16.999 204.614 16.8623C204.595 16.5986 204.482 16.3838 204.277 16.2178C204.072 16.0518 203.838 15.9248 203.574 15.8369C203.369 15.7588 203.14 15.7197 202.886 15.7197C202.642 15.71 202.407 15.7246 202.183 15.7637C202.046 15.7832 201.948 15.7832 201.89 15.7637C201.841 15.7441 201.787 15.7002 201.729 15.6318L200.425 14.2109C200.317 14.0938 200.273 14.0205 200.293 13.9912C200.312 13.9521 200.376 13.918 200.483 13.8887C200.552 13.8691 200.635 13.8545 200.732 13.8447C200.83 13.8252 200.928 13.8105 201.025 13.8008C201.133 13.791 201.235 13.7861 201.333 13.7861C201.431 13.7764 201.514 13.7715 201.582 13.7715C202.119 13.7715 202.661 13.835 203.208 13.9619C203.765 14.0791 204.282 14.2646 204.761 14.5186C205.239 14.7725 205.654 15.0947 206.006 15.4854C206.357 15.876 206.602 16.3447 206.738 16.8916C206.816 17.1748 206.836 17.4336 206.797 17.668C206.758 17.8926 206.699 18.0635 206.621 18.1807C206.533 18.3271 206.421 18.4443 206.284 18.5322C206.147 18.6201 205.991 18.6885 205.815 18.7373C205.649 18.7764 205.474 18.8057 205.288 18.8252C205.112 18.835 204.937 18.8447 204.761 18.8545C204.565 18.8643 204.38 18.8789 204.204 18.8984C204.028 18.9082 203.877 18.9326 203.75 18.9717C203.623 19.001 203.521 19.0498 203.442 19.1182C203.374 19.1768 203.35 19.2549 203.369 19.3525C203.398 19.5479 203.535 19.7236 203.779 19.8799C204.033 20.0361 204.38 20.1631 204.819 20.2607C205.103 20.3193 205.415 20.373 205.757 20.4219C206.099 20.4609 206.44 20.4951 206.782 20.5244C207.124 20.5537 207.451 20.5732 207.764 20.583C208.086 20.5928 208.364 20.5977 208.599 20.5977ZM210.591 14.5625C210.64 14.5137 210.679 14.4893 210.708 14.4893C210.737 14.4795 210.776 14.499 210.825 14.5479L212.114 15.8369C212.163 15.8857 212.183 15.9248 212.173 15.9541C212.173 15.9834 212.148 16.0225 212.1 16.0713L210.825 17.3457C210.776 17.3945 210.737 17.4238 210.708 17.4336C210.679 17.4336 210.64 17.4092 210.591 17.3604L209.302 16.0713C209.253 16.0225 209.229 15.9834 209.229 15.9541C209.238 15.9248 209.268 15.8857 209.316 15.8369L210.591 14.5625ZM217.725 13.9473C217.988 13.9473 218.301 14.0156 218.662 14.1523C219.033 14.2793 219.414 14.46 219.805 14.6943C220.195 14.9189 220.581 15.1875 220.962 15.5C221.353 15.8027 221.694 16.1348 221.987 16.4961C222.29 16.8477 222.534 17.2188 222.72 17.6094C222.905 18 222.993 18.3857 222.983 18.7666C222.974 19.3232 222.852 19.8799 222.617 20.4365C222.393 20.9834 222.08 21.4814 221.68 21.9307C221.279 22.3701 220.801 22.7266 220.244 23C219.688 23.2734 219.072 23.4102 218.398 23.4102C218.154 23.4102 217.891 23.3906 217.607 23.3516C217.324 23.3223 217.036 23.2637 216.743 23.1758C216.46 23.0879 216.182 22.9707 215.908 22.8242C215.645 22.668 215.405 22.4727 215.19 22.2383C214.556 21.5059 214.307 20.4854 214.443 19.1768C214.531 18.415 214.673 17.7119 214.868 17.0674C215.063 16.4229 215.303 15.8711 215.586 15.4121C215.879 14.9531 216.206 14.5967 216.567 14.3428C216.929 14.0791 217.314 13.9473 217.725 13.9473ZM218.311 20.5537C218.77 20.5732 219.189 20.5439 219.57 20.4658C219.951 20.3779 220.278 20.2656 220.552 20.1289C220.825 19.9824 221.035 19.8311 221.182 19.6748C221.338 19.5088 221.421 19.3623 221.431 19.2354C221.44 19.0693 221.343 18.874 221.138 18.6494C220.923 18.4248 220.615 18.1855 220.215 17.9316C219.824 17.6777 219.414 17.4434 218.984 17.2285C218.564 17.0137 218.164 16.8379 217.783 16.7012C217.412 16.5547 217.139 16.4863 216.963 16.4961C216.807 16.5059 216.694 16.5449 216.626 16.6133C216.567 16.6719 216.514 16.7354 216.465 16.8037C216.387 16.9209 216.313 17.0625 216.245 17.2285C216.177 17.3945 216.118 17.585 216.069 17.7998C216.04 17.9365 216.021 18.083 216.011 18.2393C216.011 18.3857 216.03 18.5322 216.069 18.6787C216.108 18.8545 216.172 19.0498 216.26 19.2646C216.348 19.4697 216.475 19.665 216.641 19.8506C216.807 20.0361 217.026 20.1973 217.3 20.334C217.573 20.4609 217.91 20.5342 218.311 20.5537ZM235.61 16.3643C235.503 16.3838 235.43 16.3838 235.391 16.3643C235.352 16.3447 235.342 16.291 235.361 16.2031C235.381 16.0664 235.43 15.8809 235.508 15.6465C235.596 15.4121 235.693 15.1973 235.801 15.002C236.113 14.4258 236.455 14.1084 236.826 14.0498C237.666 14.04 238.413 14.1523 239.067 14.3867C239.731 14.6211 240.283 14.9629 240.723 15.4121C241.172 15.8613 241.504 16.4082 241.719 17.0527C241.943 17.6973 242.036 18.4199 241.997 19.2207C241.968 19.875 241.797 20.4609 241.484 20.9785C241.182 21.4863 240.796 21.916 240.327 22.2676C239.868 22.6191 239.355 22.8828 238.789 23.0586C238.232 23.2441 237.686 23.3369 237.148 23.3369C236.787 23.3369 236.445 23.3271 236.123 23.3076C235.801 23.2881 235.483 23.249 235.171 23.1904C234.868 23.1318 234.57 23.0439 234.277 22.9268C233.994 22.8096 233.706 22.6533 233.413 22.458C233.247 22.3506 233.047 22.1895 232.812 21.9746C232.588 21.75 232.368 21.4717 232.153 21.1396C231.948 20.8076 231.768 20.417 231.611 19.9678C231.465 19.5186 231.392 19.0107 231.392 18.4443C231.392 18.0635 231.392 17.6436 231.392 17.1846C231.392 16.7256 231.396 16.2568 231.406 15.7783C231.426 15.2998 231.44 14.8262 231.45 14.3574C231.47 13.8789 231.494 13.4248 231.523 12.9951C231.592 11.7646 231.816 10.7051 232.197 9.81641C232.578 8.92773 233.11 8.19043 233.794 7.60449C234.048 7.38965 234.321 7.18457 234.614 6.98926C234.917 6.78418 235.249 6.61328 235.61 6.47656C235.981 6.33008 236.392 6.22266 236.841 6.1543C237.29 6.07617 237.788 6.05176 238.335 6.08105C238.521 6.09082 238.721 6.10547 238.936 6.125C239.16 6.13477 239.375 6.14941 239.58 6.16895C239.795 6.17871 239.995 6.19336 240.181 6.21289C240.366 6.22266 240.518 6.22754 240.635 6.22754C241.377 6.22754 242.041 6.20312 242.627 6.1543C243.213 6.10547 243.682 5.99805 244.033 5.83203C244.16 5.76367 244.209 5.66113 244.18 5.52441C244.102 5.20215 243.984 4.9043 243.828 4.63086C243.682 4.34766 243.506 4.0791 243.301 3.8252C243.096 3.56152 242.876 3.31738 242.642 3.09277C242.417 2.8584 242.197 2.62891 241.982 2.4043C241.904 2.32617 241.88 2.2627 241.909 2.21387C241.938 2.16504 241.982 2.12598 242.041 2.09668L244.106 0.939453C244.204 0.880859 244.292 0.900391 244.37 0.998047C244.634 1.36914 244.893 1.80371 245.146 2.30176C245.4 2.7998 245.591 3.41016 245.718 4.13281C246.011 5.90039 245.82 7.19434 245.146 8.01465C244.912 8.28809 244.639 8.49805 244.326 8.64453C244.014 8.78125 243.682 8.88379 243.33 8.95215C242.979 9.01074 242.622 9.04492 242.261 9.05469C241.899 9.06445 241.553 9.07422 241.221 9.08398C241.006 9.09375 240.811 9.09863 240.635 9.09863C240.469 9.08887 240.298 9.0791 240.122 9.06934C239.946 9.05957 239.751 9.05469 239.536 9.05469C239.321 9.04492 239.058 9.04004 238.745 9.04004C238.062 9.06934 237.466 9.13281 236.958 9.23047C236.45 9.32812 236.016 9.48438 235.654 9.69922C235.293 9.9043 234.995 10.1826 234.761 10.5342C234.526 10.8857 234.346 11.335 234.219 11.8818C234.102 12.4189 234.023 13.0635 233.984 13.8154C233.955 14.5674 233.955 15.4512 233.984 16.4668C233.994 16.9355 234.009 17.4238 234.028 17.9316C234.058 18.4297 234.15 18.8936 234.307 19.3232C234.463 19.7432 234.712 20.0947 235.054 20.3779C235.405 20.6611 235.918 20.8223 236.592 20.8613C236.904 20.8613 237.231 20.8223 237.573 20.7441C237.915 20.6562 238.232 20.5293 238.525 20.3633C238.818 20.1875 239.062 19.9775 239.258 19.7334C239.453 19.4893 239.561 19.2109 239.58 18.8984C239.6 18.498 239.512 18.1123 239.316 17.7412C239.121 17.3701 238.843 17.0625 238.481 16.8184C238.12 16.5645 237.69 16.3887 237.192 16.291C236.704 16.1934 236.177 16.2178 235.61 16.3643ZM249.365 19.9092C249.365 19.5967 249.37 19.2598 249.38 18.8984C249.399 18.5371 249.419 18.1758 249.438 17.8145C249.468 17.4531 249.492 17.1016 249.512 16.7598C249.541 16.4082 249.565 16.0859 249.585 15.793C249.595 15.7051 249.604 15.6367 249.614 15.5879C249.634 15.5391 249.683 15.4805 249.761 15.4121L251.592 13.874C251.738 13.7471 251.812 13.7812 251.812 13.9766C251.792 14.3672 251.763 14.8164 251.724 15.3242C251.694 15.8223 251.665 16.3105 251.636 16.7891C251.606 17.2676 251.582 17.6973 251.562 18.0781C251.543 18.4492 251.533 18.6982 251.533 18.8252C251.533 18.9912 251.558 19.1816 251.606 19.3965C251.665 19.6016 251.782 19.7578 251.958 19.8652C252.163 19.9922 252.422 20.0947 252.734 20.1729C253.057 20.2412 253.389 20.2949 253.73 20.334C254.082 20.373 254.424 20.3975 254.756 20.4072C255.098 20.417 255.396 20.4219 255.649 20.4219C255.776 20.4219 255.972 20.4219 256.235 20.4219C256.499 20.4219 256.787 20.4072 257.1 20.3779C257.412 20.3389 257.72 20.2803 258.022 20.2021C258.335 20.1143 258.594 19.9873 258.799 19.8213C258.984 19.6748 259.131 19.4648 259.238 19.1914C259.346 18.918 259.424 18.6396 259.473 18.3564C259.521 18.1025 259.58 18.1025 259.648 18.3564C259.727 18.6689 259.8 19.0352 259.868 19.4551C259.937 19.8652 259.971 20.2656 259.971 20.6562C259.971 21.0762 259.917 21.4424 259.81 21.7549C259.712 22.0576 259.58 22.3066 259.414 22.502C259.189 22.7754 258.892 22.9609 258.521 23.0586C258.159 23.1562 257.725 23.21 257.217 23.2197C256.729 23.2295 256.206 23.2295 255.649 23.2197C255.103 23.21 254.58 23.2002 254.082 23.1904C253.848 23.1904 253.535 23.1758 253.145 23.1465C252.754 23.127 252.358 23.083 251.958 23.0146C251.558 22.9463 251.187 22.8486 250.845 22.7217C250.503 22.585 250.254 22.4092 250.098 22.1943C250.059 22.1455 250.015 22.1455 249.966 22.1943C249.624 22.5068 249.253 22.7461 248.853 22.9121C248.462 23.0684 248.037 23.1562 247.578 23.1758C247.119 23.1953 246.714 23.1807 246.362 23.1318C246.011 23.0928 245.693 23.0244 245.41 22.9268C245.127 22.8193 244.868 22.6924 244.634 22.5459C244.399 22.3896 244.17 22.209 243.945 22.0039C243.633 21.7109 243.384 21.3203 243.198 20.832C243.022 20.334 242.925 19.7383 242.905 19.0449C242.896 18.8594 242.896 18.6543 242.905 18.4297C242.925 18.2051 242.949 17.9805 242.979 17.7559C243.008 17.5312 243.042 17.3115 243.081 17.0967C243.13 16.8818 243.179 16.6963 243.228 16.54C243.276 16.374 243.345 16.1738 243.433 15.9395C243.53 15.7051 243.633 15.4707 243.74 15.2363C243.848 14.9922 243.96 14.7725 244.077 14.5771C244.194 14.3721 244.307 14.2207 244.414 14.123C244.463 14.0742 244.507 14.04 244.546 14.0205C244.595 13.9912 244.644 13.9961 244.692 14.0352L246.084 15.002C246.191 15.0801 246.245 15.1533 246.245 15.2217C246.245 15.2803 246.206 15.3633 246.128 15.4707C246.06 15.5586 245.942 15.7197 245.776 15.9541C245.62 16.1885 245.449 16.4424 245.264 16.7158C245.088 16.9795 244.917 17.2334 244.751 17.4775C244.585 17.7217 244.468 17.8975 244.399 18.0049C244.321 18.1123 244.258 18.2295 244.209 18.3564C244.17 18.4736 244.15 18.6006 244.15 18.7373C244.15 19.2354 244.355 19.626 244.766 19.9092C245.068 20.1045 245.444 20.251 245.894 20.3486C246.353 20.4365 246.821 20.4805 247.3 20.4805C247.671 20.4805 248.018 20.4561 248.34 20.4072C248.672 20.3486 248.97 20.2607 249.233 20.1436C249.292 20.124 249.326 20.0996 249.336 20.0703C249.355 20.0312 249.365 19.9775 249.365 19.9092ZM262.051 22.0039C261.934 21.9941 261.777 21.9697 261.582 21.9307C261.387 21.8818 261.177 21.8232 260.952 21.7549C260.728 21.6768 260.508 21.5791 260.293 21.4619C260.088 21.3447 259.912 21.2031 259.766 21.0371C259.424 20.6562 259.253 20.168 259.253 19.5723C259.253 19.0547 259.36 18.5469 259.575 18.0488C259.8 17.5508 260.088 17.1162 260.439 16.7451C260.664 16.4912 260.933 16.2324 261.245 15.9688C261.567 15.7051 261.924 15.4316 262.314 15.1484C262.451 15.041 262.432 14.9873 262.256 14.9873C261.172 15.0068 260.347 15.0557 259.78 15.1338C259.224 15.2119 258.862 15.3096 258.696 15.4268C258.56 15.5244 258.447 15.6514 258.359 15.8076C258.271 15.9639 258.203 16.125 258.154 16.291C258.115 16.3984 258.076 16.4668 258.037 16.4961C258.008 16.5156 257.983 16.4424 257.964 16.2764C257.954 16.1885 257.949 16.1006 257.949 16.0127C257.949 15.915 257.949 15.8174 257.949 15.7197C257.949 15.4268 257.969 15.1387 258.008 14.8555C258.047 14.5723 258.12 14.333 258.228 14.1377C258.315 13.9814 258.413 13.835 258.521 13.6982C258.628 13.5518 258.765 13.4248 258.931 13.3174C259.097 13.21 259.302 13.127 259.546 13.0684C259.8 13.0098 260.112 12.9854 260.483 12.9951C261.099 13.0146 261.709 13.0293 262.314 13.0391C262.92 13.0391 263.535 13.0293 264.16 13.0098C264.297 13 264.395 13.0098 264.453 13.0391C264.512 13.0684 264.585 13.1367 264.673 13.2441L266.021 14.9727C266.099 15.0605 266.128 15.1484 266.108 15.2363C266.099 15.3145 266.011 15.3779 265.845 15.4268C265.63 15.4854 265.371 15.5635 265.068 15.6611C264.766 15.7588 264.429 15.8955 264.058 16.0713C263.687 16.2471 263.291 16.4668 262.871 16.7305C262.451 16.9941 262.017 17.3262 261.567 17.7266C261.323 17.9414 261.211 18.1611 261.23 18.3857C261.24 18.542 261.294 18.6885 261.392 18.8252C261.499 18.9619 261.65 19.0693 261.846 19.1475C262.188 19.2842 262.593 19.377 263.062 19.4258C263.54 19.4746 264.141 19.4844 264.863 19.4551C264.863 19.8359 264.858 20.2607 264.849 20.7295C264.849 21.1885 264.844 21.6621 264.834 22.1504C264.824 22.6289 264.81 23.1074 264.79 23.5859C264.78 24.0742 264.761 24.5283 264.731 24.9482C264.663 26.1787 264.438 27.2383 264.058 28.127C263.677 29.0156 263.145 29.7529 262.461 30.3389C261.943 30.7783 261.396 31.1201 260.82 31.3643C260.254 31.6182 259.663 31.8086 259.048 31.9355C258.735 31.9941 258.423 32.043 258.11 32.082C257.798 32.1211 257.48 32.1455 257.158 32.1553C256.836 32.1748 256.499 32.1846 256.147 32.1846C255.796 32.1943 255.425 32.1992 255.034 32.1992C254.702 32.1992 254.355 32.1943 253.994 32.1846C253.633 32.1748 253.276 32.1357 252.925 32.0674C252.573 32.0088 252.241 31.9062 251.929 31.7598C251.616 31.6133 251.343 31.4033 251.108 31.1299C250.435 30.3096 250.244 29.0156 250.537 27.248C250.664 26.5254 250.854 25.915 251.108 25.417C251.362 24.9189 251.621 24.4844 251.885 24.1133C251.963 24.0156 252.051 23.9961 252.148 24.0547L254.214 25.2119C254.272 25.2412 254.316 25.2803 254.346 25.3291C254.375 25.3779 254.351 25.4414 254.272 25.5195C254.048 25.7441 253.823 25.9688 253.599 26.1934C253.374 26.4277 253.159 26.6719 252.954 26.9258C252.749 27.1895 252.568 27.458 252.412 27.7314C252.256 28.0146 252.144 28.3174 252.075 28.6396C252.046 28.7764 252.095 28.8789 252.222 28.9473C252.573 29.1133 253.042 29.2207 253.628 29.2695C254.214 29.3184 254.878 29.3428 255.62 29.3428C255.737 29.3428 255.884 29.3379 256.06 29.3281C256.245 29.3281 256.431 29.3232 256.616 29.3135C256.802 29.3135 256.973 29.3086 257.129 29.2988C257.295 29.2988 257.422 29.2939 257.51 29.2842C258.203 29.2256 258.804 29.1426 259.312 29.0352C259.829 28.9375 260.269 28.791 260.63 28.5957C260.991 28.4004 261.284 28.1416 261.509 27.8193C261.733 27.4971 261.904 27.0869 262.021 26.5889C262.139 26.0908 262.212 25.4854 262.241 24.7725C262.271 24.0596 262.271 23.2148 262.241 22.2383C262.241 22.1406 262.227 22.082 262.197 22.0625C262.178 22.043 262.129 22.0234 262.051 22.0039ZM274.985 20.0557C274.741 20.0557 274.458 19.9971 274.136 19.8799C273.823 19.7529 273.525 19.5479 273.242 19.2646C273.203 19.2158 273.169 19.2012 273.14 19.2207C273.11 19.2305 273.096 19.2646 273.096 19.3232C273.096 19.7041 273.091 20.0117 273.081 20.2461C273.081 20.4805 273.076 20.7002 273.066 20.9053C273.066 21.1006 273.062 21.3154 273.052 21.5498C273.052 21.7842 273.047 22.0967 273.037 22.4873C273.027 22.7314 272.954 22.9121 272.817 23.0293C272.69 23.1562 272.529 23.2197 272.334 23.2197C272.188 23.2197 272.017 23.2246 271.821 23.2344C271.626 23.2441 271.475 23.249 271.367 23.249C271.162 23.249 270.991 23.1855 270.854 23.0586C270.718 22.9414 270.645 22.7607 270.635 22.5166L270.591 21.1982C270.591 21.0908 270.547 21.0664 270.459 21.125C270.127 21.3496 269.79 21.4961 269.448 21.5645C269.116 21.6328 268.799 21.6572 268.496 21.6377C268.193 21.6084 267.91 21.5547 267.646 21.4766C267.393 21.3887 267.178 21.3008 267.002 21.2129C266.865 21.1445 266.807 21.0908 266.826 21.0518C266.846 21.0029 266.909 20.9541 267.017 20.9053C267.173 20.8467 267.349 20.7734 267.544 20.6855C267.739 20.5879 267.939 20.4756 268.145 20.3486C268.359 20.2217 268.564 20.085 268.76 19.9385C268.965 19.7822 269.146 19.6162 269.302 19.4404C269.507 19.2061 269.673 18.9961 269.8 18.8105C269.927 18.625 270.024 18.4541 270.093 18.2979C270.171 18.1318 270.22 17.9756 270.239 17.8291C270.269 17.6826 270.288 17.5264 270.298 17.3604C270.308 17.2139 270.308 17.0381 270.298 16.833C270.288 16.6182 270.278 16.4326 270.269 16.2764C270.259 16.0518 270.303 15.8564 270.4 15.6904C270.498 15.5146 270.674 15.3193 270.928 15.1045L273.022 13.376C273.062 13.3467 273.11 13.3271 273.169 13.3174C273.228 13.2979 273.257 13.3418 273.257 13.4492L273.228 16.335C273.228 16.4619 273.252 16.6084 273.301 16.7744C273.35 16.9404 273.438 17.0967 273.564 17.2432C273.701 17.3896 273.887 17.5215 274.121 17.6387C274.365 17.7461 274.678 17.8096 275.059 17.8291C275.254 17.8389 275.449 17.8145 275.645 17.7559C275.84 17.6875 276.011 17.5898 276.157 17.4629C276.313 17.3262 276.44 17.1602 276.538 16.9648C276.636 16.7598 276.685 16.5303 276.685 16.2764C276.675 16.0518 276.719 15.8564 276.816 15.6904C276.914 15.5146 277.09 15.3193 277.344 15.1045L279.438 13.376C279.478 13.3467 279.526 13.3271 279.585 13.3174C279.644 13.2979 279.673 13.3418 279.673 13.4492L279.644 15.3682C279.634 15.8271 279.619 16.3252 279.6 16.8623C279.58 17.3994 279.57 17.9609 279.57 18.5469C279.57 18.8691 279.6 19.1377 279.658 19.3525C279.727 19.5674 279.858 19.7383 280.054 19.8652C280.269 19.9922 280.532 20.0947 280.845 20.1729C281.157 20.2412 281.479 20.2949 281.812 20.334C282.144 20.373 282.471 20.3975 282.793 20.4072C283.115 20.417 283.398 20.4219 283.643 20.4219C284.502 20.4219 285.249 20.4121 285.884 20.3926C286.519 20.373 287.061 20.3389 287.51 20.29C287.959 20.2412 288.32 20.1826 288.594 20.1143C288.867 20.0361 289.077 19.9385 289.224 19.8213C289.39 19.6943 289.517 19.5283 289.604 19.3232C289.702 19.1084 289.78 18.8594 289.839 18.5762C289.888 18.4004 289.932 18.3027 289.971 18.2832C290.02 18.2637 290.068 18.3662 290.117 18.5908C290.186 18.8936 290.249 19.2305 290.308 19.6016C290.366 19.9629 290.396 20.3145 290.396 20.6562C290.396 21.0273 290.352 21.3447 290.264 21.6084C290.195 21.8037 290.107 21.999 290 22.1943C289.893 22.3896 289.736 22.5654 289.531 22.7217C289.336 22.8682 289.072 22.9854 288.74 23.0732C288.418 23.1709 288.008 23.2197 287.51 23.2197L283.364 23.1758C283.169 23.1758 282.925 23.1758 282.632 23.1758C282.349 23.1758 282.041 23.1709 281.709 23.1611C281.377 23.1611 281.035 23.1514 280.684 23.1318C280.332 23.1123 279.995 23.083 279.673 23.0439C279.351 23.0049 279.053 22.9512 278.779 22.8828C278.516 22.8145 278.301 22.7266 278.135 22.6191C277.812 22.4141 277.563 22.1699 277.388 21.8867C277.212 21.5938 277.085 21.2959 277.007 20.9932C276.929 20.6807 276.885 20.3779 276.875 20.085C276.865 19.792 276.865 19.5381 276.875 19.3232C276.875 19.2646 276.86 19.2305 276.831 19.2207C276.802 19.2012 276.768 19.2158 276.729 19.2646C276.455 19.5479 276.157 19.7529 275.835 19.8799C275.513 19.9971 275.229 20.0557 274.985 20.0557ZM285.312 15.8369C285.361 15.8857 285.386 15.9248 285.386 15.9541C285.396 15.9834 285.376 16.0225 285.327 16.0713L284.038 17.3604C283.989 17.4092 283.95 17.4336 283.921 17.4336C283.892 17.4238 283.853 17.3945 283.804 17.3457L282.529 16.0713C282.48 16.0225 282.451 15.9834 282.441 15.9541C282.441 15.9248 282.466 15.8857 282.515 15.8369L283.804 14.5479C283.853 14.499 283.892 14.4795 283.921 14.4893C283.95 14.4893 283.989 14.5137 284.038 14.5625L285.312 15.8369ZM297.471 16.8037C297.471 17.1748 297.402 17.541 297.266 17.9023C297.139 18.2539 296.934 18.5713 296.65 18.8545C296.436 19.0693 296.177 19.2354 295.874 19.3525C295.581 19.4697 295.264 19.5283 294.922 19.5283C294.229 19.5283 293.638 19.3574 293.149 19.0156C292.661 18.6738 292.314 18.1807 292.109 17.5361C292.061 17.4092 292.002 17.4092 291.934 17.5361C291.807 17.7607 291.729 17.9561 291.699 18.1221C291.68 18.2881 291.665 18.4443 291.655 18.5908C291.636 19.0107 291.758 19.3721 292.021 19.6748C292.295 19.9678 292.666 20.1924 293.135 20.3486C293.389 20.4268 293.672 20.4854 293.984 20.5244C294.307 20.5537 294.648 20.5684 295.01 20.5684C295.537 20.5684 296.079 20.5391 296.636 20.4805C297.202 20.4121 297.734 20.3145 298.232 20.1875C298.535 20.1191 298.838 20.0264 299.141 19.9092C299.443 19.7822 299.736 19.6406 300.02 19.4844C300.303 19.3184 300.566 19.1328 300.811 18.9277C301.055 18.7129 301.274 18.4785 301.47 18.2246C301.558 18.1074 301.626 18.0732 301.675 18.1221C301.724 18.1611 301.738 18.2148 301.719 18.2832C301.66 18.625 301.558 18.9863 301.411 19.3672C301.274 19.748 301.099 20.1191 300.884 20.4805C300.669 20.8418 300.42 21.1836 300.137 21.5059C299.854 21.8281 299.536 22.0967 299.185 22.3115C298.843 22.5361 298.486 22.7119 298.115 22.8389C297.754 22.9561 297.388 23.0439 297.017 23.1025C296.646 23.1611 296.27 23.1953 295.889 23.2051C295.518 23.2148 295.146 23.2197 294.775 23.2197C294.336 23.2197 293.916 23.1758 293.516 23.0879C293.115 23.0098 292.744 22.9072 292.402 22.7803C292.07 22.6533 291.772 22.5166 291.509 22.3701C291.255 22.2139 291.055 22.0674 290.908 21.9307C290.479 21.54 290.156 21.0762 289.941 20.5391C289.727 19.9922 289.619 19.4258 289.619 18.8398C289.619 18.3223 289.692 17.8193 289.839 17.3311C289.995 16.8428 290.21 16.3936 290.483 15.9834C290.903 15.3584 291.44 14.875 292.095 14.5332C292.759 14.1914 293.457 14.0205 294.189 14.0205C294.6 14.0205 295 14.0742 295.391 14.1816C295.791 14.2891 296.143 14.4551 296.445 14.6797C296.758 14.9043 297.007 15.1924 297.192 15.5439C297.378 15.8955 297.471 16.3154 297.471 16.8037ZM293.032 16.2178C293.013 16.2471 292.998 16.2764 292.988 16.3057C292.988 16.335 292.998 16.374 293.018 16.4229C293.086 16.5986 293.169 16.7744 293.267 16.9502C293.364 17.1162 293.486 17.2725 293.633 17.4189C293.779 17.5557 293.95 17.668 294.146 17.7559C294.341 17.834 294.57 17.873 294.834 17.873C295.176 17.873 295.439 17.7803 295.625 17.5947C295.811 17.4092 295.903 17.1309 295.903 16.7598C295.903 16.3887 295.762 16.0908 295.479 15.8662C295.205 15.6318 294.863 15.5146 294.453 15.5146C294.248 15.5049 294.014 15.5488 293.75 15.6465C293.486 15.7441 293.247 15.9346 293.032 16.2178ZM306.201 23.2197C305.732 23.2197 305.293 23.1758 304.883 23.0879C304.482 23 304.116 22.8926 303.784 22.7656C303.452 22.6289 303.164 22.4824 302.92 22.3262C302.676 22.1699 302.49 22.0234 302.363 21.8867C301.875 21.3984 301.538 20.876 301.353 20.3193C301.177 19.7627 301.084 19.2305 301.074 18.7227C301.074 18.0098 301.191 17.3652 301.426 16.7891C301.66 16.2129 301.987 15.7197 302.407 15.3096C302.837 14.8994 303.35 14.582 303.945 14.3574C304.541 14.1328 305.2 14.0205 305.923 14.0205C306.499 14.0205 307.012 14.0986 307.461 14.2549C307.91 14.4014 308.267 14.626 308.53 14.9287C308.599 14.9971 308.652 15.0898 308.691 15.207C308.74 15.3242 308.74 15.4805 308.691 15.6758L308.34 17.2578C308.32 17.3164 308.291 17.3457 308.252 17.3457C308.223 17.3457 308.198 17.3164 308.179 17.2578C308.042 16.7695 307.793 16.3936 307.432 16.1299C307.08 15.8662 306.65 15.7344 306.143 15.7344C305.049 15.7344 304.307 16.1689 303.916 17.0381C303.779 17.3311 303.711 17.6582 303.711 18.0195C303.711 18.3223 303.755 18.5908 303.843 18.8252C303.94 19.0791 304.072 19.3086 304.238 19.5137C304.404 19.7188 304.619 19.8945 304.883 20.041C305.156 20.1875 305.479 20.3047 305.85 20.3926C306.221 20.4707 306.66 20.5098 307.168 20.5098C307.49 20.5098 307.866 20.4854 308.296 20.4365C308.726 20.3779 309.175 20.29 309.644 20.1729C309.946 20.1045 310.249 20.0117 310.552 19.8945C310.854 19.7773 311.147 19.6406 311.431 19.4844C311.714 19.3184 311.978 19.1328 312.222 18.9277C312.466 18.7129 312.686 18.4785 312.881 18.2246C312.969 18.1074 313.037 18.0732 313.086 18.1221C313.135 18.1611 313.149 18.2148 313.13 18.2832C313.071 18.625 312.969 18.9863 312.822 19.3672C312.676 19.7383 312.495 20.1045 312.28 20.4658C312.065 20.8174 311.816 21.1543 311.533 21.4766C311.25 21.7891 310.938 22.0576 310.596 22.2822C310.244 22.4971 309.888 22.668 309.526 22.7949C309.165 22.9219 308.799 23.0146 308.428 23.0732C308.057 23.1416 307.686 23.1807 307.314 23.1904C306.943 23.21 306.572 23.2197 306.201 23.2197ZM324.087 18.708C324.106 18.6201 324.136 18.5811 324.175 18.5908C324.214 18.5908 324.243 18.6348 324.263 18.7227C324.341 19.0059 324.399 19.333 324.438 19.7041C324.478 20.0654 324.497 20.4316 324.497 20.8027C324.497 20.998 324.487 21.1787 324.468 21.3447C324.448 21.501 324.409 21.667 324.351 21.8428C324.253 22.1553 324.097 22.4043 323.882 22.5898C323.677 22.7656 323.438 22.9023 323.164 23C322.9 23.0879 322.617 23.1465 322.314 23.1758C322.012 23.2051 321.719 23.2197 321.436 23.2197C320.84 23.2197 320.278 23.1318 319.751 22.9561C319.224 22.7705 318.726 22.4873 318.257 22.1064C318.218 22.0674 318.179 22.0674 318.14 22.1064C317.769 22.4482 317.334 22.7266 316.836 22.9414C316.348 23.1562 315.796 23.2637 315.181 23.2637C314.81 23.2637 314.414 23.21 313.994 23.1025C313.574 23.0049 313.188 22.7852 312.837 22.4434C312.612 22.2188 312.427 21.9648 312.28 21.6816C312.134 21.3887 312.061 21.0518 312.061 20.6709C312.061 20.251 312.124 19.8457 312.251 19.4551C312.388 19.0547 312.583 18.7031 312.837 18.4004C313.091 18.0879 313.403 17.8389 313.774 17.6533C314.146 17.4678 314.575 17.375 315.063 17.375C315.503 17.375 315.938 17.4824 316.367 17.6973C316.797 17.9023 317.266 18.2588 317.773 18.7666C317.842 18.835 317.891 18.8105 317.92 18.6934C317.949 18.5273 317.964 18.3809 317.964 18.2539C317.974 18.1172 317.969 17.9756 317.949 17.8291C317.939 17.7607 317.92 17.6582 317.891 17.5215C317.861 17.375 317.803 17.2188 317.715 17.0527C317.627 16.877 317.505 16.7012 317.349 16.5254C317.192 16.3496 316.992 16.1934 316.748 16.0566C316.611 15.9785 316.426 15.9102 316.191 15.8516C315.957 15.793 315.698 15.7637 315.415 15.7637C314.839 15.7637 314.346 15.8711 313.936 16.0859C313.525 16.291 313.115 16.5742 312.705 16.9355C312.637 17.0039 312.603 16.9844 312.603 16.877C312.612 16.7305 312.622 16.5645 312.632 16.3789C312.651 16.1836 312.686 15.9932 312.734 15.8076C312.783 15.6123 312.852 15.4268 312.939 15.251C313.027 15.0752 313.145 14.9287 313.291 14.8115C313.701 14.499 314.17 14.2891 314.697 14.1816C315.234 14.0742 315.757 14.0205 316.265 14.0205C316.948 14.0205 317.593 14.1621 318.198 14.4453C318.804 14.7188 319.297 15.1631 319.678 15.7783C319.814 16.0029 319.927 16.2715 320.015 16.584C320.103 16.8965 320.146 17.2334 320.146 17.5947C320.146 17.9951 320.107 18.3955 320.029 18.7959C319.951 19.1865 319.829 19.5869 319.663 19.9971C319.634 20.0654 319.648 20.1094 319.707 20.1289C320.02 20.2852 320.366 20.4121 320.747 20.5098C321.138 20.5977 321.494 20.6416 321.816 20.6416C321.973 20.6416 322.139 20.6367 322.314 20.627C322.49 20.6074 322.656 20.5732 322.812 20.5244C322.979 20.4756 323.13 20.4072 323.267 20.3193C323.403 20.2217 323.521 20.0996 323.618 19.9531C323.735 19.7773 323.828 19.5771 323.896 19.3525C323.975 19.1182 324.038 18.9033 324.087 18.708ZM316.807 20.8027C316.846 20.7637 316.846 20.7197 316.807 20.6709C316.387 20.251 316.001 19.9385 315.649 19.7334C315.298 19.5186 314.976 19.4014 314.683 19.3818C314.526 19.3721 314.37 19.3818 314.214 19.4111C314.058 19.4404 313.916 19.4941 313.789 19.5723C313.672 19.6406 313.574 19.7383 313.496 19.8652C313.418 19.9824 313.379 20.1289 313.379 20.3047C313.379 20.5 313.442 20.666 313.569 20.8027C313.696 20.9395 313.853 21.0469 314.038 21.125C314.224 21.2031 314.414 21.2617 314.609 21.3008C314.814 21.3301 314.99 21.3447 315.137 21.3447C315.439 21.3447 315.728 21.3057 316.001 21.2275C316.284 21.1396 316.553 20.998 316.807 20.8027Z" fill="black"/>
</svg>
