<svg width="21" height="20" viewBox="0 0 21 20" fill="none" xmlns="http://www.w3.org/2000/svg">
<g clip-path="url(#clip0_10_552)">
<path d="M19.4532 16.9187H0.55458C0.407465 16.9156 0.267411 16.855 0.164463 16.7499C0.061515 16.6447 0.00387433 16.5034 0.00390626 16.3563V3.64393C0.00390626 3.32759 0.249952 3.08154 0.566296 3.08154H19.4415C19.7461 3.08154 20.0039 3.32759 20.0039 3.64393V16.3563C20.0039 16.5054 19.9447 16.6485 19.8392 16.754C19.7337 16.8594 19.6024 16.9187 19.4532 16.9187Z" fill="#FE5022"/>
<path d="M6.86973 12.5601L4.90137 16.9186H19.4532C19.6024 16.9186 19.7454 16.8593 19.8509 16.7539C19.9564 16.6484 20.0156 16.5053 20.0156 16.3562V12.5601H6.86973Z" fill="#4D4D4D"/>
<path d="M4.90137 3.08154L6.86973 7.44007H19.9922V3.63222C19.9893 3.48907 19.932 3.3524 19.8318 3.25008C19.7317 3.14775 19.5963 3.08748 19.4532 3.08154H4.9248H4.90137Z" fill="#378B4E"/>
<path d="M6.98704 7.75629V12.232C6.98704 12.2788 6.98704 12.3257 6.9636 12.3726L6.86987 12.56H19.9923V7.43994H6.88159L6.9636 7.61569C6.98 7.65664 6.98797 7.71219 6.98704 7.75629Z" fill="#F2F2F2"/>
<path d="M4.90139 15.7001H0.566296C0.417141 15.7001 0.274095 15.6408 0.168627 15.5354C0.0631579 15.4299 0.00390625 15.2869 0.00390625 15.1377L0.00390625 16.3562C0.00390625 16.6608 0.249952 16.9186 0.566296 16.9186H4.90139L5.45206 15.7001H4.90139Z" fill="#E5481F"/>
<path d="M19.4532 15.7001H5.44032L4.88965 16.9186H19.4532C19.6024 16.9186 19.7454 16.8593 19.8509 16.7539C19.9563 16.6484 20.0156 16.5054 20.0156 16.3562V15.1377C20.0156 15.2869 19.9563 15.4299 19.8509 15.5354C19.7454 15.6408 19.6024 15.7001 19.4532 15.7001Z" fill="#454545"/>
</g>
<defs>
<clipPath id="clip0_10_552">
<rect width="20" height="20" fill="white" transform="translate(0.00390625)"/>
</clipPath>
</defs>
</svg>
