<svg width="26" height="27" viewBox="0 0 26 27" fill="none" xmlns="http://www.w3.org/2000/svg">
<path d="M13 1.64586C15.648 1.64693 18.2142 2.56862 20.2638 4.25475C22.3134 5.94088 23.7204 8.28776 24.2463 10.8977C24.7722 13.5077 24.3848 16.2203 23.1496 18.5759C21.9144 20.9315 19.9074 22.7852 17.4688 23.8229C14.664 25.0148 11.5034 25.0374 8.68209 23.8857C5.8608 22.734 3.60999 20.5024 2.4248 17.6818C1.23962 14.8611 1.21714 11.6825 2.36232 8.84518C3.5075 6.00787 5.72653 3.74427 8.53125 2.55235C9.94496 1.9507 11.4649 1.64237 13 1.64586ZM13 0.11377C5.82055 0.11377 0 5.96738 0 13.1876C0 20.4079 5.82055 26.2615 13 26.2615C20.1795 26.2615 26 20.4079 26 13.1876C26 5.96738 20.1795 0.11377 13 0.11377Z" fill="white"/>
<path d="M16.793 20.2286C16.0379 20.1775 14.9735 19.9156 13.9345 19.5417C10.2711 18.2231 6.69666 14.71 5.93697 9.79609C5.80189 8.92127 5.94408 8.12203 6.60322 7.4714C6.82412 7.25384 7.02064 7.01177 7.23646 6.78911C8.04896 5.94799 9.23623 5.92654 10.0777 6.73446C10.3443 6.98981 10.6154 7.24159 10.8754 7.50511C11.2315 7.8582 11.4376 8.33629 11.4506 8.83899C11.4636 9.34169 11.2824 9.82989 10.945 10.2011C10.7419 10.4278 10.5286 10.6433 10.3143 10.8583C10.0802 11.0933 9.78924 11.2281 9.47693 11.3261C9.0915 11.4477 9.0199 11.6101 9.1951 11.9803C10.3021 14.3122 12.035 15.9912 14.3936 17.0173C14.7089 17.1542 14.8547 17.0924 14.9816 16.7778C15.2599 16.0879 15.7703 15.5848 16.3568 15.1783C17.0205 14.7187 17.9711 14.8208 18.5998 15.3642C18.9444 15.6621 19.2738 15.9774 19.5865 16.309C19.9229 16.671 20.1099 17.1482 20.1094 17.6437C20.1089 18.1392 19.9211 18.616 19.5839 18.9774C19.4859 19.0847 19.3849 19.1893 19.2909 19.2997C18.7252 19.961 18.0077 20.2705 16.793 20.2286Z" fill="white"/>
</svg>
