<svg width="49" height="48" viewBox="0 0 49 48" fill="none" xmlns="http://www.w3.org/2000/svg">
<circle cx="24.0039" cy="24" r="23.5" stroke="#333333" stroke-opacity="0.15"/>
<path fill-rule="evenodd" clip-rule="evenodd" d="M15.5983 22.9989C20.2627 20.9667 23.3729 19.627 24.9291 18.9797C29.3725 17.1316 30.2958 16.8106 30.8976 16.7999C31.03 16.7976 31.3259 16.8304 31.5176 16.9859C31.6794 17.1173 31.7241 17.2947 31.7453 17.4193C31.7666 17.5438 31.7932 17.8275 31.7721 18.0491C31.5313 20.579 30.4894 26.7187 29.9593 29.5523C29.735 30.7513 29.2935 31.1534 28.8659 31.1927C27.9368 31.2782 27.2312 30.5786 26.3312 29.9887C24.923 29.0656 24.1275 28.491 22.7606 27.5902C21.1809 26.5492 22.2049 25.977 23.1052 25.042C23.3408 24.7973 27.4347 21.0736 27.5139 20.7358C27.5239 20.6936 27.533 20.5361 27.4394 20.4529C27.3459 20.3698 27.2078 20.3983 27.1082 20.4208C26.967 20.4529 24.7174 21.9398 20.3593 24.8816C19.7208 25.3201 19.1424 25.5337 18.6242 25.5225C18.0529 25.5101 16.9539 25.1995 16.137 24.934C15.1351 24.6082 14.3387 24.436 14.408 23.8829C14.4441 23.5948 14.8409 23.3001 15.5983 22.9989Z" fill="#333333"/>
</svg>
