<svg width="49" height="48" viewBox="0 0 49 48" fill="none" xmlns="http://www.w3.org/2000/svg">
<circle cx="24.0039" cy="24" r="23.5" stroke="#333333" stroke-opacity="0.15"/>
<path d="M23.997 15.6001C28.6272 15.6001 32.39 19.363 32.383 24.0071C32.383 28.6302 28.6202 32.4001 23.99 32.4001C22.4443 32.4001 20.9336 31.9735 19.6257 31.1761L19.3179 30.9873L16.3174 31.7566L17.1427 28.8541L16.9329 28.5253C16.0586 27.1755 15.604 25.6018 15.604 23.9931C15.604 19.37 19.3669 15.6001 23.997 15.6001ZM28.295 25.852C28.3239 25.725 28.2546 25.5981 28.1218 25.5461L26.2921 24.6976C26.1767 24.6399 26.0381 24.6745 25.9573 24.7784L25.2416 25.7077C25.1839 25.777 25.0915 25.8058 25.0107 25.777C24.5143 25.6038 22.8693 24.9112 21.9631 23.1738C21.9227 23.0988 21.9342 23.0064 21.9862 22.9429L22.6731 22.1522C22.7423 22.0656 22.7654 21.9559 22.7192 21.8578L21.9342 20.0165C21.8938 19.9184 21.8015 19.8491 21.6918 19.8433L21.1492 19.8145C20.9819 19.8087 20.8145 19.8664 20.6875 19.9761C20.422 20.2012 20.0064 20.6457 19.8736 21.2055C19.6831 22.0656 19.9833 23.1161 20.751 24.1608C21.5244 25.2056 22.9559 26.8852 25.4898 27.6009C26.3094 27.8376 26.9501 27.6818 27.4465 27.3643C27.839 27.1161 28.1103 26.7121 28.2084 26.2561L28.295 25.852Z" fill="#333333"/>
</svg>
