<svg width="34" height="34" viewBox="0 0 34 34" fill="none" xmlns="http://www.w3.org/2000/svg">
<g clip-path="url(#clip0_630_4055)">
<path d="M24.376 12.4569C23.8235 11.9037 22.9254 11.9037 22.3729 12.4569L16.2912 18.5379L13.7511 15.9986C13.1986 15.4454 12.3004 15.4454 11.7479 15.9986C11.1947 16.5518 11.1947 17.4485 11.7479 18.0017L15.2896 21.5435C15.5658 21.8204 15.9285 21.9584 16.2912 21.9584C16.6538 21.9584 17.0165 21.8204 17.2928 21.5435L24.376 14.4601C24.9294 13.9069 24.9294 13.0101 24.376 12.4569Z" fill="#29B247"/>
<path d="M32.5834 15.5833C31.8014 15.5833 31.1666 16.218 31.1666 17C31.1666 24.8115 24.8115 31.1666 17 31.1666C9.1885 31.1666 2.83334 24.8115 2.83334 17C2.83334 9.1885 9.1885 2.83334 17 2.83334C20.8031 2.83334 24.3731 4.31941 27.0533 7.01816C27.6038 7.57421 28.5012 7.57704 29.0566 7.02525C29.6118 6.47416 29.6147 5.57741 29.0635 5.02209C25.8478 1.78359 21.5631 0 17 0C7.62591 0 0 7.62591 0 17C0 26.3741 7.62591 34 17 34C26.3741 34 34 26.3741 34 17C34 16.218 33.3654 15.5833 32.5834 15.5833Z" fill="#29B247"/>
</g>
<defs>
<clipPath id="clip0_630_4055">
<rect width="34" height="34" fill="white"/>
</clipPath>
</defs>
</svg>
