<svg width="80" height="80" viewBox="0 0 80 80" fill="none" xmlns="http://www.w3.org/2000/svg">
<circle cx="40" cy="40" r="38.5" stroke="#FF4646" stroke-width="3"/>
<path d="M39.9996 37.32H39.9998C41.0351 37.32 42.0472 37.013 42.9081 36.4378C43.7689 35.8626 44.4399 35.045 44.8361 34.0885C45.2323 33.132 45.336 32.0794 45.134 31.064C44.932 30.0486 44.4334 29.1158 43.7013 28.3837C42.9692 27.6516 42.0365 27.1531 41.0211 26.9511C40.0056 26.7491 38.9531 26.8528 37.9965 27.249C37.04 27.6452 36.2225 28.3161 35.6473 29.177C35.0721 30.0378 34.765 31.0499 34.765 32.0853L34.765 32.0854C34.7665 33.4733 35.3185 34.8038 36.2999 35.7852C37.2812 36.7666 38.6118 37.3185 39.9996 37.32ZM39.9999 28.5181C40.7055 28.5181 41.3952 28.7273 41.9819 29.1193C42.5686 29.5114 43.0258 30.0686 43.2959 30.7205C43.5659 31.3724 43.6365 32.0897 43.4988 32.7818C43.3611 33.4738 43.0213 34.1095 42.5223 34.6084C42.0234 35.1074 41.3876 35.4471 40.6956 35.5847C40.0035 35.7223 39.2862 35.6516 38.6343 35.3816C37.9824 35.1115 37.4253 34.6541 37.0333 34.0674C36.6413 33.4807 36.4322 32.7909 36.4322 32.0854C36.4334 31.1396 36.8097 30.2329 37.4785 29.5641C38.1473 28.8954 39.0541 28.5192 39.9999 28.5181Z" fill="#333333" stroke="#333333" stroke-width="0.3"/>
<path d="M58.171 53.7735C58.3412 54.2633 58.3933 54.7866 58.323 55.3006C58.2515 55.8232 58.0554 56.3211 57.7514 56.7522C57.4473 57.1833 57.0441 57.535 56.5758 57.7778C56.1074 58.0205 55.5876 58.1472 55.0601 58.1472H24.9397H24.9389C24.8305 58.1465 24.7223 58.14 24.6146 58.1276C24.5434 58.1205 24.474 58.1098 24.407 58.0984C24.4014 58.0976 24.3958 58.0969 24.3868 58.0959C24.3781 58.0948 24.3666 58.0934 24.3537 58.0912L58.171 53.7735ZM58.171 53.7735V53.7724L58.1623 53.748L55.4248 46.0625L54.2896 42.8754L54.2896 42.8751C54.0606 42.2354 53.6398 41.6819 53.0845 41.2903C52.5293 40.8987 51.8667 40.688 51.1872 40.687H51.187H47.2546C49.024 37.4348 49.93 34.4432 49.93 31.7854C49.93 29.1518 48.8838 26.6261 47.0215 24.7638C45.1593 22.9016 42.6335 21.8554 39.9999 21.8554C37.3663 21.8554 34.8405 22.9016 32.9783 24.7638C31.116 26.6261 30.0698 29.1518 30.0698 31.7854C30.0698 34.5087 30.9439 37.499 32.6543 40.687H28.8136H28.8134C28.1339 40.688 27.4713 40.8987 26.916 41.2903C26.3608 41.6819 25.9399 42.2354 25.711 42.8751L25.7109 42.8753L21.8376 53.7474C21.8376 53.7474 21.8375 53.7475 21.8375 53.7476C21.6769 54.196 21.6158 54.674 21.6583 55.1485C21.7008 55.623 21.8461 56.0825 22.084 56.4953C22.3219 56.9081 22.6467 57.2641 23.0359 57.5388C23.4216 57.811 23.8613 57.9968 24.3252 58.0837C24.3325 58.0864 24.342 58.0892 24.3532 58.0911L58.171 53.7735ZM39.4188 49.7251L39.4165 49.7228C37.2139 47.49 35.2682 45.0177 33.6155 42.3522H28.8139C28.4785 42.353 28.1515 42.4571 27.8776 42.6505C27.6036 42.8439 27.3959 43.1171 27.2829 43.4329L27.2823 43.4346L27.2771 43.4487L36.1276 52.1677L45.6566 48.714L53.5769 45.8433L52.7184 43.4329L39.4188 49.7251ZM39.4188 49.7251C39.5767 49.8784 39.7889 49.9632 40.009 49.9607C40.2291 49.9583 40.4393 49.869 40.5938 49.7122L40.5958 49.7102M39.4188 49.7251L40.5958 49.7102M40.5958 49.7102C42.7355 47.4557 44.6414 44.9905 46.2845 42.3522M40.5958 49.7102L46.2845 42.3522M46.2845 42.3522H51.186C51.5216 42.3527 51.8489 42.4567 52.1232 42.6501C52.3974 42.8435 52.6053 43.1168 52.7184 43.4327L46.2845 42.3522ZM23.6111 55.7909L23.6102 55.7897C23.4588 55.5777 23.3612 55.332 23.3259 55.0739C23.2907 54.8158 23.3187 54.553 23.4077 54.3082L23.408 54.3073L26.6591 45.1805L34.3905 52.7973L24.4456 56.4018C24.108 56.296 23.8144 56.0814 23.6111 55.7909ZM56.3892 55.7896L56.3881 55.7912C56.2393 56.0049 56.0408 56.1793 55.8096 56.2992C55.5783 56.419 55.3214 56.4808 55.061 56.4792H55.0601H50.5387L47.1222 49.9566L54.1365 47.4142L56.5918 54.3077L56.5921 54.3086C56.6811 54.5534 56.7091 54.8161 56.6738 55.0742C56.6384 55.3322 56.5407 55.5778 56.3892 55.7896ZM55.8786 56.4323C55.6258 56.5634 55.3448 56.631 55.0601 56.6292L56.5112 55.8769C56.3485 56.1106 56.1314 56.3013 55.8786 56.4323ZM39.9999 23.5206C42.1906 23.5231 44.2908 24.3944 45.8399 25.9435C47.389 27.4926 48.2604 29.5929 48.2628 31.7837C48.2627 34.4563 47.2074 37.5859 45.1048 41.0893C43.6176 43.5215 41.9046 45.808 39.9886 47.9187C38.0258 45.8295 36.2859 43.5414 34.7972 41.0914C32.7607 37.6718 31.737 34.541 31.737 31.7837C31.7394 29.5929 32.6108 27.4926 34.1599 25.9435C35.7089 24.3944 37.8092 23.5231 39.9999 23.5206ZM45.5407 50.5297L48.6571 56.4792H29.1251L45.5407 50.5297Z" fill="#333333" stroke="#333333" stroke-width="0.3"/>
</svg>
