<svg width="80" height="80" viewBox="0 0 80 80" fill="none" xmlns="http://www.w3.org/2000/svg">
<circle cx="40" cy="40" r="38.5" stroke="#FF4646" stroke-width="3"/>
<mask id="path-2-outside-1_10_652" maskUnits="userSpaceOnUse" x="23.1875" y="19.0625" width="33" height="42" fill="black">
<rect fill="white" x="23.1875" y="19.0625" width="33" height="42"/>
<path d="M54.4375 20.0625H29C28.6353 20.0625 28.2856 20.2074 28.0277 20.4652C27.7699 20.7231 27.625 21.0728 27.625 21.4375V23.5H25.5625C25.1978 23.5 24.8481 23.6449 24.5902 23.9027C24.3324 24.1606 24.1875 24.5103 24.1875 24.875V56.5C24.1875 56.8647 24.3324 57.2144 24.5902 57.4723C24.8481 57.7301 25.1978 57.875 25.5625 57.875H40V59.25C40 59.3777 40.0356 59.5028 40.1027 59.6114C40.1698 59.72 40.2658 59.8078 40.38 59.8649C40.4942 59.922 40.6221 59.9462 40.7492 59.9347C40.8764 59.9233 40.9979 59.8766 41.1 59.8L43.4375 58.0469L45.775 59.8C45.8771 59.8766 45.9986 59.9233 46.1258 59.9347C46.2529 59.9462 46.3808 59.922 46.495 59.8649C46.6092 59.8078 46.7052 59.72 46.7723 59.6114C46.8394 59.5028 46.875 59.3777 46.875 59.25V57.875H51C51.3647 57.875 51.7144 57.7301 51.9723 57.4723C52.2301 57.2144 52.375 56.8647 52.375 56.5V54.4375H54.4375C54.8022 54.4375 55.1519 54.2926 55.4098 54.0348C55.6676 53.7769 55.8125 53.4272 55.8125 53.0625V21.4375C55.8125 21.0728 55.6676 20.7231 55.4098 20.4652C55.1519 20.2074 54.8022 20.0625 54.4375 20.0625ZM40.6016 48.7127L40.3307 47.931L41.0141 47.4497C41.1396 47.3616 41.232 47.2341 41.2767 47.0874L41.5173 46.2975L42.3471 46.3099C42.4985 46.3053 42.6454 46.2576 42.7706 46.1724L43.4375 45.6719L44.1044 46.1724C44.2277 46.2614 44.3758 46.3095 44.5279 46.3099L45.3577 46.2975L45.5983 47.0874C45.643 47.2341 45.7354 47.3616 45.8609 47.4497L46.5443 47.931L46.2734 48.7127C46.223 48.8583 46.223 49.0167 46.2734 49.1623L46.5443 49.944L45.8609 50.4253C45.735 50.5135 45.6424 50.6416 45.5983 50.7889L45.3577 51.5775L44.5279 51.5651C44.3749 51.5596 44.2249 51.6083 44.1044 51.7026L43.4375 52.2031L42.7706 51.7026C42.7084 51.6562 42.6386 51.6209 42.5644 51.5981C42.5584 51.5985 42.5525 51.5985 42.5465 51.5981C42.4843 51.5789 42.4198 51.5685 42.3547 51.5672H42.3437L41.5139 51.5796L41.2733 50.791C41.2291 50.6437 41.1366 50.5155 41.0106 50.4273L40.3273 49.9461L40.5981 49.1644C40.6501 49.0185 40.6513 48.8593 40.6016 48.7127ZM45.5 57.875L43.85 56.6375C43.731 56.5482 43.5863 56.5 43.4375 56.5C43.2887 56.5 43.144 56.5482 43.025 56.6375L41.375 57.875V52.9539L42.1312 52.9422L43.025 53.6118C43.144 53.7011 43.2887 53.7493 43.4375 53.7493C43.5863 53.7493 43.731 53.7011 43.85 53.6118L44.7438 52.9422L45.5 52.9539V57.875ZM51 56.5H46.875V51.3919L47.7577 50.7731C47.88 50.6874 47.971 50.5642 48.017 50.4222C48.063 50.2802 48.0615 50.1271 48.0128 49.9859L47.6505 48.9375L48.0128 47.8904C48.0615 47.7493 48.063 47.5962 48.017 47.4542C47.971 47.3122 47.88 47.189 47.7577 47.1033L46.8448 46.4625L46.5223 45.4038C46.4794 45.2627 46.3923 45.1392 46.2738 45.0514C46.1554 44.9636 46.0118 44.9163 45.8644 44.9163H45.8541L44.7417 44.9335L43.85 44.2625C43.731 44.1732 43.5863 44.125 43.4375 44.125C43.2887 44.125 43.144 44.1732 43.025 44.2625L42.1312 44.9321L41.0189 44.9149H41.0106C40.8632 44.9149 40.7196 44.9623 40.6012 45.05C40.4827 45.1378 40.3956 45.2613 40.3527 45.4024L40.0302 46.4611L39.1172 47.1026C38.995 47.1883 38.904 47.3115 38.858 47.4535C38.812 47.5955 38.8135 47.7486 38.8622 47.8898L39.2245 48.9375L38.8622 49.9846C38.8135 50.1257 38.812 50.2788 38.858 50.4208C38.904 50.5628 38.995 50.686 39.1172 50.7717L40 51.3905V56.5H25.5625V24.875H51V56.5ZM54.4375 53.0625H52.375V24.875C52.375 24.5103 52.2301 24.1606 51.9723 23.9027C51.7144 23.6449 51.3647 23.5 51 23.5H29V21.4375H54.4375V53.0625Z"/>
</mask>
<path d="M54.4375 20.0625H29C28.6353 20.0625 28.2856 20.2074 28.0277 20.4652C27.7699 20.7231 27.625 21.0728 27.625 21.4375V23.5H25.5625C25.1978 23.5 24.8481 23.6449 24.5902 23.9027C24.3324 24.1606 24.1875 24.5103 24.1875 24.875V56.5C24.1875 56.8647 24.3324 57.2144 24.5902 57.4723C24.8481 57.7301 25.1978 57.875 25.5625 57.875H40V59.25C40 59.3777 40.0356 59.5028 40.1027 59.6114C40.1698 59.72 40.2658 59.8078 40.38 59.8649C40.4942 59.922 40.6221 59.9462 40.7492 59.9347C40.8764 59.9233 40.9979 59.8766 41.1 59.8L43.4375 58.0469L45.775 59.8C45.8771 59.8766 45.9986 59.9233 46.1258 59.9347C46.2529 59.9462 46.3808 59.922 46.495 59.8649C46.6092 59.8078 46.7052 59.72 46.7723 59.6114C46.8394 59.5028 46.875 59.3777 46.875 59.25V57.875H51C51.3647 57.875 51.7144 57.7301 51.9723 57.4723C52.2301 57.2144 52.375 56.8647 52.375 56.5V54.4375H54.4375C54.8022 54.4375 55.1519 54.2926 55.4098 54.0348C55.6676 53.7769 55.8125 53.4272 55.8125 53.0625V21.4375C55.8125 21.0728 55.6676 20.7231 55.4098 20.4652C55.1519 20.2074 54.8022 20.0625 54.4375 20.0625ZM40.6016 48.7127L40.3307 47.931L41.0141 47.4497C41.1396 47.3616 41.232 47.2341 41.2767 47.0874L41.5173 46.2975L42.3471 46.3099C42.4985 46.3053 42.6454 46.2576 42.7706 46.1724L43.4375 45.6719L44.1044 46.1724C44.2277 46.2614 44.3758 46.3095 44.5279 46.3099L45.3577 46.2975L45.5983 47.0874C45.643 47.2341 45.7354 47.3616 45.8609 47.4497L46.5443 47.931L46.2734 48.7127C46.223 48.8583 46.223 49.0167 46.2734 49.1623L46.5443 49.944L45.8609 50.4253C45.735 50.5135 45.6424 50.6416 45.5983 50.7889L45.3577 51.5775L44.5279 51.5651C44.3749 51.5596 44.2249 51.6083 44.1044 51.7026L43.4375 52.2031L42.7706 51.7026C42.7084 51.6562 42.6386 51.6209 42.5644 51.5981C42.5584 51.5985 42.5525 51.5985 42.5465 51.5981C42.4843 51.5789 42.4198 51.5685 42.3547 51.5672H42.3437L41.5139 51.5796L41.2733 50.791C41.2291 50.6437 41.1366 50.5155 41.0106 50.4273L40.3273 49.9461L40.5981 49.1644C40.6501 49.0185 40.6513 48.8593 40.6016 48.7127ZM45.5 57.875L43.85 56.6375C43.731 56.5482 43.5863 56.5 43.4375 56.5C43.2887 56.5 43.144 56.5482 43.025 56.6375L41.375 57.875V52.9539L42.1312 52.9422L43.025 53.6118C43.144 53.7011 43.2887 53.7493 43.4375 53.7493C43.5863 53.7493 43.731 53.7011 43.85 53.6118L44.7438 52.9422L45.5 52.9539V57.875ZM51 56.5H46.875V51.3919L47.7577 50.7731C47.88 50.6874 47.971 50.5642 48.017 50.4222C48.063 50.2802 48.0615 50.1271 48.0128 49.9859L47.6505 48.9375L48.0128 47.8904C48.0615 47.7493 48.063 47.5962 48.017 47.4542C47.971 47.3122 47.88 47.189 47.7577 47.1033L46.8448 46.4625L46.5223 45.4038C46.4794 45.2627 46.3923 45.1392 46.2738 45.0514C46.1554 44.9636 46.0118 44.9163 45.8644 44.9163H45.8541L44.7417 44.9335L43.85 44.2625C43.731 44.1732 43.5863 44.125 43.4375 44.125C43.2887 44.125 43.144 44.1732 43.025 44.2625L42.1312 44.9321L41.0189 44.9149H41.0106C40.8632 44.9149 40.7196 44.9623 40.6012 45.05C40.4827 45.1378 40.3956 45.2613 40.3527 45.4024L40.0302 46.4611L39.1172 47.1026C38.995 47.1883 38.904 47.3115 38.858 47.4535C38.812 47.5955 38.8135 47.7486 38.8622 47.8898L39.2245 48.9375L38.8622 49.9846C38.8135 50.1257 38.812 50.2788 38.858 50.4208C38.904 50.5628 38.995 50.686 39.1172 50.7717L40 51.3905V56.5H25.5625V24.875H51V56.5ZM54.4375 53.0625H52.375V24.875C52.375 24.5103 52.2301 24.1606 51.9723 23.9027C51.7144 23.6449 51.3647 23.5 51 23.5H29V21.4375H54.4375V53.0625Z" fill="#333333"/>
<path d="M54.4375 20.0625H29C28.6353 20.0625 28.2856 20.2074 28.0277 20.4652C27.7699 20.7231 27.625 21.0728 27.625 21.4375V23.5H25.5625C25.1978 23.5 24.8481 23.6449 24.5902 23.9027C24.3324 24.1606 24.1875 24.5103 24.1875 24.875V56.5C24.1875 56.8647 24.3324 57.2144 24.5902 57.4723C24.8481 57.7301 25.1978 57.875 25.5625 57.875H40V59.25C40 59.3777 40.0356 59.5028 40.1027 59.6114C40.1698 59.72 40.2658 59.8078 40.38 59.8649C40.4942 59.922 40.6221 59.9462 40.7492 59.9347C40.8764 59.9233 40.9979 59.8766 41.1 59.8L43.4375 58.0469L45.775 59.8C45.8771 59.8766 45.9986 59.9233 46.1258 59.9347C46.2529 59.9462 46.3808 59.922 46.495 59.8649C46.6092 59.8078 46.7052 59.72 46.7723 59.6114C46.8394 59.5028 46.875 59.3777 46.875 59.25V57.875H51C51.3647 57.875 51.7144 57.7301 51.9723 57.4723C52.2301 57.2144 52.375 56.8647 52.375 56.5V54.4375H54.4375C54.8022 54.4375 55.1519 54.2926 55.4098 54.0348C55.6676 53.7769 55.8125 53.4272 55.8125 53.0625V21.4375C55.8125 21.0728 55.6676 20.7231 55.4098 20.4652C55.1519 20.2074 54.8022 20.0625 54.4375 20.0625ZM40.6016 48.7127L40.3307 47.931L41.0141 47.4497C41.1396 47.3616 41.232 47.2341 41.2767 47.0874L41.5173 46.2975L42.3471 46.3099C42.4985 46.3053 42.6454 46.2576 42.7706 46.1724L43.4375 45.6719L44.1044 46.1724C44.2277 46.2614 44.3758 46.3095 44.5279 46.3099L45.3577 46.2975L45.5983 47.0874C45.643 47.2341 45.7354 47.3616 45.8609 47.4497L46.5443 47.931L46.2734 48.7127C46.223 48.8583 46.223 49.0167 46.2734 49.1623L46.5443 49.944L45.8609 50.4253C45.735 50.5135 45.6424 50.6416 45.5983 50.7889L45.3577 51.5775L44.5279 51.5651C44.3749 51.5596 44.2249 51.6083 44.1044 51.7026L43.4375 52.2031L42.7706 51.7026C42.7084 51.6562 42.6386 51.6209 42.5644 51.5981C42.5584 51.5985 42.5525 51.5985 42.5465 51.5981C42.4843 51.5789 42.4198 51.5685 42.3547 51.5672H42.3437L41.5139 51.5796L41.2733 50.791C41.2291 50.6437 41.1366 50.5155 41.0106 50.4273L40.3273 49.9461L40.5981 49.1644C40.6501 49.0185 40.6513 48.8593 40.6016 48.7127ZM45.5 57.875L43.85 56.6375C43.731 56.5482 43.5863 56.5 43.4375 56.5C43.2887 56.5 43.144 56.5482 43.025 56.6375L41.375 57.875V52.9539L42.1312 52.9422L43.025 53.6118C43.144 53.7011 43.2887 53.7493 43.4375 53.7493C43.5863 53.7493 43.731 53.7011 43.85 53.6118L44.7438 52.9422L45.5 52.9539V57.875ZM51 56.5H46.875V51.3919L47.7577 50.7731C47.88 50.6874 47.971 50.5642 48.017 50.4222C48.063 50.2802 48.0615 50.1271 48.0128 49.9859L47.6505 48.9375L48.0128 47.8904C48.0615 47.7493 48.063 47.5962 48.017 47.4542C47.971 47.3122 47.88 47.189 47.7577 47.1033L46.8448 46.4625L46.5223 45.4038C46.4794 45.2627 46.3923 45.1392 46.2738 45.0514C46.1554 44.9636 46.0118 44.9163 45.8644 44.9163H45.8541L44.7417 44.9335L43.85 44.2625C43.731 44.1732 43.5863 44.125 43.4375 44.125C43.2887 44.125 43.144 44.1732 43.025 44.2625L42.1312 44.9321L41.0189 44.9149H41.0106C40.8632 44.9149 40.7196 44.9623 40.6012 45.05C40.4827 45.1378 40.3956 45.2613 40.3527 45.4024L40.0302 46.4611L39.1172 47.1026C38.995 47.1883 38.904 47.3115 38.858 47.4535C38.812 47.5955 38.8135 47.7486 38.8622 47.8898L39.2245 48.9375L38.8622 49.9846C38.8135 50.1257 38.812 50.2788 38.858 50.4208C38.904 50.5628 38.995 50.686 39.1172 50.7717L40 51.3905V56.5H25.5625V24.875H51V56.5ZM54.4375 53.0625H52.375V24.875C52.375 24.5103 52.2301 24.1606 51.9723 23.9027C51.7144 23.6449 51.3647 23.5 51 23.5H29V21.4375H54.4375V53.0625Z" stroke="#333333" stroke-width="0.6" mask="url(#path-2-outside-1_10_652)"/>
<mask id="path-3-outside-2_10_652" maskUnits="userSpaceOnUse" x="27.3125" y="26.625" width="22" height="25" fill="black">
<rect fill="white" x="27.3125" y="26.625" width="22" height="25"/>
<path d="M33.8125 29H42.75C42.9323 29 43.1072 28.9276 43.2361 28.7986C43.3651 28.6697 43.4375 28.4948 43.4375 28.3125C43.4375 28.1302 43.3651 27.9553 43.2361 27.8264C43.1072 27.6974 42.9323 27.625 42.75 27.625H33.8125C33.6302 27.625 33.4553 27.6974 33.3264 27.8264C33.1974 27.9553 33.125 28.1302 33.125 28.3125C33.125 28.4948 33.1974 28.6697 33.3264 28.7986C33.4553 28.9276 33.6302 29 33.8125 29ZM47.5625 31.0625H29C28.8177 31.0625 28.6428 31.1349 28.5139 31.2639C28.3849 31.3928 28.3125 31.5677 28.3125 31.75C28.3125 31.9323 28.3849 32.1072 28.5139 32.2361C28.6428 32.3651 28.8177 32.4375 29 32.4375H47.5625C47.7448 32.4375 47.9197 32.3651 48.0486 32.2361C48.1776 32.1072 48.25 31.9323 48.25 31.75C48.25 31.5677 48.1776 31.3928 48.0486 31.2639C47.9197 31.1349 47.7448 31.0625 47.5625 31.0625ZM29 35.875H41.375C41.5573 35.875 41.7322 35.8026 41.8611 35.6736C41.9901 35.5447 42.0625 35.3698 42.0625 35.1875C42.0625 35.0052 41.9901 34.8303 41.8611 34.7014C41.7322 34.5724 41.5573 34.5 41.375 34.5H29C28.8177 34.5 28.6428 34.5724 28.5139 34.7014C28.3849 34.8303 28.3125 35.0052 28.3125 35.1875C28.3125 35.3698 28.3849 35.5447 28.5139 35.6736C28.6428 35.8026 28.8177 35.875 29 35.875ZM29 39.3125H35.1875C35.3698 39.3125 35.5447 39.2401 35.6736 39.1111C35.8026 38.9822 35.875 38.8073 35.875 38.625C35.875 38.4427 35.8026 38.2678 35.6736 38.1389C35.5447 38.0099 35.3698 37.9375 35.1875 37.9375H29C28.8177 37.9375 28.6428 38.0099 28.5139 38.1389C28.3849 38.2678 28.3125 38.4427 28.3125 38.625C28.3125 38.8073 28.3849 38.9822 28.5139 39.1111C28.6428 39.2401 28.8177 39.3125 29 39.3125ZM38.625 41.375H29C28.8177 41.375 28.6428 41.4474 28.5139 41.5764C28.3849 41.7053 28.3125 41.8802 28.3125 42.0625C28.3125 42.2448 28.3849 42.4197 28.5139 42.5486C28.6428 42.6776 28.8177 42.75 29 42.75H38.625C38.8073 42.75 38.9822 42.6776 39.1111 42.5486C39.2401 42.4197 39.3125 42.2448 39.3125 42.0625C39.3125 41.8802 39.2401 41.7053 39.1111 41.5764C38.9822 41.4474 38.8073 41.375 38.625 41.375ZM47.5625 37.9375H37.9375C37.7552 37.9375 37.5803 38.0099 37.4514 38.1389C37.3224 38.2678 37.25 38.4427 37.25 38.625C37.25 38.8073 37.3224 38.9822 37.4514 39.1111C37.5803 39.2401 37.7552 39.3125 37.9375 39.3125H47.5625C47.7448 39.3125 47.9197 39.2401 48.0486 39.1111C48.1776 38.9822 48.25 38.8073 48.25 38.625C48.25 38.4427 48.1776 38.2678 48.0486 38.1389C47.9197 38.0099 47.7448 37.9375 47.5625 37.9375ZM47.5625 34.5H44.125C43.9427 34.5 43.7678 34.5724 43.6389 34.7014C43.5099 34.8303 43.4375 35.0052 43.4375 35.1875C43.4375 35.3698 43.5099 35.5447 43.6389 35.6736C43.7678 35.8026 43.9427 35.875 44.125 35.875H47.5625C47.7448 35.875 47.9197 35.8026 48.0486 35.6736C48.1776 35.5447 48.25 35.3698 48.25 35.1875C48.25 35.0052 48.1776 34.8303 48.0486 34.7014C47.9197 34.5724 47.7448 34.5 47.5625 34.5ZM47.5625 41.375H41.375C41.1927 41.375 41.0178 41.4474 40.8889 41.5764C40.7599 41.7053 40.6875 41.8802 40.6875 42.0625C40.6875 42.2448 40.7599 42.4197 40.8889 42.5486C41.0178 42.6776 41.1927 42.75 41.375 42.75H47.5625C47.7448 42.75 47.9197 42.6776 48.0486 42.5486C48.1776 42.4197 48.25 42.2448 48.25 42.0625C48.25 41.8802 48.1776 41.7053 48.0486 41.5764C47.9197 41.4474 47.7448 41.375 47.5625 41.375ZM36.1266 47.0304L33.6172 49.0853L33.3354 47.3934C33.2938 47.1442 33.1844 46.9113 33.0191 46.7202C32.8539 46.5291 32.6392 46.3873 32.3986 46.3102C32.158 46.2331 31.9009 46.2238 31.6553 46.2833C31.4098 46.3428 31.1854 46.4688 31.0068 46.6474L28.5139 49.1437C28.3887 49.2734 28.3194 49.4471 28.321 49.6273C28.3225 49.8076 28.3948 49.98 28.5223 50.1075C28.6498 50.235 28.8222 50.3073 29.0025 50.3088C29.1827 50.3104 29.3564 50.2411 29.4861 50.1159L31.9789 47.623L32.2608 49.3143C32.3141 49.6348 32.4792 49.9262 32.7269 50.1366C32.9746 50.3471 33.2888 50.463 33.6138 50.4638C33.9221 50.4616 34.2212 50.3587 34.4656 50.1709L36.9984 48.0981C37.0683 48.0408 37.1262 47.9704 37.1688 47.8908C37.2115 47.8111 37.238 47.7239 37.247 47.634C37.2559 47.5441 37.2471 47.4533 37.2209 47.3669C37.1948 47.2804 37.1519 47.1999 37.0946 47.1301C37.0374 47.0602 36.9669 47.0023 36.8873 46.9596C36.8077 46.917 36.7204 46.8904 36.6306 46.8815C36.5407 46.8725 36.4499 46.8814 36.3634 46.9075C36.277 46.9337 36.1965 46.9766 36.1266 47.0338V47.0304Z"/>
</mask>
<path d="M33.8125 29H42.75C42.9323 29 43.1072 28.9276 43.2361 28.7986C43.3651 28.6697 43.4375 28.4948 43.4375 28.3125C43.4375 28.1302 43.3651 27.9553 43.2361 27.8264C43.1072 27.6974 42.9323 27.625 42.75 27.625H33.8125C33.6302 27.625 33.4553 27.6974 33.3264 27.8264C33.1974 27.9553 33.125 28.1302 33.125 28.3125C33.125 28.4948 33.1974 28.6697 33.3264 28.7986C33.4553 28.9276 33.6302 29 33.8125 29ZM47.5625 31.0625H29C28.8177 31.0625 28.6428 31.1349 28.5139 31.2639C28.3849 31.3928 28.3125 31.5677 28.3125 31.75C28.3125 31.9323 28.3849 32.1072 28.5139 32.2361C28.6428 32.3651 28.8177 32.4375 29 32.4375H47.5625C47.7448 32.4375 47.9197 32.3651 48.0486 32.2361C48.1776 32.1072 48.25 31.9323 48.25 31.75C48.25 31.5677 48.1776 31.3928 48.0486 31.2639C47.9197 31.1349 47.7448 31.0625 47.5625 31.0625ZM29 35.875H41.375C41.5573 35.875 41.7322 35.8026 41.8611 35.6736C41.9901 35.5447 42.0625 35.3698 42.0625 35.1875C42.0625 35.0052 41.9901 34.8303 41.8611 34.7014C41.7322 34.5724 41.5573 34.5 41.375 34.5H29C28.8177 34.5 28.6428 34.5724 28.5139 34.7014C28.3849 34.8303 28.3125 35.0052 28.3125 35.1875C28.3125 35.3698 28.3849 35.5447 28.5139 35.6736C28.6428 35.8026 28.8177 35.875 29 35.875ZM29 39.3125H35.1875C35.3698 39.3125 35.5447 39.2401 35.6736 39.1111C35.8026 38.9822 35.875 38.8073 35.875 38.625C35.875 38.4427 35.8026 38.2678 35.6736 38.1389C35.5447 38.0099 35.3698 37.9375 35.1875 37.9375H29C28.8177 37.9375 28.6428 38.0099 28.5139 38.1389C28.3849 38.2678 28.3125 38.4427 28.3125 38.625C28.3125 38.8073 28.3849 38.9822 28.5139 39.1111C28.6428 39.2401 28.8177 39.3125 29 39.3125ZM38.625 41.375H29C28.8177 41.375 28.6428 41.4474 28.5139 41.5764C28.3849 41.7053 28.3125 41.8802 28.3125 42.0625C28.3125 42.2448 28.3849 42.4197 28.5139 42.5486C28.6428 42.6776 28.8177 42.75 29 42.75H38.625C38.8073 42.75 38.9822 42.6776 39.1111 42.5486C39.2401 42.4197 39.3125 42.2448 39.3125 42.0625C39.3125 41.8802 39.2401 41.7053 39.1111 41.5764C38.9822 41.4474 38.8073 41.375 38.625 41.375ZM47.5625 37.9375H37.9375C37.7552 37.9375 37.5803 38.0099 37.4514 38.1389C37.3224 38.2678 37.25 38.4427 37.25 38.625C37.25 38.8073 37.3224 38.9822 37.4514 39.1111C37.5803 39.2401 37.7552 39.3125 37.9375 39.3125H47.5625C47.7448 39.3125 47.9197 39.2401 48.0486 39.1111C48.1776 38.9822 48.25 38.8073 48.25 38.625C48.25 38.4427 48.1776 38.2678 48.0486 38.1389C47.9197 38.0099 47.7448 37.9375 47.5625 37.9375ZM47.5625 34.5H44.125C43.9427 34.5 43.7678 34.5724 43.6389 34.7014C43.5099 34.8303 43.4375 35.0052 43.4375 35.1875C43.4375 35.3698 43.5099 35.5447 43.6389 35.6736C43.7678 35.8026 43.9427 35.875 44.125 35.875H47.5625C47.7448 35.875 47.9197 35.8026 48.0486 35.6736C48.1776 35.5447 48.25 35.3698 48.25 35.1875C48.25 35.0052 48.1776 34.8303 48.0486 34.7014C47.9197 34.5724 47.7448 34.5 47.5625 34.5ZM47.5625 41.375H41.375C41.1927 41.375 41.0178 41.4474 40.8889 41.5764C40.7599 41.7053 40.6875 41.8802 40.6875 42.0625C40.6875 42.2448 40.7599 42.4197 40.8889 42.5486C41.0178 42.6776 41.1927 42.75 41.375 42.75H47.5625C47.7448 42.75 47.9197 42.6776 48.0486 42.5486C48.1776 42.4197 48.25 42.2448 48.25 42.0625C48.25 41.8802 48.1776 41.7053 48.0486 41.5764C47.9197 41.4474 47.7448 41.375 47.5625 41.375ZM36.1266 47.0304L33.6172 49.0853L33.3354 47.3934C33.2938 47.1442 33.1844 46.9113 33.0191 46.7202C32.8539 46.5291 32.6392 46.3873 32.3986 46.3102C32.158 46.2331 31.9009 46.2238 31.6553 46.2833C31.4098 46.3428 31.1854 46.4688 31.0068 46.6474L28.5139 49.1437C28.3887 49.2734 28.3194 49.4471 28.321 49.6273C28.3225 49.8076 28.3948 49.98 28.5223 50.1075C28.6498 50.235 28.8222 50.3073 29.0025 50.3088C29.1827 50.3104 29.3564 50.2411 29.4861 50.1159L31.9789 47.623L32.2608 49.3143C32.3141 49.6348 32.4792 49.9262 32.7269 50.1366C32.9746 50.3471 33.2888 50.463 33.6138 50.4638C33.9221 50.4616 34.2212 50.3587 34.4656 50.1709L36.9984 48.0981C37.0683 48.0408 37.1262 47.9704 37.1688 47.8908C37.2115 47.8111 37.238 47.7239 37.247 47.634C37.2559 47.5441 37.2471 47.4533 37.2209 47.3669C37.1948 47.2804 37.1519 47.1999 37.0946 47.1301C37.0374 47.0602 36.9669 47.0023 36.8873 46.9596C36.8077 46.917 36.7204 46.8904 36.6306 46.8815C36.5407 46.8725 36.4499 46.8814 36.3634 46.9075C36.277 46.9337 36.1965 46.9766 36.1266 47.0338V47.0304Z" fill="#333333"/>
<path d="M33.8125 29H42.75C42.9323 29 43.1072 28.9276 43.2361 28.7986C43.3651 28.6697 43.4375 28.4948 43.4375 28.3125C43.4375 28.1302 43.3651 27.9553 43.2361 27.8264C43.1072 27.6974 42.9323 27.625 42.75 27.625H33.8125C33.6302 27.625 33.4553 27.6974 33.3264 27.8264C33.1974 27.9553 33.125 28.1302 33.125 28.3125C33.125 28.4948 33.1974 28.6697 33.3264 28.7986C33.4553 28.9276 33.6302 29 33.8125 29ZM47.5625 31.0625H29C28.8177 31.0625 28.6428 31.1349 28.5139 31.2639C28.3849 31.3928 28.3125 31.5677 28.3125 31.75C28.3125 31.9323 28.3849 32.1072 28.5139 32.2361C28.6428 32.3651 28.8177 32.4375 29 32.4375H47.5625C47.7448 32.4375 47.9197 32.3651 48.0486 32.2361C48.1776 32.1072 48.25 31.9323 48.25 31.75C48.25 31.5677 48.1776 31.3928 48.0486 31.2639C47.9197 31.1349 47.7448 31.0625 47.5625 31.0625ZM29 35.875H41.375C41.5573 35.875 41.7322 35.8026 41.8611 35.6736C41.9901 35.5447 42.0625 35.3698 42.0625 35.1875C42.0625 35.0052 41.9901 34.8303 41.8611 34.7014C41.7322 34.5724 41.5573 34.5 41.375 34.5H29C28.8177 34.5 28.6428 34.5724 28.5139 34.7014C28.3849 34.8303 28.3125 35.0052 28.3125 35.1875C28.3125 35.3698 28.3849 35.5447 28.5139 35.6736C28.6428 35.8026 28.8177 35.875 29 35.875ZM29 39.3125H35.1875C35.3698 39.3125 35.5447 39.2401 35.6736 39.1111C35.8026 38.9822 35.875 38.8073 35.875 38.625C35.875 38.4427 35.8026 38.2678 35.6736 38.1389C35.5447 38.0099 35.3698 37.9375 35.1875 37.9375H29C28.8177 37.9375 28.6428 38.0099 28.5139 38.1389C28.3849 38.2678 28.3125 38.4427 28.3125 38.625C28.3125 38.8073 28.3849 38.9822 28.5139 39.1111C28.6428 39.2401 28.8177 39.3125 29 39.3125ZM38.625 41.375H29C28.8177 41.375 28.6428 41.4474 28.5139 41.5764C28.3849 41.7053 28.3125 41.8802 28.3125 42.0625C28.3125 42.2448 28.3849 42.4197 28.5139 42.5486C28.6428 42.6776 28.8177 42.75 29 42.75H38.625C38.8073 42.75 38.9822 42.6776 39.1111 42.5486C39.2401 42.4197 39.3125 42.2448 39.3125 42.0625C39.3125 41.8802 39.2401 41.7053 39.1111 41.5764C38.9822 41.4474 38.8073 41.375 38.625 41.375ZM47.5625 37.9375H37.9375C37.7552 37.9375 37.5803 38.0099 37.4514 38.1389C37.3224 38.2678 37.25 38.4427 37.25 38.625C37.25 38.8073 37.3224 38.9822 37.4514 39.1111C37.5803 39.2401 37.7552 39.3125 37.9375 39.3125H47.5625C47.7448 39.3125 47.9197 39.2401 48.0486 39.1111C48.1776 38.9822 48.25 38.8073 48.25 38.625C48.25 38.4427 48.1776 38.2678 48.0486 38.1389C47.9197 38.0099 47.7448 37.9375 47.5625 37.9375ZM47.5625 34.5H44.125C43.9427 34.5 43.7678 34.5724 43.6389 34.7014C43.5099 34.8303 43.4375 35.0052 43.4375 35.1875C43.4375 35.3698 43.5099 35.5447 43.6389 35.6736C43.7678 35.8026 43.9427 35.875 44.125 35.875H47.5625C47.7448 35.875 47.9197 35.8026 48.0486 35.6736C48.1776 35.5447 48.25 35.3698 48.25 35.1875C48.25 35.0052 48.1776 34.8303 48.0486 34.7014C47.9197 34.5724 47.7448 34.5 47.5625 34.5ZM47.5625 41.375H41.375C41.1927 41.375 41.0178 41.4474 40.8889 41.5764C40.7599 41.7053 40.6875 41.8802 40.6875 42.0625C40.6875 42.2448 40.7599 42.4197 40.8889 42.5486C41.0178 42.6776 41.1927 42.75 41.375 42.75H47.5625C47.7448 42.75 47.9197 42.6776 48.0486 42.5486C48.1776 42.4197 48.25 42.2448 48.25 42.0625C48.25 41.8802 48.1776 41.7053 48.0486 41.5764C47.9197 41.4474 47.7448 41.375 47.5625 41.375ZM36.1266 47.0304L33.6172 49.0853L33.3354 47.3934C33.2938 47.1442 33.1844 46.9113 33.0191 46.7202C32.8539 46.5291 32.6392 46.3873 32.3986 46.3102C32.158 46.2331 31.9009 46.2238 31.6553 46.2833C31.4098 46.3428 31.1854 46.4688 31.0068 46.6474L28.5139 49.1437C28.3887 49.2734 28.3194 49.4471 28.321 49.6273C28.3225 49.8076 28.3948 49.98 28.5223 50.1075C28.6498 50.235 28.8222 50.3073 29.0025 50.3088C29.1827 50.3104 29.3564 50.2411 29.4861 50.1159L31.9789 47.623L32.2608 49.3143C32.3141 49.6348 32.4792 49.9262 32.7269 50.1366C32.9746 50.3471 33.2888 50.463 33.6138 50.4638C33.9221 50.4616 34.2212 50.3587 34.4656 50.1709L36.9984 48.0981C37.0683 48.0408 37.1262 47.9704 37.1688 47.8908C37.2115 47.8111 37.238 47.7239 37.247 47.634C37.2559 47.5441 37.2471 47.4533 37.2209 47.3669C37.1948 47.2804 37.1519 47.1999 37.0946 47.1301C37.0374 47.0602 36.9669 47.0023 36.8873 46.9596C36.8077 46.917 36.7204 46.8904 36.6306 46.8815C36.5407 46.8725 36.4499 46.8814 36.3634 46.9075C36.277 46.9337 36.1965 46.9766 36.1266 47.0338V47.0304Z" stroke="#333333" stroke-width="0.6" mask="url(#path-3-outside-2_10_652)"/>
</svg>
