<svg width="80" height="80" viewBox="0 0 80 80" fill="none" xmlns="http://www.w3.org/2000/svg">
<circle cx="40" cy="40" r="38.5" stroke="#FF4646" stroke-width="3"/>
<g clip-path="url(#clip0_10_646)">
<path d="M41.2602 46.1651H51.3904C51.6144 46.1651 51.8127 46.0898 51.9555 45.9471C52.0982 45.8044 52.1735 45.606 52.1735 45.382V39.6838C52.1735 39.4597 52.0982 39.2614 51.9555 39.1187C51.8127 38.976 51.6144 38.9007 51.3904 38.9007H41.2602C41.0362 38.9007 40.8379 38.976 40.6952 39.1187C40.5525 39.2614 40.4771 39.4597 40.4771 39.6838V45.382C40.4771 45.606 40.5524 45.8043 40.6951 45.947C40.8378 46.0898 41.0362 46.1651 41.2602 46.1651ZM42.0434 40.4669H50.6073V44.5988H42.0434V40.4669ZM24.1656 37.9343H29.2307C29.4547 37.9343 29.6531 37.859 29.7958 37.7163C29.9385 37.5735 30.0138 37.3752 30.0138 37.1512C30.0138 36.9272 29.9385 36.7288 29.7958 36.5861C29.6531 36.4434 29.4547 36.3681 29.2307 36.3681H24.1656C23.9416 36.3681 23.7432 36.4434 23.6005 36.5861C23.4578 36.7288 23.3825 36.9272 23.3825 37.1512C23.3825 37.3752 23.4578 37.5735 23.6005 37.7163C23.7432 37.859 23.9416 37.9343 24.1656 37.9343ZM31.7632 37.9343H36.8283C37.0523 37.9343 37.2507 37.859 37.3934 37.7163C37.5361 37.5735 37.6114 37.3752 37.6114 37.1512C37.6114 36.9272 37.5361 36.7288 37.3934 36.5861C37.2507 36.4434 37.0523 36.3681 36.8283 36.3681H31.7632C31.5392 36.3681 31.3408 36.4434 31.1981 36.5861C31.0554 36.7288 30.9801 36.9272 30.9801 37.1512C30.9801 37.3752 31.0554 37.5735 31.1981 37.7163C31.3408 37.859 31.5392 37.9343 31.7632 37.9343ZM24.1656 40.4669H32.3963C32.6203 40.4669 32.8187 40.3916 32.9614 40.2488C33.1041 40.1061 33.1794 39.9078 33.1794 39.6838C33.1794 39.4597 33.1041 39.2614 32.9614 39.1187C32.8187 38.976 32.6203 38.9007 32.3963 38.9007H24.1656C23.9416 38.9007 23.7432 38.976 23.6005 39.1187C23.4578 39.2614 23.3825 39.4597 23.3825 39.6838C23.3825 39.9078 23.4578 40.1061 23.6005 40.2488C23.7432 40.3916 23.9416 40.4669 24.1656 40.4669ZM36.8282 38.9006H34.9288C34.7048 38.9006 34.5065 38.9759 34.3638 39.1186C34.221 39.2613 34.1457 39.4597 34.1457 39.6837C34.1457 39.9077 34.221 40.1061 34.3638 40.2488C34.5065 40.3915 34.7048 40.4668 34.9288 40.4668H36.8282C37.0523 40.4668 37.2506 40.3915 37.3933 40.2488C37.536 40.1061 37.6114 39.9077 37.6114 39.6837C37.6114 39.4597 37.536 39.2613 37.3933 39.1186C37.2506 38.9759 37.0523 38.9006 36.8282 38.9006Z" fill="#333333" stroke="#333333" stroke-width="0.3"/>
<path d="M54.2862 55.661L54.2946 55.6619H54.303H54.5562C55.8906 55.6619 57.1024 54.6625 57.2379 53.375L57.2381 53.3732L59.1374 33.0505C59.1374 33.0504 59.1374 33.0504 59.1374 33.0503C59.2042 32.3812 59.005 31.6442 58.5341 31.104C58.0671 30.5053 57.4616 30.1682 56.7247 30.1006L55.3393 29.9327V27.0208C55.3393 25.5451 54.1325 24.3383 52.6568 24.3383H23.5325C23.5325 24.3383 23.5325 24.3383 23.5325 24.3383C22.0568 24.3382 20.85 25.545 20.85 27.0208V47.2812C20.85 48.4537 21.6119 49.4551 22.664 49.8179C22.6879 51.1281 23.6959 52.2461 25.0369 52.3688C25.0374 52.3689 25.038 52.3689 25.0385 52.369L54.2862 55.661ZM57.5747 32.7529L57.5732 32.7605L57.5725 32.7683L55.6731 53.092L55.673 53.0924C55.6176 53.7023 55.0615 54.1515 54.4448 54.0964C54.4442 54.0963 54.4437 54.0963 54.4431 54.0962L25.2588 50.8043L25.2569 50.8041C24.7626 50.7546 24.3973 50.3976 24.2825 49.9637H52.6567C54.1324 49.9637 55.3392 48.7569 55.3392 47.2812V31.4264L56.6325 31.5389L56.6324 31.5394H56.6455C56.9056 31.5394 57.1808 31.699 57.3485 31.9226L57.3485 31.9226C57.5207 32.152 57.6275 32.4893 57.5747 32.7529ZM22.4163 29.0702H53.7731V32.569H22.4163V29.0702ZM23.5325 25.9045H52.6567C53.2704 25.9045 53.773 26.4072 53.773 27.0208V27.5039H22.4163V27.0208C22.4163 26.4072 22.919 25.9045 23.5325 25.9045ZM22.4163 47.2811V34.1352H53.7731V47.2811C53.7731 47.8947 53.2704 48.3974 52.6568 48.3974H23.5326C22.919 48.3974 22.4163 47.8947 22.4163 47.2811Z" fill="#333333" stroke="#333333" stroke-width="0.3"/>
</g>
<defs>
<clipPath id="clip0_10_646">
<rect width="38" height="38" fill="white" transform="translate(21 21)"/>
</clipPath>
</defs>
</svg>
