<svg width="80" height="80" viewBox="0 0 80 80" fill="none" xmlns="http://www.w3.org/2000/svg">
<circle cx="40" cy="40" r="38.5" stroke="#FF4646" stroke-width="3"/>
<g clip-path="url(#clip0_10_659)">
<path d="M30.2499 41.35C25.6185 41.35 21.85 45.1184 21.85 49.7502C21.85 54.3816 25.6184 58.1501 30.2499 58.1501C34.8816 58.1501 38.6501 54.3817 38.6501 49.7502C38.6501 45.1185 34.8817 41.35 30.2499 41.35ZM30.2499 56.3502C26.6106 56.3502 23.6499 53.3895 23.6499 49.7502C23.6499 46.1106 26.6106 43.1502 30.2499 43.1502C33.8895 43.1502 36.8499 46.1106 36.8499 49.7502C36.8499 53.3895 33.8895 56.3502 30.2499 56.3502Z" fill="#333333" stroke="#333333" stroke-width="0.3"/>
<path d="M29.3501 49.6002V46V45.85H29.5001H31H31.15V46V50.4999V50.5H31C31.0001 50.5985 30.9807 50.6961 30.9431 50.7871C30.9054 50.8782 30.8501 50.9609 30.7805 51.0306C30.7108 51.1002 30.6281 51.1555 30.537 51.1931C30.446 51.2308 30.3484 51.2502 30.2499 51.2501L29.3501 49.6002ZM29.3501 49.6002H26.5H26.35V49.7502V51.2501V51.4001H26.5H30.2498L29.3501 49.6002Z" fill="#333333" stroke="#333333" stroke-width="0.3"/>
<path d="M53.6433 26.65H56.3502V29.3501H53.5001H53.3501V29.5001V31V31.15H53.5001H56.3502V53.35H39.25H39.1V53.5V54.9999V55.1499H39.25H56.5002C57.4103 55.1499 58.1501 54.4101 58.1501 53.5V26.5C58.1501 25.5899 57.4103 24.8501 56.5002 24.8501H53.6501V23.4999C53.6501 22.5898 52.9103 21.85 52.0002 21.85H50.5C49.5899 21.85 48.8501 22.5898 48.8501 23.4999V24.8501H32.65V23.4999C32.65 22.5898 31.9102 21.85 31.0001 21.85H29.5002C28.5901 21.85 27.85 22.5897 27.85 23.4999V24.8501H25.0002C24.0901 24.8501 23.35 25.5898 23.35 26.5V41.4999V41.6499H23.5H25.0002H25.1502V41.4999V31.15H52.0002H52.1502V31V29.5001V29.3501H52.0002H25.1502V26.65H27.8568C27.9327 27.4901 28.6406 28.1499 29.5002 28.1499H31.0001C31.8597 28.1499 32.5673 27.49 32.6432 26.65H48.8568C48.9328 27.49 49.6404 28.1499 50.5 28.1499H52.0002C52.8598 28.1499 53.5674 27.49 53.6433 26.65ZM29.6502 26.35V23.6499H30.8502L30.8514 26.35H29.6502ZM50.65 26.35V23.6499H51.8503L51.8515 26.35H50.65Z" fill="#333333" stroke="#333333" stroke-width="0.3"/>
<path d="M31 38.65C31.9102 38.65 32.6499 37.9099 32.6499 36.9998V35.4999C32.6499 34.5898 31.9101 33.85 31 33.85H27.9999C27.0898 33.85 26.35 34.5898 26.35 35.4999V36.9998C26.35 37.9099 27.0897 38.65 27.9999 38.65H31ZM28.1499 35.6499H30.8501L30.8513 36.8498H28.1499V35.6499ZM40.15 36.9998V35.4999C40.15 34.5898 39.4102 33.85 38.5001 33.85H35.5C34.5899 33.85 33.8501 34.5898 33.8501 35.4999V36.9998C33.8501 37.9099 34.5898 38.65 35.5 38.65H38.5001C39.4103 38.65 40.15 37.9099 40.15 36.9998ZM35.65 36.8498V35.6499H38.3502L38.3514 36.8498H35.65ZM43.0001 38.65H45.9999C46.91 38.65 47.6501 37.91 47.6501 36.9998V35.4999C47.6501 34.5897 46.91 33.85 45.9999 33.85H43.0001C42.09 33.85 41.3499 34.5897 41.3499 35.4999V36.9998C41.3499 37.91 42.09 38.65 43.0001 38.65ZM43.1501 35.6499H45.8501L45.8514 36.8498H43.1501V35.6499ZM50.4999 38.65H53.5C54.4102 38.65 55.1499 37.9099 55.1499 36.9998V35.4999C55.1499 34.5898 54.4101 33.85 53.5 33.85H50.4999C49.5898 33.85 48.85 34.5898 48.85 35.4999V36.9998C48.85 37.9099 49.5897 38.65 50.4999 38.65ZM50.6499 35.6499H53.3501L53.3513 36.8498H50.6499V35.6499ZM41.3499 43C41.3499 43.9102 42.09 44.6499 43.0001 44.6499H45.9999C46.91 44.6499 47.6501 43.9102 47.6501 43V41.4998C47.6501 40.5896 46.91 39.8499 45.9999 39.8499H43.0001C42.09 39.8499 41.3499 40.5896 41.3499 41.4998V43ZM43.1501 41.6498H45.8501L45.8514 42.85H43.1501V41.6498ZM48.85 43C48.85 43.9101 49.5898 44.6499 50.4999 44.6499H53.5C54.4101 44.6499 55.1499 43.9101 55.1499 43V41.4998C55.1499 40.5897 54.4101 39.8499 53.5 39.8499H50.4999C49.5898 39.8499 48.85 40.5897 48.85 41.4998V43ZM50.6499 41.6498H53.3501L53.3513 42.85H50.6499V41.6498ZM41.3499 48.9999C41.3499 49.9101 42.09 50.6498 43.0001 50.6498H45.9999C46.91 50.6498 47.6501 49.9101 47.6501 48.9999V47.5C47.6501 46.5899 46.91 45.8498 45.9999 45.8498H43.0001C42.09 45.8498 41.3499 46.5899 41.3499 47.5V48.9999ZM43.1501 47.65H45.8501L45.8514 48.8499H43.1501V47.65ZM48.85 48.9999C48.85 49.91 49.5898 50.6498 50.4999 50.6498H53.5C54.4101 50.6498 55.1499 49.91 55.1499 48.9999V47.5C55.1499 46.5899 54.4102 45.8498 53.5 45.8498H50.4999C49.5897 45.8498 48.85 46.5899 48.85 47.5V48.9999ZM50.6499 47.65H53.3501L53.3513 48.8499H50.6499V47.65Z" fill="#333333" stroke="#333333" stroke-width="0.3"/>
</g>
<defs>
<clipPath id="clip0_10_659">
<rect width="36" height="36" fill="white" transform="translate(22 22)"/>
</clipPath>
</defs>
</svg>
