<svg width="257" height="26" viewBox="0 0 257 26" fill="none" xmlns="http://www.w3.org/2000/svg">
<path d="M121.113 24.8979L133.278 1.11328H135.15L147.128 24.8979H145.269L134.214 3.01029L123.343 24.8979H121.113Z" fill="#333333"/>
<path fill-rule="evenodd" clip-rule="evenodd" d="M132.729 0.217285H135.702L148.583 25.7949H144.718L134.22 5.01263L123.898 25.7949H119.647L132.729 0.217285ZM129.79 9.90191L122.578 24.0019H122.787L129.79 9.90191Z" fill="#333333"/>
<path d="M1.07568 12.458H24.8603V14.1263H1.07568V12.458Z" fill="#333333"/>
<path fill-rule="evenodd" clip-rule="evenodd" d="M0 11.3823H25.9362V15.2022H0V11.3823ZM1.07581 12.4581V14.1264H24.8604V12.4581H1.07581Z" fill="#333333"/>
<path d="M1.07568 23.1353H24.8603V24.8035H1.07568V23.1353Z" fill="#333333"/>
<path fill-rule="evenodd" clip-rule="evenodd" d="M0 22.0596H25.9362V25.8795H0V22.0596ZM1.07581 23.1354V24.8037H24.8604V23.1354H1.07581Z" fill="#333333"/>
<path d="M1.07568 1.44775H24.8603V3.11604H1.07568V1.44775Z" fill="#333333"/>
<path fill-rule="evenodd" clip-rule="evenodd" d="M0 0.371582H25.9362V4.19149H0V0.371582ZM1.07581 1.44739V3.11568H24.8604V1.44739H1.07581Z" fill="#333333"/>
<path d="M153.817 1.07568H176.115V2.74397H153.817V1.07568Z" fill="#333333"/>
<path fill-rule="evenodd" clip-rule="evenodd" d="M152.741 0H177.191V3.81991H152.741V0ZM153.817 1.07581V2.7441H176.115V1.07581H153.817Z" fill="#333333"/>
<path d="M166.081 24.8364L166.081 1.1468L164.223 1.1468L164.223 24.8364L166.081 24.8364Z" fill="#333333"/>
<path fill-rule="evenodd" clip-rule="evenodd" d="M167.157 25.9121L167.157 0.0708618L163.147 0.0708617L163.147 25.9121L167.157 25.9121ZM166.081 24.8363L164.223 24.8363L164.223 1.14667L166.081 1.14667L166.081 24.8363Z" fill="#333333"/>
<path d="M78.0038 24.8364L78.0038 1.1468L76.1456 1.1468L76.1456 24.8364L78.0038 24.8364Z" fill="#333333"/>
<path fill-rule="evenodd" clip-rule="evenodd" d="M79.0797 25.9121L79.0797 0.0708618L75.0699 0.0708617L75.0699 25.9121L79.0797 25.9121ZM78.0039 24.8363L76.1457 24.8363L76.1457 1.14667L78.0039 1.14667L78.0039 24.8363Z" fill="#333333"/>
<path d="M188.751 24.8364L188.751 1.1468L186.893 1.1468L186.893 24.8364L188.751 24.8364Z" fill="#333333"/>
<path fill-rule="evenodd" clip-rule="evenodd" d="M189.827 25.9121L189.827 0.0708618L185.817 0.0708617L185.817 25.9121L189.827 25.9121ZM188.751 24.8363L186.893 24.8363L186.893 1.14667L188.751 1.14667L188.751 24.8363Z" fill="#333333"/>
<path d="M36.7523 24.8979L36.7523 1.48498L38.6105 1.48498L38.6105 24.8979L36.7523 24.8979Z" fill="#333333"/>
<path fill-rule="evenodd" clip-rule="evenodd" d="M35.6766 25.9736L35.6766 0.409037L39.6864 0.409036L39.6864 25.9736L35.6766 25.9736ZM36.7524 24.8978L38.6106 24.8978L38.6106 1.48485L36.7524 1.48485L36.7524 24.8978Z" fill="#333333"/>
<path d="M63.6329 24.874L63.6329 1.51807L61.7748 1.51807L61.7748 24.874L63.6329 24.874Z" fill="#333333"/>
<path fill-rule="evenodd" clip-rule="evenodd" d="M64.7089 25.9497L64.7089 0.442127L60.6991 0.442127L60.6991 25.9497L64.7089 25.9497ZM63.6331 24.8739L61.7749 24.8739L61.7749 1.51794L63.6331 1.51794L63.6331 24.8739Z" fill="#333333"/>
<path d="M50.3667 22.9126L37.5453 2.59968L39.1683 1.85641L51.11 21.7041L50.3667 22.9126Z" fill="#333333"/>
<path fill-rule="evenodd" clip-rule="evenodd" d="M50.4053 24.9824L35.9877 2.14071L39.598 0.487372L52.3921 21.7519L50.4053 24.9824ZM50.3668 22.9131L51.11 21.7045L39.1684 1.85687L37.5454 2.60014L50.3668 22.9131Z" fill="#333333"/>
<path d="M50.6888 22.4819L62.9527 2.41366L61.2804 1.85624L49.574 21.1653L50.6888 22.4819Z" fill="#333333"/>
<path fill-rule="evenodd" clip-rule="evenodd" d="M50.8115 24.3403L64.5629 1.83779L60.7972 0.582574L48.2371 21.2999L50.8115 24.3403ZM50.689 22.4823L49.5742 21.1657L61.2805 1.85662L62.9528 2.41403L50.689 22.4823Z" fill="#333333"/>
<path fill-rule="evenodd" clip-rule="evenodd" d="M89.8959 13.2537V25.0986H92.4973V15.2512H100.77C101.211 15.2512 101.639 15.2405 102.053 15.2191L109.4 25.0986H112.566L104.854 14.8706C105.517 14.7308 106.131 14.5524 106.698 14.3354C108.292 13.7249 109.493 12.8766 110.301 11.7903C111.119 10.7041 111.529 9.45136 111.529 8.03213C111.529 6.61289 111.119 5.3562 110.301 4.26204C109.493 3.15995 108.286 2.29969 106.681 1.68125C105.088 1.05488 103.101 0.741699 100.721 0.741699H89.8959V3.07712L92.967 3.07715V3.0773H100.673C100.997 3.0773 101.31 3.07328 101.612 3.06941C102.956 3.05214 104.082 3.03769 105.027 3.39384C106.196 3.82992 107.069 4.44836 107.648 5.24916C108.226 6.04203 108.516 6.96968 108.516 8.03213C108.516 9.09457 108.226 10.0143 107.648 10.7913C107.08 11.5683 106.212 12.1669 105.044 12.5872C103.887 13.0074 102.435 13.2175 100.688 13.2175L92.967 13.2482V13.2537H92.4973H91.586H89.8959Z" fill="#333333"/>
<path fill-rule="evenodd" clip-rule="evenodd" d="M89.1786 25.8158V12.5364H92.2497V12.5337L100.688 12.5002C102.383 12.5002 103.746 12.2955 104.799 11.9129L104.801 11.9122C105.873 11.5265 106.607 11.0002 107.069 10.3681L107.07 10.3655L107.072 10.3629C107.55 9.72171 107.798 8.9559 107.798 8.03205C107.798 7.10835 107.55 6.3317 107.068 5.67187L107.066 5.66913C106.59 5.0098 105.847 4.46522 104.777 4.06568L104.775 4.06491C103.982 3.76635 103.007 3.76868 101.621 3.78648L101.619 3.7865C101.319 3.79036 101.002 3.79442 100.673 3.79442H92.2497L89.1786 3.79424V0.0244141H100.72C103.157 0.0244141 105.239 0.344087 106.942 1.0128C108.639 1.66735 109.97 2.59879 110.877 3.83505C111.791 5.05762 112.246 6.46549 112.246 8.03205C112.246 9.5991 111.791 11.0044 110.875 12.2203C109.967 13.4399 108.642 14.3589 106.954 15.0051C106.672 15.1133 106.379 15.2121 106.077 15.3015L114.004 25.8158H109.039L101.705 15.9521C101.399 15.9629 101.087 15.9683 100.77 15.9683H93.2144V25.8158H89.1786ZM92.4972 15.2511H100.77C101.211 15.2511 101.639 15.2404 102.053 15.2191L109.4 25.0985H112.565L104.854 14.8705C105.115 14.8155 105.368 14.7545 105.614 14.6875C105.993 14.5843 106.354 14.4669 106.698 14.3354C108.292 13.7248 109.493 12.8765 110.301 11.7902C111.119 10.704 111.529 9.45128 111.529 8.03205C111.529 6.61281 111.119 5.35612 110.301 4.26196C109.493 3.15987 108.286 2.29961 106.681 1.68117C105.087 1.0548 103.1 0.741622 100.72 0.741622H89.8958V3.07704L92.9669 3.07707L100.673 3.07722C100.997 3.07722 101.31 3.0732 101.612 3.06933C102.956 3.05207 104.082 3.03761 105.027 3.39377C106.196 3.82985 107.069 4.44828 107.648 5.24908C108.226 6.04195 108.516 6.9696 108.516 8.03205C108.516 9.09449 108.226 10.0142 107.648 10.7912C107.08 11.5682 106.212 12.1669 105.044 12.5871C103.887 13.0073 102.435 13.2174 100.688 13.2174L92.9669 13.2481V13.2536H89.8958V25.0985H92.4972V15.2511Z" fill="#333333"/>
<path d="M198.785 13.0228C198.785 11.313 199.109 9.70574 199.757 8.20109C200.428 6.67365 201.353 5.3286 202.533 4.16592C203.712 2.98044 205.066 2.05714 206.592 1.39601C208.142 0.712081 209.808 0.370117 211.589 0.370117C213.347 0.370117 214.99 0.712081 216.516 1.39601C218.066 2.05714 219.431 2.98044 220.611 4.16592C221.814 5.3286 222.751 6.67365 223.422 8.20109C224.093 9.70574 224.428 11.313 224.428 13.0228C224.428 14.7782 224.093 16.4196 223.422 17.9471C222.751 19.4745 221.814 20.8196 220.611 21.9822C219.431 23.1221 218.066 24.0226 216.516 24.6838C214.99 25.3221 213.347 25.6413 211.589 25.6413C209.808 25.6413 208.142 25.3221 206.592 24.6838C205.066 24.0454 203.712 23.1563 202.533 22.0164C201.353 20.8766 200.428 19.5429 199.757 18.0155C199.109 16.488 198.785 14.8238 198.785 13.0228ZM202.255 13.057C202.255 14.3564 202.498 15.5761 202.984 16.716C203.47 17.8331 204.14 18.8248 204.996 19.6911C205.852 20.5574 206.847 21.2413 207.98 21.7429C209.114 22.2216 210.34 22.461 211.659 22.461C212.954 22.461 214.169 22.2216 215.302 21.7429C216.436 21.2413 217.419 20.5574 218.251 19.6911C219.084 18.8248 219.744 17.8331 220.229 16.716C220.715 15.5761 220.958 14.345 220.958 13.0228C220.958 11.7233 220.715 10.5037 220.229 9.36377C219.744 8.20109 219.073 7.1866 218.217 6.32029C217.361 5.45398 216.366 4.78145 215.233 4.3027C214.099 3.80116 212.885 3.55038 211.589 3.55038C210.271 3.55038 209.045 3.80116 207.911 4.3027C206.778 4.80425 205.783 5.48818 204.927 6.35449C204.071 7.2208 203.412 8.23529 202.949 9.39797C202.486 10.5378 202.255 11.7575 202.255 13.057Z" fill="#333333"/>
<path fill-rule="evenodd" clip-rule="evenodd" d="M199.428 8.0566L199.428 8.05661C200.117 6.48841 201.068 5.10594 202.28 3.91142C203.491 2.6948 204.881 1.74617 206.449 1.06715C208.046 0.362395 209.761 0.0112305 211.589 0.0112305C213.394 0.0112305 215.086 0.362388 216.66 1.06714C218.25 1.74568 219.651 2.69373 220.863 3.91021C222.098 5.10437 223.06 6.48687 223.75 8.05562C224.441 9.60773 224.786 11.2646 224.786 13.0225C224.786 14.8249 224.442 16.5157 223.75 18.091C223.06 19.6612 222.097 21.0448 220.86 22.2398L220.86 22.2399C219.648 23.411 218.246 24.3355 216.657 25.0133L216.655 25.0143C215.082 25.6721 213.392 25.9996 211.589 25.9996C209.764 25.9996 208.052 25.6723 206.456 25.0151L206.454 25.0143C204.887 24.3589 203.496 23.4452 202.283 22.2741C201.07 21.1012 200.118 19.7288 199.428 18.1594L199.427 18.1552L199.427 18.1552C198.758 16.5798 198.427 14.8675 198.427 13.0225C198.427 11.2661 198.759 9.6104 199.427 8.05902L199.428 8.0566ZM223.422 8.20081C222.751 6.67337 221.814 5.32831 220.611 4.16564C219.431 2.98016 218.066 2.05686 216.516 1.39573C214.99 0.711798 213.347 0.369834 211.589 0.369834C209.808 0.369834 208.142 0.711798 206.592 1.39573C205.066 2.05686 203.712 2.98016 202.533 4.16564C201.353 5.32831 200.428 6.67337 199.757 8.20081C199.109 9.70545 198.785 11.3127 198.785 13.0225C198.785 14.8235 199.109 16.4877 199.757 18.0152C200.428 19.5426 201.353 20.8763 202.533 22.0162C203.712 23.156 205.066 24.0451 206.592 24.6835C208.142 25.3218 209.808 25.641 211.589 25.641C213.347 25.641 214.99 25.3218 216.516 24.6835C218.066 24.0223 219.431 23.1218 220.611 21.982C221.814 20.8193 222.751 19.4742 223.422 17.9468C224.092 16.4193 224.428 14.7779 224.428 13.0225C224.428 11.3127 224.092 9.70545 223.422 8.20081ZM219.899 9.50408L219.898 9.50174C219.43 8.38 218.784 7.4045 217.962 6.57204C217.139 5.73951 216.184 5.09343 215.093 4.63277L215.09 4.63158L215.087 4.63036C214.002 4.14994 212.837 3.9087 211.589 3.9087C210.317 3.9087 209.141 4.1503 208.056 4.63036C206.963 5.11405 206.006 5.77248 205.182 6.60624C204.361 7.43742 203.728 8.41098 203.282 9.53027L203.281 9.53255L203.281 9.53255C202.837 10.6272 202.614 11.8008 202.614 13.0567C202.614 14.3098 202.848 15.481 203.313 16.5739C203.781 17.6499 204.427 18.6042 205.251 19.4388C206.074 20.2718 207.031 20.9298 208.123 21.4134C209.208 21.8714 210.386 22.1021 211.659 22.1021C212.908 22.1021 214.073 21.8718 215.16 21.4134C216.251 20.9302 217.194 20.2732 217.993 19.4423C218.795 18.6074 219.431 17.652 219.9 16.574C220.365 15.4818 220.599 14.2993 220.599 13.0225C220.599 11.769 220.365 10.5974 219.899 9.50408ZM220.229 16.7157C219.743 17.8328 219.084 18.8245 218.251 19.6908C217.419 20.5571 216.435 21.241 215.302 21.7426C214.168 22.2213 212.954 22.4607 211.659 22.4607C210.34 22.4607 209.114 22.2213 207.98 21.7426C206.847 21.241 205.852 20.5571 204.996 19.6908C204.14 18.8245 203.47 17.8328 202.984 16.7157C202.498 15.5758 202.255 14.3562 202.255 13.0567C202.255 11.7572 202.486 10.5376 202.949 9.39769C203.412 8.23501 204.071 7.22051 204.927 6.3542C205.783 5.4879 206.778 4.80397 207.911 4.30242C209.045 3.80087 210.271 3.5501 211.589 3.5501C212.885 3.5501 214.099 3.80087 215.233 4.30242C216.366 4.78117 217.361 5.4537 218.217 6.32001C219.073 7.18632 219.743 8.20081 220.229 9.36349C220.715 10.5034 220.958 11.723 220.958 13.0225C220.958 14.3448 220.715 15.5758 220.229 16.7157Z" fill="#333333"/>
<path d="M252.257 25.6413L245.247 16.8077L236.399 6.03069V7.42569L236.471 25.6413H232.975V0.370117H236.399L252.257 20.1644V19.5016L252.115 0.370117H255.645V25.6413H252.257Z" fill="#333333"/>
<path fill-rule="evenodd" clip-rule="evenodd" d="M252.084 25.9996L244.968 17.0326L236.758 7.03234V7.4254L236.832 25.9996H232.617V0.0112305H236.572L251.896 19.1396L251.754 0.0112305H256.004V25.9996H252.084ZM236.4 0.369834H232.976V25.641H236.472L236.4 7.4254V6.03041L245.247 16.8074L252.258 25.641H255.645V0.369834H252.115L252.258 19.5013V20.1642L236.4 0.369834Z" fill="#333333"/>
</svg>
