<svg width="20" height="20" viewBox="0 0 20 20" fill="none" xmlns="http://www.w3.org/2000/svg">
<g clip-path="url(#clip0_10_1687)">
<path d="M14.3389 7.32756C14.0139 7.00214 13.4856 7.00214 13.1606 7.32756L9.58307 10.9046L8.0889 9.4109C7.7639 9.08548 7.23557 9.08548 6.91057 9.4109C6.58515 9.73631 6.58515 10.2638 6.91057 10.5892L8.9939 12.6726C9.1564 12.8355 9.36974 12.9167 9.58307 12.9167C9.7964 12.9167 10.0098 12.8355 10.1723 12.6726L14.3389 8.50589C14.6644 8.18048 14.6644 7.65298 14.3389 7.32756Z" fill="#207232"/>
<path d="M19.1667 9.16667C18.7067 9.16667 18.3333 9.54 18.3333 10C18.3333 14.595 14.595 18.3333 10 18.3333C5.405 18.3333 1.66667 14.595 1.66667 10C1.66667 5.405 5.405 1.66667 10 1.66667C12.2371 1.66667 14.3371 2.54083 15.9137 4.12833C16.2375 4.45542 16.7654 4.45708 17.0921 4.1325C17.4187 3.80833 17.4204 3.28083 17.0962 2.95417C15.2046 1.04917 12.6842 0 10 0C4.48583 0 0 4.48583 0 10C0 15.5142 4.48583 20 10 20C15.5142 20 20 15.5142 20 10C20 9.54 19.6267 9.16667 19.1667 9.16667Z" fill="#207232"/>
</g>
<defs>
<clipPath id="clip0_10_1687">
<rect width="20" height="20" fill="white"/>
</clipPath>
</defs>
</svg>
